<?xml version="1.0" standalone="no"?>
<!DOCTYPE svg PUBLIC "-//W3C//DTD SVG 20010904//EN"
 "http://www.w3.org/TR/2001/REC-SVG-20010904/DTD/svg10.dtd">
<svg version="1.0" xmlns="http://www.w3.org/2000/svg"
 width="2079.000000pt" height="1314.000000pt" viewBox="0 0 2079.000000 1314.000000"
 preserveAspectRatio="xMidYMid meet">

<g transform="translate(0.000000,1314.000000) scale(0.100000,-0.100000)"
fill="#000000" stroke="none">
<path d="M116 13130 c-42 -13 -95 -68 -107 -113 -16 -58 -2 -113 38 -158 64
-71 163 -76 234 -12 71 64 76 163 12 234 -47 52 -108 69 -177 49z"/>
<path d="M1716 13130 c-42 -13 -95 -68 -107 -113 -16 -58 -2 -113 38 -158 64
-71 163 -76 234 -12 71 64 76 163 12 234 -47 52 -108 69 -177 49z"/>
<path d="M3316 13130 c-42 -13 -95 -68 -107 -113 -16 -58 -2 -113 38 -158 64
-71 163 -76 234 -12 71 64 76 163 12 234 -47 52 -108 69 -177 49z"/>
<path d="M4916 13130 c-42 -13 -95 -68 -107 -113 -16 -58 -2 -113 38 -158 64
-71 163 -76 234 -12 71 64 76 163 12 234 -47 52 -108 69 -177 49z"/>
<path d="M6516 13130 c-42 -13 -95 -68 -107 -113 -16 -58 -2 -113 38 -158 64
-71 163 -76 234 -12 71 64 76 163 12 234 -47 52 -108 69 -177 49z"/>
<path d="M8116 13130 c-42 -13 -95 -68 -107 -113 -16 -58 -2 -113 38 -158 64
-71 163 -76 234 -12 71 64 76 163 12 234 -47 52 -108 69 -177 49z"/>
<path d="M9716 13130 c-42 -13 -95 -68 -107 -113 -16 -58 -2 -113 38 -158 64
-71 163 -76 234 -12 71 64 76 163 12 234 -47 52 -108 69 -177 49z"/>
<path d="M11356 13130 c-42 -13 -95 -68 -107 -113 -16 -58 -2 -113 38 -158 64
-71 163 -76 234 -12 71 64 76 163 12 234 -47 52 -108 69 -177 49z"/>
<path d="M12956 13130 c-42 -13 -95 -68 -107 -113 -16 -58 -2 -113 38 -158 64
-71 163 -76 234 -12 71 64 76 163 12 234 -47 52 -108 69 -177 49z"/>
<path d="M14556 13130 c-42 -13 -95 -68 -107 -113 -16 -58 -2 -113 38 -158 64
-71 163 -76 234 -12 71 64 76 163 12 234 -47 52 -108 69 -177 49z"/>
<path d="M16156 13130 c-42 -13 -95 -68 -107 -113 -16 -58 -2 -113 38 -158 64
-71 163 -76 234 -12 71 64 76 163 12 234 -47 52 -108 69 -177 49z"/>
<path d="M17756 13130 c-42 -13 -95 -68 -107 -113 -16 -58 -2 -113 38 -158 64
-71 163 -76 234 -12 71 64 76 163 12 234 -47 52 -108 69 -177 49z"/>
<path d="M19356 13130 c-42 -13 -95 -68 -107 -113 -16 -58 -2 -113 38 -158 64
-71 163 -76 234 -12 71 64 76 163 12 234 -47 52 -108 69 -177 49z"/>
<path d="M916 12330 c-42 -13 -95 -68 -107 -113 -16 -58 -2 -113 38 -158 64
-71 163 -76 234 -12 71 64 76 163 12 234 -47 52 -108 69 -177 49z"/>
<path d="M2516 12330 c-42 -13 -95 -68 -107 -113 -16 -58 -2 -113 38 -158 64
-71 163 -76 234 -12 71 64 76 163 12 234 -47 52 -108 69 -177 49z"/>
<path d="M4116 12330 c-42 -13 -95 -68 -107 -113 -16 -58 -2 -113 38 -158 64
-71 163 -76 234 -12 71 64 76 163 12 234 -47 52 -108 69 -177 49z"/>
<path d="M5716 12330 c-42 -13 -95 -68 -107 -113 -16 -58 -2 -113 38 -158 64
-71 163 -76 234 -12 71 64 76 163 12 234 -47 52 -108 69 -177 49z"/>
<path d="M7316 12330 c-42 -13 -95 -68 -107 -113 -16 -58 -2 -113 38 -158 64
-71 163 -76 234 -12 71 64 76 163 12 234 -47 52 -108 69 -177 49z"/>
<path d="M8916 12330 c-42 -13 -95 -68 -107 -113 -16 -58 -2 -113 38 -158 64
-71 163 -76 234 -12 71 64 76 163 12 234 -47 52 -108 69 -177 49z"/>
<path d="M10516 12330 c-42 -13 -95 -68 -107 -113 -16 -58 -2 -113 38 -158 64
-71 163 -76 234 -12 71 64 76 163 12 234 -47 52 -108 69 -177 49z"/>
<path d="M12156 12330 c-42 -13 -95 -68 -107 -113 -16 -58 -2 -113 38 -158 64
-71 163 -76 234 -12 71 64 76 163 12 234 -47 52 -108 69 -177 49z"/>
<path d="M13756 12330 c-42 -13 -95 -68 -107 -113 -16 -58 -2 -113 38 -158 64
-71 163 -76 234 -12 71 64 76 163 12 234 -47 52 -108 69 -177 49z"/>
<path d="M15356 12330 c-42 -13 -95 -68 -107 -113 -16 -58 -2 -113 38 -158 64
-71 163 -76 234 -12 71 64 76 163 12 234 -47 52 -108 69 -177 49z"/>
<path d="M16956 12330 c-42 -13 -95 -68 -107 -113 -16 -58 -2 -113 38 -158 64
-71 163 -76 234 -12 71 64 76 163 12 234 -47 52 -108 69 -177 49z"/>
<path d="M18556 12330 c-42 -13 -95 -68 -107 -113 -16 -58 -2 -113 38 -158 64
-71 163 -76 234 -12 71 64 76 163 12 234 -47 52 -108 69 -177 49z"/>
<path d="M20156 12330 c-42 -13 -95 -68 -107 -113 -16 -58 -2 -113 38 -158 64
-71 163 -76 234 -12 71 64 76 163 12 234 -47 52 -108 69 -177 49z"/>
<path d="M116 11530 c-42 -13 -95 -68 -107 -113 -16 -58 -2 -113 38 -158 64
-71 163 -76 234 -12 71 64 76 163 12 234 -47 52 -108 69 -177 49z"/>
<path d="M1716 11530 c-42 -13 -95 -68 -107 -113 -16 -58 -2 -113 38 -158 64
-71 163 -76 234 -12 71 64 76 163 12 234 -47 52 -108 69 -177 49z"/>
<path d="M3316 11530 c-42 -13 -95 -68 -107 -113 -16 -58 -2 -113 38 -158 64
-71 163 -76 234 -12 71 64 76 163 12 234 -47 52 -108 69 -177 49z"/>
<path d="M4916 11530 c-42 -13 -95 -68 -107 -113 -16 -58 -2 -113 38 -158 64
-71 163 -76 234 -12 71 64 76 163 12 234 -47 52 -108 69 -177 49z"/>
<path d="M6516 11530 c-42 -13 -95 -68 -107 -113 -16 -58 -2 -113 38 -158 64
-71 163 -76 234 -12 71 64 76 163 12 234 -47 52 -108 69 -177 49z"/>
<path d="M8116 11530 c-42 -13 -95 -68 -107 -113 -16 -58 -2 -113 38 -158 64
-71 163 -76 234 -12 71 64 76 163 12 234 -47 52 -108 69 -177 49z"/>
<path d="M9716 11530 c-42 -13 -95 -68 -107 -113 -16 -58 -2 -113 38 -158 64
-71 163 -76 234 -12 71 64 76 163 12 234 -47 52 -108 69 -177 49z"/>
<path d="M11356 11530 c-42 -13 -95 -68 -107 -113 -16 -58 -2 -113 38 -158 64
-71 163 -76 234 -12 71 64 76 163 12 234 -47 52 -108 69 -177 49z"/>
<path d="M12956 11530 c-42 -13 -95 -68 -107 -113 -16 -58 -2 -113 38 -158 64
-71 163 -76 234 -12 71 64 76 163 12 234 -47 52 -108 69 -177 49z"/>
<path d="M14556 11530 c-42 -13 -95 -68 -107 -113 -16 -58 -2 -113 38 -158 64
-71 163 -76 234 -12 71 64 76 163 12 234 -47 52 -108 69 -177 49z"/>
<path d="M16156 11530 c-42 -13 -95 -68 -107 -113 -16 -58 -2 -113 38 -158 64
-71 163 -76 234 -12 71 64 76 163 12 234 -47 52 -108 69 -177 49z"/>
<path d="M17756 11530 c-42 -13 -95 -68 -107 -113 -16 -58 -2 -113 38 -158 64
-71 163 -76 234 -12 71 64 76 163 12 234 -47 52 -108 69 -177 49z"/>
<path d="M19356 11530 c-42 -13 -95 -68 -107 -113 -16 -58 -2 -113 38 -158 64
-71 163 -76 234 -12 71 64 76 163 12 234 -47 52 -108 69 -177 49z"/>
<path d="M916 10730 c-42 -13 -95 -68 -107 -113 -16 -58 -2 -113 38 -158 64
-71 163 -76 234 -12 71 64 76 163 12 234 -47 52 -108 69 -177 49z"/>
<path d="M2516 10730 c-42 -13 -95 -68 -107 -113 -16 -58 -2 -113 38 -158 64
-71 163 -76 234 -12 71 64 76 163 12 234 -47 52 -108 69 -177 49z"/>
<path d="M4116 10730 c-42 -13 -95 -68 -107 -113 -16 -58 -2 -113 38 -158 64
-71 163 -76 234 -12 71 64 76 163 12 234 -47 52 -108 69 -177 49z"/>
<path d="M5716 10730 c-42 -13 -95 -68 -107 -113 -16 -58 -2 -113 38 -158 64
-71 163 -76 234 -12 71 64 76 163 12 234 -47 52 -108 69 -177 49z"/>
<path d="M7316 10730 c-42 -13 -95 -68 -107 -113 -16 -58 -2 -113 38 -158 64
-71 163 -76 234 -12 71 64 76 163 12 234 -47 52 -108 69 -177 49z"/>
<path d="M8916 10730 c-42 -13 -95 -68 -107 -113 -16 -58 -2 -113 38 -158 64
-71 163 -76 234 -12 71 64 76 163 12 234 -47 52 -108 69 -177 49z"/>
<path d="M10516 10730 c-42 -13 -95 -68 -107 -113 -16 -58 -2 -113 38 -158 64
-71 163 -76 234 -12 71 64 76 163 12 234 -47 52 -108 69 -177 49z"/>
<path d="M12156 10730 c-42 -13 -95 -68 -107 -113 -16 -58 -2 -113 38 -158 64
-71 163 -76 234 -12 71 64 76 163 12 234 -47 52 -108 69 -177 49z"/>
<path d="M13756 10730 c-42 -13 -95 -68 -107 -113 -16 -58 -2 -113 38 -158 64
-71 163 -76 234 -12 71 64 76 163 12 234 -47 52 -108 69 -177 49z"/>
<path d="M15356 10730 c-42 -13 -95 -68 -107 -113 -16 -58 -2 -113 38 -158 64
-71 163 -76 234 -12 71 64 76 163 12 234 -47 52 -108 69 -177 49z"/>
<path d="M16956 10730 c-42 -13 -95 -68 -107 -113 -16 -58 -2 -113 38 -158 64
-71 163 -76 234 -12 71 64 76 163 12 234 -47 52 -108 69 -177 49z"/>
<path d="M18556 10730 c-42 -13 -95 -68 -107 -113 -16 -58 -2 -113 38 -158 64
-71 163 -76 234 -12 71 64 76 163 12 234 -47 52 -108 69 -177 49z"/>
<path d="M20156 10730 c-42 -13 -95 -68 -107 -113 -16 -58 -2 -113 38 -158 64
-71 163 -76 234 -12 71 64 76 163 12 234 -47 52 -108 69 -177 49z"/>
<path d="M116 9930 c-42 -13 -95 -68 -107 -113 -16 -58 -2 -113 38 -158 64
-71 163 -76 234 -12 71 64 76 163 12 234 -47 52 -108 69 -177 49z"/>
<path d="M1716 9930 c-42 -13 -95 -68 -107 -113 -16 -58 -2 -113 38 -158 64
-71 163 -76 234 -12 71 64 76 163 12 234 -47 52 -108 69 -177 49z"/>
<path d="M3316 9930 c-42 -13 -95 -68 -107 -113 -16 -58 -2 -113 38 -158 64
-71 163 -76 234 -12 71 64 76 163 12 234 -47 52 -108 69 -177 49z"/>
<path d="M4916 9930 c-42 -13 -95 -68 -107 -113 -16 -58 -2 -113 38 -158 64
-71 163 -76 234 -12 71 64 76 163 12 234 -47 52 -108 69 -177 49z"/>
<path d="M6516 9930 c-42 -13 -95 -68 -107 -113 -16 -58 -2 -113 38 -158 64
-71 163 -76 234 -12 71 64 76 163 12 234 -47 52 -108 69 -177 49z"/>
<path d="M8116 9930 c-42 -13 -95 -68 -107 -113 -16 -58 -2 -113 38 -158 64
-71 163 -76 234 -12 71 64 76 163 12 234 -47 52 -108 69 -177 49z"/>
<path d="M9716 9930 c-42 -13 -95 -68 -107 -113 -16 -58 -2 -113 38 -158 64
-71 163 -76 234 -12 71 64 76 163 12 234 -47 52 -108 69 -177 49z"/>
<path d="M11356 9930 c-42 -13 -95 -68 -107 -113 -16 -58 -2 -113 38 -158 64
-71 163 -76 234 -12 71 64 76 163 12 234 -47 52 -108 69 -177 49z"/>
<path d="M12956 9930 c-42 -13 -95 -68 -107 -113 -16 -58 -2 -113 38 -158 64
-71 163 -76 234 -12 71 64 76 163 12 234 -47 52 -108 69 -177 49z"/>
<path d="M14556 9930 c-42 -13 -95 -68 -107 -113 -16 -58 -2 -113 38 -158 64
-71 163 -76 234 -12 71 64 76 163 12 234 -47 52 -108 69 -177 49z"/>
<path d="M16156 9930 c-42 -13 -95 -68 -107 -113 -16 -58 -2 -113 38 -158 64
-71 163 -76 234 -12 71 64 76 163 12 234 -47 52 -108 69 -177 49z"/>
<path d="M17756 9930 c-42 -13 -95 -68 -107 -113 -16 -58 -2 -113 38 -158 64
-71 163 -76 234 -12 71 64 76 163 12 234 -47 52 -108 69 -177 49z"/>
<path d="M19356 9930 c-42 -13 -95 -68 -107 -113 -16 -58 -2 -113 38 -158 64
-71 163 -76 234 -12 71 64 76 163 12 234 -47 52 -108 69 -177 49z"/>
<path d="M916 9130 c-42 -13 -95 -68 -107 -113 -16 -58 -2 -113 38 -158 64
-71 163 -76 234 -12 71 64 76 163 12 234 -47 52 -108 69 -177 49z"/>
<path d="M2516 9130 c-42 -13 -95 -68 -107 -113 -16 -58 -2 -113 38 -158 64
-71 163 -76 234 -12 71 64 76 163 12 234 -47 52 -108 69 -177 49z"/>
<path d="M4116 9130 c-42 -13 -95 -68 -107 -113 -16 -58 -2 -113 38 -158 64
-71 163 -76 234 -12 71 64 76 163 12 234 -47 52 -108 69 -177 49z"/>
<path d="M5716 9130 c-42 -13 -95 -68 -107 -113 -16 -58 -2 -113 38 -158 64
-71 163 -76 234 -12 71 64 76 163 12 234 -47 52 -108 69 -177 49z"/>
<path d="M7316 9130 c-42 -13 -95 -68 -107 -113 -16 -58 -2 -113 38 -158 64
-71 163 -76 234 -12 71 64 76 163 12 234 -47 52 -108 69 -177 49z"/>
<path d="M8916 9130 c-42 -13 -95 -68 -107 -113 -16 -58 -2 -113 38 -158 64
-71 163 -76 234 -12 71 64 76 163 12 234 -47 52 -108 69 -177 49z"/>
<path d="M10516 9130 c-42 -13 -95 -68 -107 -113 -16 -58 -2 -113 38 -158 64
-71 163 -76 234 -12 71 64 76 163 12 234 -47 52 -108 69 -177 49z"/>
<path d="M12156 9130 c-42 -13 -95 -68 -107 -113 -16 -58 -2 -113 38 -158 64
-71 163 -76 234 -12 71 64 76 163 12 234 -47 52 -108 69 -177 49z"/>
<path d="M13756 9130 c-42 -13 -95 -68 -107 -113 -16 -58 -2 -113 38 -158 64
-71 163 -76 234 -12 71 64 76 163 12 234 -47 52 -108 69 -177 49z"/>
<path d="M15356 9130 c-42 -13 -95 -68 -107 -113 -16 -58 -2 -113 38 -158 64
-71 163 -76 234 -12 71 64 76 163 12 234 -47 52 -108 69 -177 49z"/>
<path d="M16956 9130 c-42 -13 -95 -68 -107 -113 -16 -58 -2 -113 38 -158 64
-71 163 -76 234 -12 71 64 76 163 12 234 -47 52 -108 69 -177 49z"/>
<path d="M18556 9130 c-42 -13 -95 -68 -107 -113 -16 -58 -2 -113 38 -158 64
-71 163 -76 234 -12 71 64 76 163 12 234 -47 52 -108 69 -177 49z"/>
<path d="M20156 9130 c-42 -13 -95 -68 -107 -113 -16 -58 -2 -113 38 -158 64
-71 163 -76 234 -12 71 64 76 163 12 234 -47 52 -108 69 -177 49z"/>
<path d="M116 8330 c-42 -13 -95 -68 -107 -113 -16 -58 -2 -113 38 -158 64
-71 163 -76 234 -12 71 64 76 163 12 234 -47 52 -108 69 -177 49z"/>
<path d="M1716 8330 c-42 -13 -95 -68 -107 -113 -16 -58 -2 -113 38 -158 64
-71 163 -76 234 -12 71 64 76 163 12 234 -47 52 -108 69 -177 49z"/>
<path d="M3316 8330 c-42 -13 -95 -68 -107 -113 -16 -58 -2 -113 38 -158 64
-71 163 -76 234 -12 71 64 76 163 12 234 -47 52 -108 69 -177 49z"/>
<path d="M4916 8330 c-42 -13 -95 -68 -107 -113 -16 -58 -2 -113 38 -158 64
-71 163 -76 234 -12 71 64 76 163 12 234 -47 52 -108 69 -177 49z"/>
<path d="M6516 8330 c-42 -13 -95 -68 -107 -113 -16 -58 -2 -113 38 -158 64
-71 163 -76 234 -12 71 64 76 163 12 234 -47 52 -108 69 -177 49z"/>
<path d="M8116 8330 c-42 -13 -95 -68 -107 -113 -16 -58 -2 -113 38 -158 64
-71 163 -76 234 -12 71 64 76 163 12 234 -47 52 -108 69 -177 49z"/>
<path d="M9716 8330 c-42 -13 -95 -68 -107 -113 -16 -58 -2 -113 38 -158 64
-71 163 -76 234 -12 71 64 76 163 12 234 -47 52 -108 69 -177 49z"/>
<path d="M11356 8330 c-42 -13 -95 -68 -107 -113 -16 -58 -2 -113 38 -158 64
-71 163 -76 234 -12 71 64 76 163 12 234 -47 52 -108 69 -177 49z"/>
<path d="M12956 8330 c-42 -13 -95 -68 -107 -113 -16 -58 -2 -113 38 -158 64
-71 163 -76 234 -12 71 64 76 163 12 234 -47 52 -108 69 -177 49z"/>
<path d="M14556 8330 c-42 -13 -95 -68 -107 -113 -16 -58 -2 -113 38 -158 64
-71 163 -76 234 -12 71 64 76 163 12 234 -47 52 -108 69 -177 49z"/>
<path d="M16156 8330 c-42 -13 -95 -68 -107 -113 -16 -58 -2 -113 38 -158 64
-71 163 -76 234 -12 71 64 76 163 12 234 -47 52 -108 69 -177 49z"/>
<path d="M17756 8330 c-42 -13 -95 -68 -107 -113 -16 -58 -2 -113 38 -158 64
-71 163 -76 234 -12 71 64 76 163 12 234 -47 52 -108 69 -177 49z"/>
<path d="M19356 8330 c-42 -13 -95 -68 -107 -113 -16 -58 -2 -113 38 -158 64
-71 163 -76 234 -12 71 64 76 163 12 234 -47 52 -108 69 -177 49z"/>
<path d="M916 7530 c-42 -13 -95 -68 -107 -113 -16 -58 -2 -113 38 -158 64
-71 163 -76 234 -12 71 64 76 163 12 234 -47 52 -108 69 -177 49z"/>
<path d="M2516 7530 c-42 -13 -95 -68 -107 -113 -16 -58 -2 -113 38 -158 64
-71 163 -76 234 -12 71 64 76 163 12 234 -47 52 -108 69 -177 49z"/>
<path d="M4116 7530 c-42 -13 -95 -68 -107 -113 -16 -58 -2 -113 38 -158 64
-71 163 -76 234 -12 71 64 76 163 12 234 -47 52 -108 69 -177 49z"/>
<path d="M5716 7530 c-42 -13 -95 -68 -107 -113 -16 -58 -2 -113 38 -158 64
-71 163 -76 234 -12 71 64 76 163 12 234 -47 52 -108 69 -177 49z"/>
<path d="M7316 7530 c-42 -13 -95 -68 -107 -113 -16 -58 -2 -113 38 -158 64
-71 163 -76 234 -12 71 64 76 163 12 234 -47 52 -108 69 -177 49z"/>
<path d="M8916 7530 c-42 -13 -95 -68 -107 -113 -16 -58 -2 -113 38 -158 64
-71 163 -76 234 -12 71 64 76 163 12 234 -47 52 -108 69 -177 49z"/>
<path d="M10516 7530 c-42 -13 -95 -68 -107 -113 -16 -58 -2 -113 38 -158 64
-71 163 -76 234 -12 71 64 76 163 12 234 -47 52 -108 69 -177 49z"/>
<path d="M12156 7530 c-42 -13 -95 -68 -107 -113 -16 -58 -2 -113 38 -158 64
-71 163 -76 234 -12 71 64 76 163 12 234 -47 52 -108 69 -177 49z"/>
<path d="M13756 7530 c-42 -13 -95 -68 -107 -113 -16 -58 -2 -113 38 -158 64
-71 163 -76 234 -12 71 64 76 163 12 234 -47 52 -108 69 -177 49z"/>
<path d="M15356 7530 c-42 -13 -95 -68 -107 -113 -16 -58 -2 -113 38 -158 64
-71 163 -76 234 -12 71 64 76 163 12 234 -47 52 -108 69 -177 49z"/>
<path d="M16956 7530 c-42 -13 -95 -68 -107 -113 -16 -58 -2 -113 38 -158 64
-71 163 -76 234 -12 71 64 76 163 12 234 -47 52 -108 69 -177 49z"/>
<path d="M18556 7530 c-42 -13 -95 -68 -107 -113 -16 -58 -2 -113 38 -158 64
-71 163 -76 234 -12 71 64 76 163 12 234 -47 52 -108 69 -177 49z"/>
<path d="M20156 7530 c-42 -13 -95 -68 -107 -113 -16 -58 -2 -113 38 -158 64
-71 163 -76 234 -12 71 64 76 163 12 234 -47 52 -108 69 -177 49z"/>
<path d="M90 6717 c-51 -27 -90 -90 -90 -147 0 -87 83 -170 170 -170 87 0 170
83 170 170 0 87 -83 170 -170 170 -20 0 -56 -10 -80 -23z"/>
<path d="M1690 6717 c-51 -27 -90 -90 -90 -147 0 -87 83 -170 170 -170 87 0
170 83 170 170 0 87 -83 170 -170 170 -20 0 -56 -10 -80 -23z"/>
<path d="M3290 6717 c-51 -27 -90 -90 -90 -147 0 -87 83 -170 170 -170 87 0
170 83 170 170 0 87 -83 170 -170 170 -20 0 -56 -10 -80 -23z"/>
<path d="M4890 6717 c-51 -27 -90 -90 -90 -147 0 -87 83 -170 170 -170 87 0
170 83 170 170 0 87 -83 170 -170 170 -20 0 -56 -10 -80 -23z"/>
<path d="M6490 6717 c-51 -27 -90 -90 -90 -147 0 -57 39 -120 90 -147 24 -13
60 -23 80 -23 57 0 120 39 147 90 13 24 23 60 23 80 0 20 -10 56 -23 80 -27
51 -90 90 -147 90 -20 0 -56 -10 -80 -23z"/>
<path d="M8090 6717 c-51 -27 -90 -90 -90 -147 0 -57 39 -120 90 -147 24 -13
60 -23 80 -23 57 0 120 39 147 90 13 24 23 60 23 80 0 20 -10 56 -23 80 -27
51 -90 90 -147 90 -20 0 -56 -10 -80 -23z"/>
<path d="M9690 6717 c-51 -27 -90 -90 -90 -147 0 -57 39 -120 90 -147 24 -13
60 -23 80 -23 57 0 120 39 147 90 13 24 23 60 23 80 0 20 -10 56 -23 80 -27
51 -90 90 -147 90 -20 0 -56 -10 -80 -23z"/>
<path d="M11330 6717 c-51 -27 -90 -90 -90 -147 0 -87 83 -170 170 -170 87 0
170 83 170 170 0 87 -83 170 -170 170 -20 0 -56 -10 -80 -23z"/>
<path d="M12930 6717 c-51 -27 -90 -90 -90 -147 0 -87 83 -170 170 -170 87 0
170 83 170 170 0 87 -83 170 -170 170 -20 0 -56 -10 -80 -23z"/>
<path d="M14530 6717 c-51 -27 -90 -90 -90 -147 0 -87 83 -170 170 -170 87 0
170 83 170 170 0 87 -83 170 -170 170 -20 0 -56 -10 -80 -23z"/>
<path d="M16130 6717 c-51 -27 -90 -90 -90 -147 0 -87 83 -170 170 -170 87 0
170 83 170 170 0 87 -83 170 -170 170 -20 0 -56 -10 -80 -23z"/>
<path d="M17730 6717 c-51 -27 -90 -90 -90 -147 0 -87 83 -170 170 -170 87 0
170 83 170 170 0 87 -83 170 -170 170 -20 0 -56 -10 -80 -23z"/>
<path d="M19330 6717 c-51 -27 -90 -90 -90 -147 0 -87 83 -170 170 -170 87 0
170 83 170 170 0 87 -83 170 -170 170 -20 0 -56 -10 -80 -23z"/>
<path d="M916 5930 c-42 -13 -95 -68 -107 -113 -16 -58 -2 -113 38 -158 64
-71 163 -76 234 -12 71 64 76 163 12 234 -47 52 -108 69 -177 49z"/>
<path d="M2516 5930 c-42 -13 -95 -68 -107 -113 -16 -58 -2 -113 38 -158 64
-71 163 -76 234 -12 71 64 76 163 12 234 -47 52 -108 69 -177 49z"/>
<path d="M4116 5930 c-42 -13 -95 -68 -107 -113 -16 -58 -2 -113 38 -158 64
-71 163 -76 234 -12 71 64 76 163 12 234 -47 52 -108 69 -177 49z"/>
<path d="M5716 5930 c-42 -13 -95 -68 -107 -113 -16 -58 -2 -113 38 -158 64
-71 163 -76 234 -12 71 64 76 163 12 234 -47 52 -108 69 -177 49z"/>
<path d="M7316 5930 c-42 -13 -95 -68 -107 -113 -16 -58 -2 -113 38 -158 64
-71 163 -76 234 -12 71 64 76 163 12 234 -47 52 -108 69 -177 49z"/>
<path d="M8916 5930 c-42 -13 -95 -68 -107 -113 -16 -58 -2 -113 38 -158 64
-71 163 -76 234 -12 71 64 76 163 12 234 -47 52 -108 69 -177 49z"/>
<path d="M10516 5930 c-42 -13 -95 -68 -107 -113 -16 -58 -2 -113 38 -158 64
-71 163 -76 234 -12 71 64 76 163 12 234 -47 52 -108 69 -177 49z"/>
<path d="M12156 5930 c-42 -13 -95 -68 -107 -113 -16 -58 -2 -113 38 -158 64
-71 163 -76 234 -12 71 64 76 163 12 234 -47 52 -108 69 -177 49z"/>
<path d="M13756 5930 c-42 -13 -95 -68 -107 -113 -16 -58 -2 -113 38 -158 64
-71 163 -76 234 -12 71 64 76 163 12 234 -47 52 -108 69 -177 49z"/>
<path d="M15356 5930 c-42 -13 -95 -68 -107 -113 -16 -58 -2 -113 38 -158 64
-71 163 -76 234 -12 71 64 76 163 12 234 -47 52 -108 69 -177 49z"/>
<path d="M16956 5930 c-42 -13 -95 -68 -107 -113 -16 -58 -2 -113 38 -158 64
-71 163 -76 234 -12 71 64 76 163 12 234 -47 52 -108 69 -177 49z"/>
<path d="M18556 5930 c-42 -13 -95 -68 -107 -113 -16 -58 -2 -113 38 -158 64
-71 163 -76 234 -12 71 64 76 163 12 234 -47 52 -108 69 -177 49z"/>
<path d="M20156 5930 c-42 -13 -95 -68 -107 -113 -16 -58 -2 -113 38 -158 64
-71 163 -76 234 -12 71 64 76 163 12 234 -47 52 -108 69 -177 49z"/>
<path d="M116 5130 c-42 -13 -95 -68 -107 -113 -16 -58 -2 -113 38 -158 64
-71 163 -76 234 -12 71 64 76 163 12 234 -47 52 -108 69 -177 49z"/>
<path d="M1716 5130 c-42 -13 -95 -68 -107 -113 -16 -58 -2 -113 38 -158 64
-71 163 -76 234 -12 71 64 76 163 12 234 -47 52 -108 69 -177 49z"/>
<path d="M3316 5130 c-42 -13 -95 -68 -107 -113 -16 -58 -2 -113 38 -158 64
-71 163 -76 234 -12 71 64 76 163 12 234 -47 52 -108 69 -177 49z"/>
<path d="M4916 5130 c-42 -13 -95 -68 -107 -113 -16 -58 -2 -113 38 -158 64
-71 163 -76 234 -12 71 64 76 163 12 234 -47 52 -108 69 -177 49z"/>
<path d="M6516 5130 c-42 -13 -95 -68 -107 -113 -16 -58 -2 -113 38 -158 64
-71 163 -76 234 -12 71 64 76 163 12 234 -47 52 -108 69 -177 49z"/>
<path d="M8116 5130 c-42 -13 -95 -68 -107 -113 -16 -58 -2 -113 38 -158 64
-71 163 -76 234 -12 71 64 76 163 12 234 -47 52 -108 69 -177 49z"/>
<path d="M9716 5130 c-42 -13 -95 -68 -107 -113 -16 -58 -2 -113 38 -158 64
-71 163 -76 234 -12 71 64 76 163 12 234 -47 52 -108 69 -177 49z"/>
<path d="M11356 5130 c-42 -13 -95 -68 -107 -113 -16 -58 -2 -113 38 -158 64
-71 163 -76 234 -12 71 64 76 163 12 234 -47 52 -108 69 -177 49z"/>
<path d="M12956 5130 c-42 -13 -95 -68 -107 -113 -16 -58 -2 -113 38 -158 64
-71 163 -76 234 -12 71 64 76 163 12 234 -47 52 -108 69 -177 49z"/>
<path d="M14556 5130 c-42 -13 -95 -68 -107 -113 -16 -58 -2 -113 38 -158 64
-71 163 -76 234 -12 71 64 76 163 12 234 -47 52 -108 69 -177 49z"/>
<path d="M16156 5130 c-42 -13 -95 -68 -107 -113 -16 -58 -2 -113 38 -158 64
-71 163 -76 234 -12 71 64 76 163 12 234 -47 52 -108 69 -177 49z"/>
<path d="M17756 5130 c-42 -13 -95 -68 -107 -113 -16 -58 -2 -113 38 -158 64
-71 163 -76 234 -12 71 64 76 163 12 234 -47 52 -108 69 -177 49z"/>
<path d="M19356 5130 c-42 -13 -95 -68 -107 -113 -16 -58 -2 -113 38 -158 64
-71 163 -76 234 -12 71 64 76 163 12 234 -47 52 -108 69 -177 49z"/>
<path d="M916 4330 c-42 -13 -95 -68 -107 -113 -16 -58 -2 -113 38 -158 64
-71 163 -76 234 -12 71 64 76 163 12 234 -47 52 -108 69 -177 49z"/>
<path d="M2516 4330 c-42 -13 -95 -68 -107 -113 -16 -58 -2 -113 38 -158 64
-71 163 -76 234 -12 71 64 76 163 12 234 -47 52 -108 69 -177 49z"/>
<path d="M4116 4330 c-42 -13 -95 -68 -107 -113 -16 -58 -2 -113 38 -158 64
-71 163 -76 234 -12 71 64 76 163 12 234 -47 52 -108 69 -177 49z"/>
<path d="M5716 4330 c-42 -13 -95 -68 -107 -113 -16 -58 -2 -113 38 -158 64
-71 163 -76 234 -12 71 64 76 163 12 234 -47 52 -108 69 -177 49z"/>
<path d="M7316 4330 c-42 -13 -95 -68 -107 -113 -16 -58 -2 -113 38 -158 64
-71 163 -76 234 -12 71 64 76 163 12 234 -47 52 -108 69 -177 49z"/>
<path d="M8916 4330 c-42 -13 -95 -68 -107 -113 -16 -58 -2 -113 38 -158 64
-71 163 -76 234 -12 71 64 76 163 12 234 -47 52 -108 69 -177 49z"/>
<path d="M10516 4330 c-42 -13 -95 -68 -107 -113 -16 -58 -2 -113 38 -158 64
-71 163 -76 234 -12 71 64 76 163 12 234 -47 52 -108 69 -177 49z"/>
<path d="M12156 4330 c-42 -13 -95 -68 -107 -113 -16 -58 -2 -113 38 -158 64
-71 163 -76 234 -12 71 64 76 163 12 234 -47 52 -108 69 -177 49z"/>
<path d="M13756 4330 c-42 -13 -95 -68 -107 -113 -16 -58 -2 -113 38 -158 64
-71 163 -76 234 -12 71 64 76 163 12 234 -47 52 -108 69 -177 49z"/>
<path d="M15356 4330 c-42 -13 -95 -68 -107 -113 -16 -58 -2 -113 38 -158 64
-71 163 -76 234 -12 71 64 76 163 12 234 -47 52 -108 69 -177 49z"/>
<path d="M16956 4330 c-42 -13 -95 -68 -107 -113 -16 -58 -2 -113 38 -158 64
-71 163 -76 234 -12 71 64 76 163 12 234 -47 52 -108 69 -177 49z"/>
<path d="M18556 4330 c-42 -13 -95 -68 -107 -113 -16 -58 -2 -113 38 -158 64
-71 163 -76 234 -12 71 64 76 163 12 234 -47 52 -108 69 -177 49z"/>
<path d="M20156 4330 c-42 -13 -95 -68 -107 -113 -16 -58 -2 -113 38 -158 64
-71 163 -76 234 -12 71 64 76 163 12 234 -47 52 -108 69 -177 49z"/>
<path d="M116 3530 c-42 -13 -95 -68 -107 -113 -16 -58 -2 -113 38 -158 64
-71 163 -76 234 -12 71 64 76 163 12 234 -47 52 -108 69 -177 49z"/>
<path d="M1716 3530 c-42 -13 -95 -68 -107 -113 -16 -58 -2 -113 38 -158 64
-71 163 -76 234 -12 71 64 76 163 12 234 -47 52 -108 69 -177 49z"/>
<path d="M3316 3530 c-42 -13 -95 -68 -107 -113 -16 -58 -2 -113 38 -158 64
-71 163 -76 234 -12 71 64 76 163 12 234 -47 52 -108 69 -177 49z"/>
<path d="M4916 3530 c-42 -13 -95 -68 -107 -113 -16 -58 -2 -113 38 -158 64
-71 163 -76 234 -12 71 64 76 163 12 234 -47 52 -108 69 -177 49z"/>
<path d="M6516 3530 c-42 -13 -95 -68 -107 -113 -16 -58 -2 -113 38 -158 64
-71 163 -76 234 -12 71 64 76 163 12 234 -47 52 -108 69 -177 49z"/>
<path d="M8116 3530 c-42 -13 -95 -68 -107 -113 -16 -58 -2 -113 38 -158 64
-71 163 -76 234 -12 71 64 76 163 12 234 -47 52 -108 69 -177 49z"/>
<path d="M9716 3530 c-42 -13 -95 -68 -107 -113 -16 -58 -2 -113 38 -158 64
-71 163 -76 234 -12 71 64 76 163 12 234 -47 52 -108 69 -177 49z"/>
<path d="M11356 3530 c-42 -13 -95 -68 -107 -113 -16 -58 -2 -113 38 -158 64
-71 163 -76 234 -12 71 64 76 163 12 234 -47 52 -108 69 -177 49z"/>
<path d="M12956 3530 c-42 -13 -95 -68 -107 -113 -16 -58 -2 -113 38 -158 64
-71 163 -76 234 -12 71 64 76 163 12 234 -47 52 -108 69 -177 49z"/>
<path d="M14556 3530 c-42 -13 -95 -68 -107 -113 -16 -58 -2 -113 38 -158 64
-71 163 -76 234 -12 71 64 76 163 12 234 -47 52 -108 69 -177 49z"/>
<path d="M16156 3530 c-42 -13 -95 -68 -107 -113 -16 -58 -2 -113 38 -158 64
-71 163 -76 234 -12 71 64 76 163 12 234 -47 52 -108 69 -177 49z"/>
<path d="M17756 3530 c-42 -13 -95 -68 -107 -113 -16 -58 -2 -113 38 -158 64
-71 163 -76 234 -12 71 64 76 163 12 234 -47 52 -108 69 -177 49z"/>
<path d="M19356 3530 c-42 -13 -95 -68 -107 -113 -16 -58 -2 -113 38 -158 64
-71 163 -76 234 -12 71 64 76 163 12 234 -47 52 -108 69 -177 49z"/>
<path d="M916 2730 c-42 -13 -95 -68 -107 -113 -16 -58 -2 -113 38 -158 64
-71 163 -76 234 -12 71 64 76 163 12 234 -47 52 -108 69 -177 49z"/>
<path d="M2516 2730 c-42 -13 -95 -68 -107 -113 -16 -58 -2 -113 38 -158 64
-71 163 -76 234 -12 71 64 76 163 12 234 -47 52 -108 69 -177 49z"/>
<path d="M4116 2730 c-42 -13 -95 -68 -107 -113 -16 -58 -2 -113 38 -158 64
-71 163 -76 234 -12 71 64 76 163 12 234 -47 52 -108 69 -177 49z"/>
<path d="M5716 2730 c-42 -13 -95 -68 -107 -113 -16 -58 -2 -113 38 -158 64
-71 163 -76 234 -12 71 64 76 163 12 234 -47 52 -108 69 -177 49z"/>
<path d="M7316 2730 c-42 -13 -95 -68 -107 -113 -16 -58 -2 -113 38 -158 64
-71 163 -76 234 -12 71 64 76 163 12 234 -47 52 -108 69 -177 49z"/>
<path d="M8916 2730 c-42 -13 -95 -68 -107 -113 -16 -58 -2 -113 38 -158 64
-71 163 -76 234 -12 71 64 76 163 12 234 -47 52 -108 69 -177 49z"/>
<path d="M10516 2730 c-42 -13 -95 -68 -107 -113 -16 -58 -2 -113 38 -158 64
-71 163 -76 234 -12 71 64 76 163 12 234 -47 52 -108 69 -177 49z"/>
<path d="M12156 2730 c-42 -13 -95 -68 -107 -113 -16 -58 -2 -113 38 -158 64
-71 163 -76 234 -12 71 64 76 163 12 234 -47 52 -108 69 -177 49z"/>
<path d="M13756 2730 c-42 -13 -95 -68 -107 -113 -16 -58 -2 -113 38 -158 64
-71 163 -76 234 -12 71 64 76 163 12 234 -47 52 -108 69 -177 49z"/>
<path d="M15356 2730 c-42 -13 -95 -68 -107 -113 -16 -58 -2 -113 38 -158 64
-71 163 -76 234 -12 71 64 76 163 12 234 -47 52 -108 69 -177 49z"/>
<path d="M16956 2730 c-42 -13 -95 -68 -107 -113 -16 -58 -2 -113 38 -158 64
-71 163 -76 234 -12 71 64 76 163 12 234 -47 52 -108 69 -177 49z"/>
<path d="M18556 2730 c-42 -13 -95 -68 -107 -113 -16 -58 -2 -113 38 -158 64
-71 163 -76 234 -12 71 64 76 163 12 234 -47 52 -108 69 -177 49z"/>
<path d="M20156 2730 c-42 -13 -95 -68 -107 -113 -16 -58 -2 -113 38 -158 64
-71 163 -76 234 -12 71 64 76 163 12 234 -47 52 -108 69 -177 49z"/>
<path d="M116 1930 c-42 -13 -95 -68 -107 -113 -16 -58 -2 -113 38 -158 64
-71 163 -76 234 -12 71 64 76 163 12 234 -47 52 -108 69 -177 49z"/>
<path d="M1716 1930 c-42 -13 -95 -68 -107 -113 -16 -58 -2 -113 38 -158 64
-71 163 -76 234 -12 71 64 76 163 12 234 -47 52 -108 69 -177 49z"/>
<path d="M3316 1930 c-42 -13 -95 -68 -107 -113 -16 -58 -2 -113 38 -158 64
-71 163 -76 234 -12 71 64 76 163 12 234 -47 52 -108 69 -177 49z"/>
<path d="M4916 1930 c-42 -13 -95 -68 -107 -113 -16 -58 -2 -113 38 -158 64
-71 163 -76 234 -12 71 64 76 163 12 234 -47 52 -108 69 -177 49z"/>
<path d="M6516 1930 c-42 -13 -95 -68 -107 -113 -16 -58 -2 -113 38 -158 64
-71 163 -76 234 -12 71 64 76 163 12 234 -47 52 -108 69 -177 49z"/>
<path d="M8116 1930 c-42 -13 -95 -68 -107 -113 -16 -58 -2 -113 38 -158 64
-71 163 -76 234 -12 71 64 76 163 12 234 -47 52 -108 69 -177 49z"/>
<path d="M9716 1930 c-42 -13 -95 -68 -107 -113 -16 -58 -2 -113 38 -158 64
-71 163 -76 234 -12 71 64 76 163 12 234 -47 52 -108 69 -177 49z"/>
<path d="M11356 1930 c-42 -13 -95 -68 -107 -113 -16 -58 -2 -113 38 -158 64
-71 163 -76 234 -12 71 64 76 163 12 234 -47 52 -108 69 -177 49z"/>
<path d="M12956 1930 c-42 -13 -95 -68 -107 -113 -16 -58 -2 -113 38 -158 64
-71 163 -76 234 -12 71 64 76 163 12 234 -47 52 -108 69 -177 49z"/>
<path d="M14556 1930 c-42 -13 -95 -68 -107 -113 -16 -58 -2 -113 38 -158 64
-71 163 -76 234 -12 71 64 76 163 12 234 -47 52 -108 69 -177 49z"/>
<path d="M16156 1930 c-42 -13 -95 -68 -107 -113 -16 -58 -2 -113 38 -158 64
-71 163 -76 234 -12 71 64 76 163 12 234 -47 52 -108 69 -177 49z"/>
<path d="M17756 1930 c-42 -13 -95 -68 -107 -113 -16 -58 -2 -113 38 -158 64
-71 163 -76 234 -12 71 64 76 163 12 234 -47 52 -108 69 -177 49z"/>
<path d="M19356 1930 c-42 -13 -95 -68 -107 -113 -16 -58 -2 -113 38 -158 64
-71 163 -76 234 -12 71 64 76 163 12 234 -47 52 -108 69 -177 49z"/>
<path d="M916 1130 c-42 -13 -95 -68 -107 -113 -16 -58 -2 -113 38 -158 64
-71 163 -76 234 -12 71 64 76 163 12 234 -47 52 -108 69 -177 49z"/>
<path d="M2516 1130 c-42 -13 -95 -68 -107 -113 -16 -58 -2 -113 38 -158 64
-71 163 -76 234 -12 71 64 76 163 12 234 -47 52 -108 69 -177 49z"/>
<path d="M4116 1130 c-42 -13 -95 -68 -107 -113 -16 -58 -2 -113 38 -158 64
-71 163 -76 234 -12 71 64 76 163 12 234 -47 52 -108 69 -177 49z"/>
<path d="M5716 1130 c-42 -13 -95 -68 -107 -113 -16 -58 -2 -113 38 -158 64
-71 163 -76 234 -12 71 64 76 163 12 234 -47 52 -108 69 -177 49z"/>
<path d="M7316 1130 c-42 -13 -95 -68 -107 -113 -16 -58 -2 -113 38 -158 64
-71 163 -76 234 -12 71 64 76 163 12 234 -47 52 -108 69 -177 49z"/>
<path d="M8916 1130 c-42 -13 -95 -68 -107 -113 -16 -58 -2 -113 38 -158 64
-71 163 -76 234 -12 71 64 76 163 12 234 -47 52 -108 69 -177 49z"/>
<path d="M10516 1130 c-42 -13 -95 -68 -107 -113 -16 -58 -2 -113 38 -158 64
-71 163 -76 234 -12 71 64 76 163 12 234 -47 52 -108 69 -177 49z"/>
<path d="M12156 1130 c-42 -13 -95 -68 -107 -113 -16 -58 -2 -113 38 -158 64
-71 163 -76 234 -12 71 64 76 163 12 234 -47 52 -108 69 -177 49z"/>
<path d="M13756 1130 c-42 -13 -95 -68 -107 -113 -16 -58 -2 -113 38 -158 64
-71 163 -76 234 -12 71 64 76 163 12 234 -47 52 -108 69 -177 49z"/>
<path d="M15356 1130 c-42 -13 -95 -68 -107 -113 -16 -58 -2 -113 38 -158 64
-71 163 -76 234 -12 71 64 76 163 12 234 -47 52 -108 69 -177 49z"/>
<path d="M16956 1130 c-42 -13 -95 -68 -107 -113 -16 -58 -2 -113 38 -158 64
-71 163 -76 234 -12 71 64 76 163 12 234 -47 52 -108 69 -177 49z"/>
<path d="M18556 1130 c-42 -13 -95 -68 -107 -113 -16 -58 -2 -113 38 -158 64
-71 163 -76 234 -12 71 64 76 163 12 234 -47 52 -108 69 -177 49z"/>
<path d="M20156 1130 c-42 -13 -95 -68 -107 -113 -16 -58 -2 -113 38 -158 64
-71 163 -76 234 -12 71 64 76 163 12 234 -47 52 -108 69 -177 49z"/>
<path d="M116 330 c-42 -13 -95 -68 -107 -113 -16 -58 -2 -113 38 -158 64 -71
163 -76 234 -12 71 64 76 163 12 234 -47 52 -108 69 -177 49z"/>
<path d="M1716 330 c-42 -13 -95 -68 -107 -113 -16 -58 -2 -113 38 -158 64
-71 163 -76 234 -12 71 64 76 163 12 234 -47 52 -108 69 -177 49z"/>
<path d="M3316 330 c-42 -13 -95 -68 -107 -113 -16 -58 -2 -113 38 -158 64
-71 163 -76 234 -12 71 64 76 163 12 234 -47 52 -108 69 -177 49z"/>
<path d="M4916 330 c-42 -13 -95 -68 -107 -113 -16 -58 -2 -113 38 -158 64
-71 163 -76 234 -12 71 64 76 163 12 234 -47 52 -108 69 -177 49z"/>
<path d="M6516 330 c-42 -13 -95 -68 -107 -113 -16 -58 -2 -113 38 -158 64
-71 163 -76 234 -12 71 64 76 163 12 234 -47 52 -108 69 -177 49z"/>
<path d="M8116 330 c-42 -13 -95 -68 -107 -113 -16 -58 -2 -113 38 -158 64
-71 163 -76 234 -12 71 64 76 163 12 234 -47 52 -108 69 -177 49z"/>
<path d="M9716 330 c-42 -13 -95 -68 -107 -113 -16 -58 -2 -113 38 -158 64
-71 163 -76 234 -12 71 64 76 163 12 234 -47 52 -108 69 -177 49z"/>
<path d="M11356 330 c-42 -13 -95 -68 -107 -113 -16 -58 -2 -113 38 -158 64
-71 163 -76 234 -12 71 64 76 163 12 234 -47 52 -108 69 -177 49z"/>
<path d="M12956 330 c-42 -13 -95 -68 -107 -113 -16 -58 -2 -113 38 -158 64
-71 163 -76 234 -12 71 64 76 163 12 234 -47 52 -108 69 -177 49z"/>
<path d="M14556 330 c-42 -13 -95 -68 -107 -113 -16 -58 -2 -113 38 -158 64
-71 163 -76 234 -12 71 64 76 163 12 234 -47 52 -108 69 -177 49z"/>
<path d="M16156 330 c-42 -13 -95 -68 -107 -113 -16 -58 -2 -113 38 -158 64
-71 163 -76 234 -12 71 64 76 163 12 234 -47 52 -108 69 -177 49z"/>
<path d="M17756 330 c-42 -13 -95 -68 -107 -113 -16 -58 -2 -113 38 -158 64
-71 163 -76 234 -12 71 64 76 163 12 234 -47 52 -108 69 -177 49z"/>
<path d="M19356 330 c-42 -13 -95 -68 -107 -113 -16 -58 -2 -113 38 -158 64
-71 163 -76 234 -12 71 64 76 163 12 234 -47 52 -108 69 -177 49z"/>
</g>
</svg>
