<?xml version="1.0" standalone="no"?>
<!DOCTYPE svg PUBLIC "-//W3C//DTD SVG 20010904//EN"
 "http://www.w3.org/TR/2001/REC-SVG-20010904/DTD/svg10.dtd">
<svg version="1.0" xmlns="http://www.w3.org/2000/svg"
 width="725.000000pt" height="397.000000pt" viewBox="0 0 725.000000 397.000000"
 preserveAspectRatio="xMidYMid meet">

<g transform="translate(0.000000,397.000000) scale(0.100000,-0.100000)"
fill="#000000" stroke="none">
<path d="M305 3926 c-66 -24 -160 -59 -210 -78 l-90 -35 -3 -52 c-2 -28 -1
-51 1 -51 2 0 73 26 158 59 127 48 407 143 559 188 28 9 1 11 -130 11 l-165 1
-120 -43z"/>
<path d="M3350 3825 c239 -79 581 -191 760 -249 421 -137 656 -236 965 -407
159 -88 529 -274 725 -365 170 -78 1419 -653 1438 -661 9 -4 12 9 12 48 l0 54
-273 124 c-1344 613 -1528 699 -1762 834 -369 213 -716 357 -1280 532 -148 46
-372 118 -497 160 l-227 75 -148 -1 -148 0 435 -144z"/>
<path d="M4502 3900 c86 -38 252 -108 369 -155 139 -56 315 -139 513 -242 478
-248 788 -413 832 -444 23 -15 117 -104 210 -197 184 -183 279 -263 451 -378
96 -64 347 -204 366 -204 4 0 7 63 7 139 l0 139 -67 37 c-249 137 -527 373
-741 630 -46 55 -180 234 -297 397 -117 163 -221 308 -231 322 -19 25 -20 25
-171 26 -84 0 -153 -2 -153 -5 0 -2 20 -35 43 -72 57 -89 120 -203 112 -203
-3 0 -88 63 -187 140 l-182 140 -76 0 c-61 -1 -72 -3 -59 -13 573 -443 843
-666 827 -682 -11 -11 -49 6 -308 143 -398 209 -706 356 -1033 492 l-145 60
-119 0 -118 -1 157 -69z"/>
<path d="M6255 3940 c56 -109 261 -426 374 -580 117 -160 249 -318 333 -402
80 -78 264 -228 281 -228 4 0 7 24 7 54 l0 54 -72 58 c-220 175 -495 518 -738
921 l-93 153 -54 0 -54 0 16 -30z"/>
<path d="M6700 3913 c140 -197 331 -423 484 -573 l66 -64 0 63 0 63 -107 116
c-108 118 -273 320 -332 406 l-32 46 -60 0 -60 0 41 -57z"/>
<path d="M7236 3955 c4 -8 8 -15 10 -15 2 0 4 7 4 15 0 8 -4 15 -10 15 -5 0
-7 -7 -4 -15z"/>
<path d="M1085 3474 c-401 -33 -682 -84 -979 -175 l-106 -32 0 -54 c0 -29 4
-53 9 -53 5 0 26 7 46 16 140 58 537 149 788 181 164 20 654 23 867 5 803 -70
1445 -197 2640 -523 529 -145 916 -293 1675 -644 563 -260 731 -326 1024 -404
225 -60 203 -60 199 -4 l-3 47 -105 26 c-153 39 -216 61 -505 177 -380 153
-425 173 -705 308 -433 209 -715 324 -1127 459 -852 279 -2222 576 -3033 656
-110 11 -599 21 -685 14z"/>
<path d="M1525 2699 c-491 -32 -924 -129 -1387 -310 l-138 -54 0 -54 c0 -39 3
-52 13 -48 472 196 835 297 1265 352 633 81 1467 18 2132 -161 243 -66 1246
-370 1340 -406 136 -54 299 -138 545 -283 1030 -606 1436 -806 1863 -919 l92
-25 0 49 0 49 -42 11 c-102 25 -339 105 -446 151 -257 110 -802 401 -1207 644
-463 279 -770 424 -1135 538 -152 48 -623 176 -1040 283 -430 110 -710 160
-1035 184 -162 12 -631 11 -820 -1z"/>
<path d="M2270 1959 c-540 -44 -1155 -166 -1880 -373 -102 -29 -231 -64 -287
-76 l-103 -23 0 -49 c0 -32 4 -48 13 -48 16 0 419 105 667 174 356 98 666 163
1211 250 438 71 691 79 1008 31 524 -79 1206 -344 1956 -760 562 -312 872
-470 1180 -600 88 -37 286 -129 440 -205 421 -207 605 -280 710 -280 l65 0 0
33 c0 33 -1 33 -87 61 -145 47 -298 109 -498 203 -104 49 -309 143 -455 208
-324 146 -590 280 -1080 545 -650 351 -889 470 -1207 599 -394 159 -843 279
-1157 310 -124 12 -341 12 -496 0z"/>
<path d="M2470 1304 c-19 -2 -80 -9 -135 -15 -175 -18 -390 -58 -780 -144
-209 -46 -515 -114 -680 -150 -506 -112 -523 -115 -669 -115 -72 0 -148 -3
-168 -6 l-38 -7 0 -82 0 -82 113 -6 c61 -4 193 -7 292 -7 330 0 637 -55 1090
-194 99 -31 229 -68 290 -82 367 -88 392 -97 797 -300 l228 -114 157 0 158 0
-92 49 c-98 52 -157 90 -150 97 2 3 91 -29 196 -71 l192 -75 112 1 112 1 -85
40 c-316 148 -738 290 -1198 403 -391 97 -482 122 -482 135 0 13 76 19 425 29
522 17 846 -13 1212 -109 307 -82 530 -185 844 -391 l165 -109 90 0 89 0 -125
83 c-150 101 -341 220 -430 269 -234 130 -574 241 -920 302 -261 46 -495 59
-815 48 -211 -8 -675 1 -935 18 -85 5 -249 23 -365 39 -116 17 -244 33 -286
37 -71 6 -111 17 -99 27 37 30 1525 347 1780 379 163 20 641 17 815 -5 519
-68 915 -226 1415 -566 617 -420 898 -610 918 -620 13 -7 55 -11 103 -9 l82 3
-189 126 c-104 70 -281 187 -394 261 -113 74 -284 191 -381 260 -233 167 -308
213 -534 328 -374 191 -568 251 -975 306 -118 16 -655 29 -750 18z m-850 -704
c0 -13 -11 -13 -30 0 -12 8 -11 10 8 10 12 0 22 -4 22 -10z"/>
<path d="M0 394 c0 -38 3 -43 28 -48 15 -3 176 -31 357 -61 503 -85 637 -116
1022 -231 l183 -54 152 1 153 1 -100 34 c-439 152 -995 288 -1435 349 -102 14
-224 32 -272 39 l-88 12 0 -42z"/>
</g>
</svg>
