<?xml version="1.0" standalone="no"?>
<!DOCTYPE svg PUBLIC "-//W3C//DTD SVG 20010904//EN"
 "http://www.w3.org/TR/2001/REC-SVG-20010904/DTD/svg10.dtd">
<svg version="1.0" xmlns="http://www.w3.org/2000/svg"
 width="1042.000000pt" height="1042.000000pt" viewBox="0 0 1042.000000 1042.000000"
 preserveAspectRatio="xMidYMid meet">
<metadata>
Created by potrace 1.16, written by Peter Selinger 2001-2019
</metadata>
<g transform="translate(0.000000,1042.000000) scale(0.100000,-0.100000)"
fill="#000000" stroke="none">
<path d="M2500 8960 c-11 -7 -16 -35 -18 -121 -5 -138 0 -162 42 -226 29 -43
34 -62 38 -123 3 -56 8 -75 22 -86 15 -11 20 -32 25 -106 4 -65 11 -101 24
-118 9 -13 17 -42 17 -63 0 -30 4 -40 20 -44 19 -5 20 -14 20 -191 0 -163 2
-191 19 -226 15 -31 21 -71 25 -166 6 -148 6 -125 -1 -232 -4 -86 -5 -88 -29
-88 -45 0 -66 -99 -28 -131 11 -9 14 -47 14 -169 0 -140 -2 -159 -19 -174 -11
-10 -21 -37 -24 -66 -3 -28 -13 -60 -22 -72 -8 -13 -15 -43 -15 -69 0 -36 -5
-50 -21 -61 -18 -11 -22 -27 -27 -86 -3 -48 -9 -72 -17 -72 -14 0 -25 -22 -25
-47 0 -8 -9 -26 -20 -40 -14 -18 -20 -41 -20 -74 0 -42 -3 -49 -20 -49 -16 0
-20 -7 -20 -38 0 -26 -6 -41 -20 -50 -11 -7 -20 -18 -20 -26 0 -7 -9 -16 -20
-19 -13 -3 -20 -14 -20 -30 0 -44 -12 -87 -25 -87 -17 0 -25 -23 -25 -71 0
-36 -3 -41 -31 -51 -34 -12 -49 -41 -49 -94 0 -22 -5 -34 -14 -34 -18 0 -26
-22 -26 -76 0 -33 -4 -44 -15 -44 -9 0 -20 -11 -25 -25 -5 -14 -16 -25 -23
-25 -15 0 -27 -48 -27 -108 0 -24 -9 -43 -34 -68 -36 -37 -46 -68 -46 -144 0
-39 -4 -49 -20 -53 -18 -5 -20 -14 -20 -86 0 -68 -3 -84 -20 -101 -11 -11 -20
-29 -20 -39 0 -10 -7 -21 -15 -25 -13 -5 -15 -102 -15 -791 l0 -785 40 0 c28
0 45 6 57 20 15 18 30 20 125 20 139 0 138 -1 138 134 0 88 -3 107 -20 129
-19 24 -20 40 -20 287 0 247 1 263 20 287 18 24 20 41 20 218 0 184 1 193 20
198 13 3 20 14 20 29 0 13 9 34 20 45 16 17 20 42 26 138 6 98 10 117 25 126
16 8 19 22 19 75 0 62 2 67 40 106 36 38 40 47 40 93 0 38 5 55 20 68 12 10
20 29 20 47 0 19 5 30 14 30 16 0 26 21 26 55 0 14 7 25 19 28 15 4 21 17 26
60 4 33 13 58 21 61 8 3 14 12 14 20 0 9 9 20 20 26 11 6 22 26 26 46 4 20 15
45 25 55 13 13 19 33 19 62 0 33 6 49 23 65 13 12 28 22 34 22 15 0 23 25 23
72 0 31 4 41 19 45 15 4 21 17 27 60 4 33 14 63 25 74 11 11 19 26 19 34 0 8
4 15 8 15 15 0 32 49 32 89 0 25 7 44 20 56 11 10 20 29 20 43 0 14 7 34 16
44 12 12 19 43 22 92 4 59 8 75 22 79 18 5 30 77 30 188 0 38 5 61 13 66 8 4
17 23 21 42 3 19 14 43 24 54 16 18 17 61 17 576 0 504 -2 559 -17 582 -9 15
-20 43 -24 65 -4 21 -13 45 -21 52 -8 8 -13 37 -13 75 0 123 -12 199 -31 204
-14 4 -18 19 -21 95 -2 71 -7 92 -20 102 -10 7 -18 25 -18 39 0 36 -10 57 -26
57 -11 0 -14 17 -14 73 0 62 -4 78 -25 107 -14 19 -25 40 -25 46 0 7 -6 17
-14 21 -8 4 -16 24 -18 43 l-3 35 -170 2 c-96 2 -177 -1 -185 -7z"/>
<path d="M3439 8963 c-37 -10 -40 -40 -46 -672 -4 -431 -9 -618 -17 -623 -11
-8 -23 -231 -25 -474 -1 -100 -4 -134 -15 -143 -8 -7 -17 -24 -21 -39 -4 -15
-14 -35 -23 -46 -13 -13 -18 -42 -20 -107 -3 -64 -8 -89 -17 -89 -19 0 -25
-24 -25 -97 0 -56 -3 -66 -20 -70 -11 -3 -20 -14 -20 -24 0 -11 -7 -19 -15
-19 -16 0 -20 -15 -29 -95 -4 -27 -12 -55 -20 -60 -7 -6 -16 -20 -20 -32 -4
-11 -13 -27 -21 -33 -8 -7 -15 -21 -15 -31 0 -11 -10 -29 -22 -41 -14 -14 -23
-38 -26 -70 -3 -34 -10 -52 -23 -59 -11 -5 -19 -19 -19 -30 0 -12 -9 -32 -20
-46 -11 -14 -20 -38 -20 -53 0 -19 -6 -29 -19 -33 -23 -6 -35 -83 -25 -168 7
-63 20 -79 65 -79 12 0 31 -8 42 -17 14 -13 41 -19 102 -21 69 -3 84 -7 88
-21 4 -15 22 -19 118 -25 83 -5 117 -10 125 -21 6 -8 18 -15 26 -15 9 0 22 -9
29 -21 12 -18 28 -21 129 -26 86 -5 122 -11 145 -25 25 -15 52 -18 167 -18
115 0 138 -3 146 -16 6 -10 28 -18 58 -21 29 -4 56 -13 67 -24 17 -19 49 -19
968 -17 892 3 951 4 963 21 8 10 26 17 48 17 22 0 41 7 52 19 16 18 35 20 176
23 128 2 161 6 176 19 14 12 48 18 133 22 90 4 117 8 126 21 7 9 27 19 46 22
19 4 39 12 45 20 7 8 45 15 105 19 119 8 139 12 139 29 0 11 22 15 91 18 72 2
93 7 103 21 7 9 25 17 40 17 41 0 66 17 66 45 0 14 4 25 10 25 5 0 12 16 16
37 8 44 -19 103 -48 103 -15 0 -18 8 -18 56 0 46 -3 57 -19 61 -11 3 -23 21
-31 46 -7 23 -24 60 -40 82 -15 22 -30 58 -33 80 -4 21 -16 52 -27 67 -11 15
-20 32 -20 37 0 6 -9 15 -20 21 -16 9 -20 21 -20 66 0 46 -3 57 -19 61 -16 4
-20 16 -23 75 -3 49 -9 74 -19 82 -9 6 -19 21 -23 34 -4 12 -13 22 -21 22 -10
0 -14 24 -17 91 -2 73 -7 93 -21 104 -15 10 -19 34 -24 145 -5 112 -9 135 -25
149 -13 11 -18 29 -18 67 0 36 -6 59 -20 77 -20 25 -20 40 -20 794 0 760 0
769 -20 791 l-21 22 -1742 -1 c-958 -1 -1749 -3 -1758 -6z m1831 -2518 c0 -24
6 -37 20 -45 24 -13 30 -90 6 -90 -16 0 -26 -21 -26 -55 0 -14 -7 -25 -20 -28
-11 -3 -20 -11 -20 -19 0 -7 -11 -18 -25 -25 -14 -6 -25 -7 -25 -2 0 5 -6 9
-14 9 -8 0 -18 9 -21 20 -3 11 -13 20 -21 20 -11 0 -14 20 -14 99 0 89 2 102
23 125 19 22 30 26 80 26 l57 0 0 -35z"/>
<path d="M7577 8963 c-4 -3 -7 -20 -7 -36 0 -20 -6 -30 -19 -34 -21 -5 -31
-41 -31 -115 0 -34 -5 -50 -15 -54 -8 -3 -17 -22 -21 -42 -4 -21 -13 -44 -20
-53 -9 -9 -17 -51 -21 -100 -5 -65 -10 -87 -25 -97 -16 -11 -18 -28 -18 -128
0 -101 -2 -116 -20 -134 -11 -11 -20 -33 -20 -49 0 -15 -9 -39 -19 -53 -17
-21 -20 -50 -27 -288 -5 -210 -10 -270 -22 -288 -22 -34 -23 -239 -1 -273 13
-19 18 -70 23 -264 7 -215 9 -243 27 -267 10 -15 19 -41 19 -58 0 -18 8 -37
20 -47 17 -15 20 -30 20 -104 0 -94 5 -119 25 -119 8 0 15 -24 19 -69 4 -38
13 -74 20 -80 8 -6 16 -29 20 -52 3 -22 13 -42 21 -45 8 -4 15 -19 15 -34 0
-52 12 -89 31 -95 11 -4 19 -15 19 -25 0 -10 6 -20 14 -23 9 -4 17 -28 21 -60
5 -42 12 -56 26 -60 14 -4 19 -14 19 -39 0 -48 10 -78 26 -78 8 0 14 -9 14
-21 0 -12 8 -23 20 -26 16 -4 20 -14 20 -48 0 -52 8 -75 25 -75 9 0 16 -18 21
-46 7 -48 32 -84 59 -84 10 0 16 -18 21 -61 5 -43 12 -64 25 -72 11 -7 19 -22
19 -34 0 -27 20 -73 32 -73 4 0 8 -13 8 -29 0 -39 9 -61 25 -61 9 0 14 -22 17
-70 3 -54 8 -74 26 -93 12 -13 22 -29 22 -35 0 -7 6 -12 14 -12 10 0 14 -25
19 -101 4 -82 9 -103 24 -114 16 -12 19 -33 23 -155 4 -120 8 -144 23 -154 11
-8 17 -26 17 -49 0 -24 6 -40 20 -50 19 -13 20 -27 22 -508 l3 -494 99 -3 c86
-2 102 -6 113 -22 17 -23 74 -27 116 -7 l27 12 0 688 c0 602 -2 688 -15 693
-9 4 -15 19 -15 40 0 18 -6 37 -14 41 -11 6 -17 38 -22 111 -6 83 -10 105 -24
112 -14 8 -19 26 -22 91 -2 62 -7 84 -21 93 -9 7 -17 20 -17 29 0 9 -8 22 -18
29 -14 10 -20 30 -24 81 -5 55 -10 72 -27 83 -12 8 -21 21 -21 28 0 8 -6 19
-14 25 -7 6 -17 34 -20 62 -5 39 -12 52 -26 56 -17 5 -20 14 -20 60 0 46 -3
56 -20 60 -11 3 -20 12 -20 19 0 8 -9 19 -20 26 -14 9 -20 24 -20 49 0 23 -7
42 -20 54 -12 11 -20 31 -20 49 0 20 -14 52 -40 88 -22 32 -43 76 -46 98 -5
29 -11 40 -24 40 -14 0 -18 12 -23 56 -3 31 -13 64 -21 73 -9 10 -16 23 -16
29 0 7 -6 12 -14 12 -19 0 -26 22 -26 84 0 39 -6 61 -21 80 -13 16 -24 51 -29
89 -4 34 -15 76 -24 92 -9 17 -16 38 -16 48 0 9 -6 17 -14 17 -10 0 -15 32
-20 143 -6 113 -11 147 -25 167 -10 14 -20 49 -23 79 -4 35 -11 57 -22 63 -14
8 -16 42 -16 314 0 292 1 305 20 321 16 14 20 30 20 73 0 43 4 58 19 67 17 10
20 30 26 167 5 109 11 156 20 160 7 2 16 26 20 52 4 26 13 57 20 68 7 12 15
54 18 94 3 56 9 76 23 87 16 11 20 29 22 104 3 67 7 91 17 91 8 0 17 10 21 22
4 13 16 35 27 49 16 23 19 39 15 109 -2 64 -7 84 -21 91 -9 6 -17 16 -17 23 0
8 -7 17 -16 20 -21 8 -339 8 -347 -1z"/>
<path d="M7504 5666 c-4 -10 -34 -16 -100 -21 -59 -4 -100 -12 -109 -21 -7 -8
-27 -14 -44 -14 -17 0 -39 -8 -49 -18 -15 -15 -41 -20 -128 -25 -94 -6 -111
-10 -123 -27 -8 -12 -25 -20 -42 -20 -18 0 -34 -8 -41 -20 -12 -18 -24 -20
-131 -20 -110 0 -119 -1 -124 -20 -5 -19 -14 -20 -158 -20 -133 0 -155 -2
-176 -19 -13 -10 -44 -21 -69 -24 -24 -3 -49 -13 -56 -21 -10 -14 -48 -16
-275 -17 -294 -1 -421 -9 -427 -27 -3 -9 -78 -12 -305 -12 -270 0 -302 2 -319
17 -17 16 -55 18 -346 21 -306 4 -328 6 -340 23 -8 12 -25 19 -47 19 -22 0
-37 6 -44 18 -8 15 -29 17 -163 20 -136 3 -155 6 -171 23 -15 16 -32 19 -125
19 -96 0 -108 2 -120 20 -7 12 -23 20 -41 20 -17 0 -34 8 -42 20 -12 17 -29
21 -124 27 -91 5 -112 9 -123 25 -7 10 -23 18 -35 18 -13 0 -32 7 -44 15 -24
17 -221 33 -267 21 -23 -6 -26 -11 -26 -46 0 -29 -4 -40 -15 -40 -9 0 -27 -12
-40 -27 -21 -24 -24 -38 -25 -104 0 -68 -2 -77 -20 -82 -15 -4 -20 -14 -20
-37 0 -18 -9 -43 -20 -57 -14 -18 -20 -41 -20 -78 0 -39 -6 -60 -23 -81 -19
-25 -22 -43 -26 -144 -3 -94 -7 -119 -22 -139 -11 -13 -19 -37 -19 -54 0 -17
-8 -39 -18 -50 -15 -17 -17 -48 -20 -274 -4 -294 -2 -307 61 -324 22 -6 51
-18 64 -26 17 -12 62 -17 178 -21 115 -4 155 -8 155 -17 0 -21 25 -25 140 -25
99 0 108 -2 113 -20 3 -12 14 -20 26 -20 12 0 21 -6 21 -14 0 -21 23 -26 115
-26 72 0 83 -2 88 -19 3 -14 18 -20 65 -25 33 -4 66 -13 72 -21 7 -8 24 -15
37 -15 16 0 27 -7 30 -19 5 -21 31 -31 83 -31 23 0 42 -7 53 -20 9 -11 24 -20
33 -20 9 0 27 -9 41 -20 14 -11 38 -20 53 -20 19 0 29 -6 33 -20 4 -17 14 -20
61 -20 35 0 56 -4 56 -11 0 -22 57 -66 92 -73 24 -4 38 -13 41 -26 4 -15 14
-20 41 -20 20 0 36 -5 36 -11 0 -6 13 -24 29 -40 22 -21 39 -29 65 -29 29 0
36 -4 36 -20 0 -13 7 -20 20 -20 12 0 20 -7 20 -16 0 -9 9 -18 19 -21 11 -3
21 -13 24 -23 3 -10 18 -20 40 -24 23 -4 37 -13 40 -26 3 -12 14 -20 26 -20
13 0 21 -6 21 -16 0 -9 9 -18 20 -21 11 -3 20 -12 20 -20 0 -8 9 -17 20 -20
10 -3 22 -14 25 -24 4 -10 11 -19 17 -19 6 0 27 -18 47 -39 20 -22 49 -43 64
-46 20 -6 30 -15 34 -37 6 -31 29 -48 62 -48 14 0 21 -6 21 -20 0 -13 7 -20
20 -20 14 0 20 -7 20 -23 0 -50 17 -58 141 -64 63 -3 149 -3 190 1 73 7 77 9
90 39 8 19 27 38 47 46 17 8 32 20 32 27 0 8 9 18 20 24 11 6 20 15 20 20 0
16 47 60 64 60 9 0 16 5 16 11 0 14 50 63 73 72 9 3 17 13 17 21 0 7 9 16 20
19 11 3 20 12 20 20 0 8 9 17 20 20 11 3 20 12 20 21 0 9 8 16 19 16 11 0 22
9 26 20 4 12 19 22 42 26 22 4 37 14 40 24 3 10 13 20 24 23 10 3 19 12 19 21
0 9 8 16 20 16 11 0 29 9 40 20 11 11 29 20 40 20 23 0 70 45 70 66 0 9 12 14
36 14 27 0 37 5 41 20 3 13 17 22 40 26 33 6 93 55 93 75 0 5 22 9 50 9 39 0
53 4 62 20 8 12 24 20 38 20 22 0 102 48 120 71 3 3 32 8 64 11 47 4 63 10 74
26 8 12 20 22 27 22 7 0 15 6 18 14 4 9 32 16 82 21 64 6 78 10 82 26 5 17 15
19 89 19 71 0 87 3 104 20 11 11 27 20 36 20 9 0 18 9 21 20 5 18 14 20 114
20 93 0 112 3 127 18 16 16 41 20 168 24 129 5 154 8 184 27 19 11 50 21 68
21 26 0 35 5 42 26 6 14 10 128 10 253 0 208 -2 230 -20 266 -15 29 -22 69
-27 143 -4 66 -11 109 -20 117 -7 8 -13 24 -13 37 0 39 -12 68 -26 68 -10 0
-14 13 -14 43 0 24 -3 78 -6 120 -6 62 -10 78 -25 82 -11 4 -19 14 -19 23 0
10 -9 23 -20 30 -17 10 -20 23 -20 83 0 62 -2 71 -20 76 -16 4 -20 14 -20 48
0 82 -8 98 -61 128 -55 30 -77 34 -85 13z"/>
<path d="M7774 3995 c-15 -11 -54 -14 -181 -15 -169 0 -193 -3 -193 -26 0 -11
-23 -14 -110 -14 -97 0 -112 -2 -130 -20 -11 -11 -26 -20 -34 -20 -7 0 -24 -8
-37 -19 -16 -12 -47 -20 -97 -23 -57 -4 -77 -10 -93 -27 -15 -16 -32 -21 -68
-21 -31 0 -57 -6 -72 -18 -13 -10 -32 -22 -42 -25 -11 -4 -21 -16 -24 -27 -5
-17 -14 -20 -64 -20 -46 0 -59 -3 -59 -15 0 -9 -9 -15 -24 -15 -35 0 -56 -10
-56 -26 0 -8 -9 -14 -21 -14 -12 0 -23 -8 -26 -20 -4 -14 -14 -20 -33 -20 -50
0 -90 -12 -90 -27 0 -8 -9 -17 -20 -20 -10 -3 -22 -14 -25 -24 -5 -14 -16 -19
-42 -19 -26 0 -36 -5 -40 -20 -4 -15 -14 -20 -40 -20 -26 0 -36 -5 -40 -19 -3
-11 -13 -21 -24 -24 -10 -3 -19 -12 -19 -20 0 -9 -14 -17 -36 -21 -19 -4 -38
-14 -41 -22 -3 -9 -16 -20 -29 -25 -13 -4 -24 -15 -24 -24 0 -8 -9 -15 -20
-15 -13 0 -20 -7 -20 -20 0 -12 -7 -20 -18 -20 -9 0 -23 -9 -30 -20 -7 -11
-19 -20 -27 -20 -7 0 -25 -10 -39 -22 -58 -53 -78 -68 -87 -68 -5 0 -9 -9 -9
-20 0 -13 -7 -20 -20 -20 -13 0 -20 -7 -20 -20 0 -13 -7 -20 -20 -20 -13 0
-20 -7 -20 -20 0 -13 -7 -20 -19 -20 -10 0 -21 -9 -24 -20 -3 -11 -12 -20 -21
-20 -9 0 -16 -4 -16 -9 0 -5 -20 -30 -45 -54 -25 -25 -45 -50 -45 -56 0 -6 -6
-11 -14 -11 -8 0 -18 -9 -21 -20 -3 -11 -15 -20 -26 -20 -12 0 -19 -7 -19 -20
0 -17 -7 -20 -47 -20 -85 0 -78 59 -81 -670 l-2 -650 951 0 951 0 29 27 c25
24 29 35 29 80 0 46 3 53 20 53 18 0 20 7 20 60 0 47 3 60 15 60 9 0 20 11 25
24 5 13 14 26 20 28 13 4 29 69 30 121 0 25 5 37 14 37 17 0 26 21 26 60 0 15
7 30 14 33 8 3 18 23 22 43 4 20 15 45 25 55 14 14 19 34 19 78 0 51 3 61 20
66 11 3 20 13 20 22 0 8 9 26 20 40 14 18 20 41 20 74 0 37 5 51 21 62 17 13
22 29 26 96 4 52 10 81 18 81 6 0 22 12 36 28 20 22 24 40 27 104 3 65 7 77
23 81 17 4 19 15 19 80 0 66 2 75 20 80 11 3 20 14 20 25 0 11 8 22 19 25 17
4 20 19 26 121 5 84 11 119 22 124 7 5 16 26 20 48 3 21 11 46 18 54 7 9 15
63 19 130 6 89 12 122 28 147 17 29 19 47 16 152 -3 113 -4 120 -28 140 -29
24 -68 27 -96 6z"/>
<path d="M2496 3964 c-31 -30 -17 -304 15 -304 5 0 9 -18 9 -40 0 -41 17 -90
32 -90 4 0 8 -48 8 -108 0 -112 9 -162 33 -186 8 -8 17 -37 20 -65 3 -28 13
-61 22 -73 8 -13 15 -35 15 -50 0 -16 8 -36 19 -47 14 -14 20 -37 23 -91 3
-53 8 -75 21 -85 9 -7 17 -17 17 -23 0 -6 8 -16 19 -21 15 -8 20 -25 23 -82 3
-52 8 -74 21 -84 11 -8 17 -26 17 -54 0 -46 23 -111 39 -111 6 0 11 -9 11 -20
0 -11 6 -23 14 -26 8 -3 17 -28 21 -62 4 -32 15 -66 25 -77 12 -13 19 -41 22
-80 4 -63 27 -109 61 -120 14 -5 17 -18 17 -71 0 -51 4 -68 20 -84 11 -11 25
-41 30 -66 6 -25 17 -53 25 -61 8 -8 15 -21 15 -30 0 -9 7 -21 16 -27 11 -8
18 -34 21 -79 5 -52 10 -70 24 -78 11 -5 19 -16 19 -24 0 -7 9 -17 20 -20 15
-5 20 -15 20 -41 l0 -34 960 0 960 0 0 634 c0 388 -4 645 -10 660 -8 21 -16
26 -45 26 -22 0 -43 8 -55 20 -11 11 -28 20 -39 20 -10 0 -21 9 -24 20 -3 11
-12 20 -21 20 -9 0 -16 5 -16 10 0 14 -64 80 -77 80 -6 0 -13 9 -16 20 -3 11
-12 20 -21 20 -9 0 -16 8 -16 20 0 13 -7 20 -20 20 -13 0 -20 7 -20 20 0 13
-7 20 -19 20 -10 0 -21 9 -24 20 -3 11 -12 20 -21 20 -9 0 -16 6 -16 13 0 8
-16 27 -36 43 -20 16 -56 48 -79 72 -28 28 -51 42 -69 42 -19 0 -26 5 -26 20
0 13 -7 20 -20 20 -11 0 -20 7 -20 15 0 9 -11 20 -24 24 -13 5 -26 16 -29 25
-3 8 -22 18 -41 22 -22 4 -36 12 -36 21 0 8 -9 17 -19 20 -11 3 -21 13 -24 24
-4 14 -14 19 -40 19 -26 0 -36 5 -40 20 -4 15 -14 20 -40 20 -26 0 -37 5 -42
19 -3 10 -15 21 -25 24 -11 3 -20 12 -20 21 0 11 -13 18 -41 22 -22 4 -43 13
-46 20 -3 8 -11 14 -19 14 -8 0 -22 9 -31 20 -11 12 -36 22 -65 26 -31 4 -48
11 -48 20 0 10 -16 14 -59 14 -54 0 -60 2 -63 23 -2 14 -11 23 -25 25 -13 2
-23 9 -23 17 0 17 -23 25 -73 25 -55 0 -87 9 -87 25 0 17 -33 25 -107 25 -47
0 -63 4 -63 14 0 15 -21 26 -49 26 -9 0 -24 9 -34 20 -15 18 -29 20 -131 20
-105 0 -114 1 -119 20 -5 19 -14 20 -235 20 -196 0 -233 -2 -246 -16z"/>
</g>
</svg>
