<?xml version="1.0" standalone="no"?>
<!DOCTYPE svg PUBLIC "-//W3C//DTD SVG 20010904//EN"
 "http://www.w3.org/TR/2001/REC-SVG-20010904/DTD/svg10.dtd">
<svg version="1.0" xmlns="http://www.w3.org/2000/svg"
 width="1042.000000pt" height="1042.000000pt" viewBox="0 0 1042.000000 1042.000000"
 preserveAspectRatio="xMidYMid meet">
<metadata>
Created by potrace 1.16, written by Peter Selinger 2001-2019
</metadata>
<g transform="translate(0.000000,1042.000000) scale(0.100000,-0.100000)"
fill="#000000" stroke="none">
<path d="M3250 9370 c0 -5 -12 -10 -26 -10 -17 0 -28 -6 -31 -20 -3 -11 -14
-20 -24 -20 -11 0 -19 -6 -19 -13 0 -7 -11 -23 -25 -35 -16 -14 -25 -32 -25
-51 0 -20 -6 -30 -20 -34 -19 -5 -20 -14 -20 -142 0 -128 1 -137 20 -142 16
-4 20 -14 20 -53 0 -58 7 -80 26 -80 9 0 14 -11 14 -29 0 -57 12 -91 31 -91
17 0 19 -8 19 -61 0 -52 3 -62 20 -66 17 -5 20 -14 20 -60 0 -46 3 -56 20 -60
17 -5 20 -14 20 -63 0 -50 3 -60 20 -65 17 -5 20 -15 20 -62 0 -45 3 -56 19
-60 15 -4 20 -17 23 -60 3 -34 11 -60 20 -67 8 -6 18 -35 21 -65 5 -38 12 -58
27 -68 17 -12 20 -25 20 -89 0 -61 4 -78 20 -94 17 -17 20 -33 20 -121 0 -92
2 -101 20 -106 20 -5 20 -14 20 -419 0 -403 0 -414 -20 -424 -19 -10 -20 -21
-20 -230 0 -210 -1 -219 -20 -225 -19 -6 -20 -15 -20 -230 0 -208 -1 -223 -18
-227 -25 -7 -32 -67 -32 -280 0 -149 -2 -168 -17 -177 -16 -9 -18 -32 -21
-212 -3 -176 -6 -205 -20 -215 -15 -11 -17 -41 -20 -233 -3 -174 -6 -221 -17
-221 -21 0 -25 -35 -25 -245 0 -189 -1 -201 -20 -213 -19 -12 -20 -23 -20
-231 0 -210 -1 -219 -20 -224 -19 -5 -20 -14 -20 -231 0 -214 -1 -226 -19
-226 -24 0 -31 -56 -31 -260 0 -136 -3 -161 -20 -195 -18 -35 -20 -59 -20
-229 0 -168 -2 -190 -17 -202 -16 -11 -18 -36 -21 -225 -3 -196 -5 -215 -23
-232 -17 -16 -19 -32 -19 -143 0 -117 1 -126 20 -131 16 -4 20 -14 20 -49 0
-30 6 -50 19 -63 10 -10 22 -28 26 -40 3 -12 12 -21 20 -21 8 0 17 -9 20 -20
3 -11 15 -20 26 -20 12 0 19 -7 19 -19 0 -15 10 -21 39 -26 27 -4 41 -12 44
-26 5 -19 14 -20 194 -19 275 2 260 3 266 -20 5 -19 14 -20 185 -20 172 0 181
1 187 20 4 13 15 20 31 20 14 0 35 11 48 25 13 14 28 25 35 25 6 0 11 8 11 19
0 10 9 21 20 24 13 3 20 14 20 29 0 28 9 42 33 51 9 3 17 13 17 22 0 8 7 15
15 15 8 0 17 11 21 24 3 14 12 27 19 30 8 3 17 21 21 40 4 26 11 36 25 36 12
0 19 7 19 19 0 10 9 21 20 24 15 4 20 14 20 41 0 29 4 36 20 36 11 0 20 5 20
11 0 7 10 22 22 35 51 52 58 62 64 92 5 22 12 32 25 32 12 0 19 7 19 19 0 10
9 21 20 24 15 4 20 14 20 41 0 26 4 36 15 36 9 0 20 11 25 25 5 14 16 25 25
25 8 0 15 8 15 19 0 10 8 21 19 24 12 3 21 17 25 41 4 22 13 36 22 36 8 0 18
8 21 18 4 9 15 23 25 30 10 7 18 26 18 42 0 20 6 31 20 35 11 3 20 15 20 26 0
12 7 19 20 19 12 0 20 7 20 18 0 9 8 22 19 29 10 6 21 25 24 42 4 18 13 31 22
31 8 0 17 11 21 25 3 14 12 25 19 25 14 0 25 22 25 52 0 11 8 22 20 25 11 3
20 14 20 24 0 12 7 19 20 19 13 0 20 7 20 20 0 10 9 24 20 30 13 7 20 21 20
40 0 20 5 30 15 30 9 0 21 11 27 25 6 14 17 25 23 25 7 0 16 16 20 36 4 24 13
38 26 41 10 3 19 13 19 23 0 10 9 20 20 23 12 3 20 14 20 26 0 12 6 21 14 21
15 0 26 21 26 50 0 10 9 22 20 25 11 3 20 15 20 26 0 12 7 19 20 19 15 0 20 7
20 25 0 15 11 36 25 49 14 13 25 28 25 33 0 6 9 13 20 16 12 3 20 14 20 26 0
12 6 21 14 21 16 0 26 21 26 56 0 17 6 24 20 24 13 0 20 7 20 19 0 10 9 21 20
24 14 4 20 14 20 35 0 22 6 32 20 37 11 3 20 11 20 16 0 5 11 19 25 31 14 12
25 27 25 34 0 6 7 14 14 17 8 3 18 22 22 41 4 26 11 36 25 36 12 0 19 7 19 19
0 10 9 21 20 24 13 3 20 14 20 29 0 13 9 29 20 36 11 7 20 22 20 33 0 12 8 23
20 26 11 3 20 11 20 19 0 7 9 18 20 24 10 6 22 26 26 45 4 21 12 35 21 35 8 0
17 9 20 20 3 10 14 22 24 25 10 4 19 15 19 26 0 10 9 28 20 39 17 17 20 33 20
121 0 92 -2 101 -20 106 -11 3 -20 14 -20 24 0 14 -7 19 -25 19 -15 0 -25 6
-25 14 0 17 -31 26 -92 26 -35 0 -50 -5 -60 -19 -13 -18 -29 -20 -207 -23
-170 -3 -194 -5 -205 -20 -12 -16 -33 -18 -177 -18 -173 0 -209 -5 -209 -25 0
-8 -20 -14 -57 -17 -44 -4 -60 -10 -71 -26 -8 -12 -21 -22 -28 -22 -8 0 -14
-9 -14 -20 0 -13 -7 -20 -20 -20 -13 0 -20 -7 -20 -20 0 -13 -7 -20 -19 -20
-14 0 -20 -10 -25 -40 -4 -26 -12 -40 -21 -40 -8 0 -17 -11 -21 -25 -3 -14
-12 -25 -19 -25 -13 0 -25 -30 -25 -67 0 -16 -6 -23 -20 -23 -16 0 -20 -7 -20
-31 0 -22 -5 -32 -20 -36 -11 -3 -20 -14 -20 -25 0 -11 -9 -22 -20 -25 -16 -4
-20 -14 -20 -44 0 -32 -3 -39 -20 -39 -13 0 -20 -7 -20 -18 0 -11 -11 -32 -25
-48 -14 -16 -25 -32 -25 -36 0 -5 -9 -17 -20 -28 -11 -11 -20 -32 -20 -46 0
-17 -6 -28 -20 -31 -12 -3 -20 -14 -20 -28 0 -12 -9 -30 -20 -40 -11 -10 -20
-26 -20 -35 0 -10 -9 -20 -20 -23 -15 -4 -20 -14 -20 -41 0 -26 -4 -36 -15
-36 -9 0 -19 -10 -24 -23 -5 -13 -16 -29 -24 -36 -9 -7 -19 -26 -22 -42 -4
-16 -13 -29 -20 -29 -15 0 -25 -22 -25 -55 0 -14 -7 -25 -20 -28 -12 -3 -20
-14 -20 -25 0 -11 -7 -22 -14 -25 -8 -3 -18 -22 -22 -41 -4 -26 -11 -36 -25
-36 -15 0 -19 -7 -19 -40 0 -33 -3 -40 -20 -40 -11 0 -20 -7 -20 -15 0 -8 -9
-23 -20 -32 -11 -10 -23 -32 -26 -49 -4 -20 -13 -34 -25 -37 -14 -4 -19 -14
-19 -41 0 -29 -4 -36 -19 -36 -18 0 -19 8 -14 163 4 133 8 164 21 175 14 11
17 41 21 190 3 149 6 178 20 188 14 11 17 40 19 193 3 140 7 181 17 181 19 0
25 48 25 212 0 135 2 152 20 175 18 23 20 41 20 169 l0 144 169 0 c177 0 201
3 201 26 0 12 43 14 248 14 256 0 292 3 292 25 0 11 43 14 194 17 168 3 197 5
213 21 15 13 38 17 104 17 131 0 191 10 197 32 4 17 18 18 192 18 179 0 188
-1 193 -20 3 -14 14 -20 31 -20 14 0 35 -9 45 -19 10 -10 33 -22 50 -26 17 -4
33 -15 36 -26 4 -10 15 -19 26 -19 12 0 19 -7 19 -20 0 -13 7 -20 20 -20 16 0
20 -7 20 -30 0 -19 7 -34 20 -42 11 -7 20 -20 20 -29 0 -9 9 -19 20 -22 15 -4
20 -14 20 -42 0 -28 5 -38 20 -42 13 -3 20 -14 20 -28 0 -33 10 -55 25 -55 8
0 16 -17 20 -39 4 -27 13 -41 26 -44 14 -4 19 -14 19 -40 0 -27 5 -37 20 -42
14 -4 20 -15 20 -35 0 -17 8 -34 19 -42 10 -7 21 -27 25 -45 4 -17 14 -34 22
-37 8 -3 14 -14 14 -25 0 -11 9 -25 20 -31 13 -7 20 -21 20 -41 0 -22 6 -32
19 -36 13 -3 21 -17 25 -44 5 -30 11 -39 26 -39 17 0 20 -7 20 -39 0 -31 4
-41 20 -46 15 -5 20 -15 20 -42 0 -26 5 -36 20 -40 13 -3 20 -14 20 -28 0 -33
10 -55 25 -55 8 0 16 -17 20 -40 4 -25 12 -40 21 -40 8 0 14 -8 14 -19 0 -10
8 -29 19 -42 10 -13 21 -34 25 -46 4 -14 15 -23 27 -23 15 0 19 -7 19 -39 0
-31 4 -41 20 -46 15 -5 20 -15 20 -42 0 -26 5 -36 20 -40 15 -4 20 -14 20 -40
0 -26 5 -36 20 -40 13 -3 20 -14 20 -28 0 -33 10 -55 25 -55 7 0 16 -16 19
-36 4 -19 16 -44 27 -55 10 -10 19 -28 19 -39 0 -11 9 -25 20 -32 11 -7 20
-20 20 -29 0 -8 9 -25 20 -37 11 -12 20 -31 20 -43 0 -12 8 -23 20 -26 15 -4
20 -14 20 -40 0 -26 5 -36 20 -40 15 -4 20 -14 20 -40 0 -26 5 -36 19 -40 13
-3 21 -17 25 -43 3 -21 12 -40 20 -43 8 -3 18 -23 22 -43 4 -24 13 -38 25 -41
14 -4 19 -15 19 -40 0 -26 5 -36 19 -40 12 -3 21 -17 26 -39 3 -19 13 -38 21
-41 7 -3 14 -13 14 -24 0 -10 9 -23 20 -29 13 -7 20 -21 20 -41 0 -22 5 -32
20 -36 14 -4 20 -14 20 -34 0 -17 9 -37 20 -46 11 -10 23 -33 26 -51 4 -22 14
-36 25 -39 14 -4 19 -15 19 -40 0 -26 5 -36 20 -40 15 -4 20 -14 20 -40 0 -26
5 -36 20 -40 13 -3 20 -14 20 -28 0 -33 10 -55 25 -55 7 0 16 -16 19 -36 4
-19 14 -38 22 -41 7 -3 14 -13 14 -24 0 -10 8 -23 19 -28 10 -6 22 -27 25 -47
5 -24 14 -38 27 -41 13 -4 19 -14 19 -34 l0 -29 450 0 450 0 0 55 c0 30 -4 55
-10 55 -5 0 -10 13 -10 29 0 48 -12 91 -25 91 -7 0 -15 18 -19 41 -5 29 -12
43 -26 46 -17 5 -20 14 -20 60 0 46 -3 56 -20 60 -16 4 -20 14 -20 44 0 32 -3
39 -20 39 -17 0 -20 7 -20 50 0 38 -5 54 -20 67 -13 11 -20 30 -20 51 0 25 -5
35 -19 39 -14 3 -20 17 -25 56 -3 29 -12 57 -20 63 -9 6 -18 29 -22 52 -5 31
-11 42 -24 42 -14 0 -19 11 -22 51 -4 34 -11 55 -22 61 -11 6 -16 22 -16 49 0
32 -4 42 -20 46 -16 4 -20 14 -20 43 0 29 -4 39 -20 43 -16 4 -20 14 -20 51 0
33 -6 52 -20 66 -11 11 -20 29 -20 39 0 29 -11 51 -25 51 -8 0 -15 21 -20 60
-6 50 -10 60 -26 60 -16 0 -19 7 -19 45 0 38 -3 45 -20 45 -17 0 -20 7 -20 44
0 54 -8 76 -26 76 -10 0 -14 13 -14 41 0 32 -4 42 -19 46 -14 4 -20 17 -24 56
-2 30 -11 55 -21 62 -9 7 -16 24 -16 39 0 14 -9 35 -20 46 -11 11 -20 26 -20
33 0 32 -22 87 -35 87 -11 0 -15 12 -15 45 0 38 -3 45 -20 45 -16 0 -20 7 -20
38 0 21 -9 48 -20 62 -12 15 -20 41 -20 63 0 30 -4 40 -20 44 -16 4 -20 14
-20 44 0 27 -5 41 -19 48 -12 7 -20 26 -25 61 -4 32 -12 50 -20 50 -9 0 -16
17 -20 44 -5 32 -13 47 -27 51 -16 5 -19 16 -19 60 0 45 -3 55 -20 60 -16 5
-20 15 -20 46 0 32 -3 39 -20 39 -16 0 -20 7 -20 38 0 52 -10 82 -26 82 -10 0
-14 13 -14 41 0 32 -4 42 -19 46 -14 3 -20 17 -25 56 -3 30 -12 57 -21 63 -9
7 -19 29 -22 49 -4 25 -12 39 -25 43 -13 3 -18 14 -18 41 0 23 -7 45 -20 59
-13 14 -20 35 -20 61 0 31 -4 41 -20 46 -15 5 -20 15 -20 45 0 28 -5 39 -19
43 -14 3 -19 17 -23 57 -4 34 -11 56 -22 62 -9 5 -16 20 -16 33 0 33 -10 55
-25 55 -9 0 -16 20 -21 56 -5 43 -11 58 -25 61 -15 4 -19 15 -19 45 0 31 -4
41 -20 45 -16 4 -20 14 -20 48 0 53 -8 75 -26 75 -9 0 -14 12 -14 34 0 23 -7
39 -19 48 -10 7 -22 28 -26 46 -4 18 -13 36 -21 39 -7 2 -16 13 -19 24 -4 10
-13 19 -21 19 -8 0 -19 11 -23 24 -5 13 -16 26 -24 29 -8 3 -17 19 -20 36 -4
17 -12 31 -19 31 -7 0 -24 12 -37 25 -13 14 -32 25 -42 25 -10 0 -19 7 -19 15
0 9 -11 20 -25 25 -14 5 -25 16 -25 25 0 10 -10 15 -28 15 -18 0 -37 9 -50 25
-12 14 -29 25 -38 25 -9 0 -27 9 -41 20 -14 11 -41 20 -59 20 -22 0 -34 5 -34
14 0 21 -23 26 -121 26 -69 0 -89 3 -89 14 0 21 -23 26 -120 26 -97 0 -120 -5
-120 -26 0 -11 -20 -14 -89 -14 -96 0 -121 -5 -121 -25 0 -8 -24 -14 -77 -17
-55 -4 -80 -10 -88 -22 -9 -12 -29 -16 -76 -16 -85 -1 -150 -14 -165 -34 -10
-14 -54 -16 -383 -16 -364 0 -373 0 -389 21 -15 17 -32 21 -132 26 -85 4 -120
10 -133 22 -14 11 -46 17 -122 19 -91 4 -104 6 -108 23 -4 14 -14 19 -40 19
-26 0 -36 5 -40 20 -3 11 -12 20 -20 20 -10 0 -18 14 -22 40 -4 25 -12 40 -21
40 -11 0 -14 21 -14 105 0 88 3 105 17 114 16 8 18 31 21 190 3 137 7 181 17
181 7 0 15 14 19 31 8 40 8 882 0 903 -3 9 -12 16 -19 16 -10 0 -14 30 -17
116 -2 92 -7 118 -19 127 -11 8 -19 37 -24 91 -6 65 -10 79 -26 83 -16 5 -19
15 -19 63 0 50 -3 60 -20 65 -17 5 -20 15 -20 62 0 46 -3 56 -20 60 -16 4 -20
14 -20 48 0 53 -8 75 -26 75 -10 0 -14 13 -14 41 0 32 -4 42 -19 46 -14 4 -20
18 -25 64 -5 39 -11 59 -20 59 -14 0 -26 30 -26 68 0 15 -6 22 -20 22 -18 0
-20 7 -20 56 0 47 -3 57 -20 61 -16 4 -20 14 -20 45 0 31 -4 41 -20 45 -16 4
-20 14 -20 48 0 53 -8 75 -26 75 -10 0 -14 12 -14 38 0 25 -6 41 -19 49 -12 7
-21 29 -25 63 -4 30 -13 53 -21 57 -9 3 -18 23 -21 44 -5 29 -11 39 -25 39
-15 0 -19 7 -19 36 0 27 -5 37 -20 41 -10 3 -22 14 -25 24 -4 11 -20 21 -41
25 -19 3 -34 10 -34 15 0 5 -81 9 -180 9 -113 0 -180 -4 -180 -10z"/>
<path d="M2083 6144 c-7 -3 -13 -12 -13 -20 0 -11 -20 -14 -100 -14 -87 0
-101 -2 -109 -19 -7 -12 -25 -20 -58 -24 -26 -3 -52 -12 -57 -20 -6 -8 -21
-17 -34 -21 -13 -4 -22 -15 -22 -27 0 -15 -7 -19 -39 -19 -31 0 -41 -4 -46
-20 -3 -11 -13 -20 -22 -20 -8 0 -17 -9 -20 -20 -3 -11 -12 -20 -20 -20 -8 0
-17 -9 -20 -20 -3 -11 -12 -20 -20 -20 -8 0 -17 -9 -20 -20 -3 -10 -14 -22
-24 -25 -10 -4 -19 -15 -19 -25 0 -9 -8 -20 -19 -23 -12 -3 -21 -17 -25 -41
-4 -20 -13 -36 -20 -36 -16 0 -26 -22 -26 -55 0 -14 -9 -29 -20 -35 -17 -9
-20 -21 -20 -70 0 -33 -4 -60 -10 -60 -6 0 -10 -88 -10 -245 0 -157 4 -245 10
-245 6 0 10 -26 10 -59 0 -51 3 -61 20 -66 15 -5 20 -15 20 -42 0 -26 5 -36
19 -40 13 -3 21 -17 25 -44 4 -26 11 -39 22 -39 9 0 18 -9 21 -20 3 -10 14
-22 24 -25 10 -4 19 -15 19 -24 0 -25 75 -101 99 -101 10 0 21 -9 24 -20 3
-12 14 -20 26 -20 14 0 21 -6 21 -20 0 -17 7 -20 40 -20 33 0 40 -3 40 -20 0
-14 9 -21 38 -26 20 -4 42 -14 49 -23 8 -11 33 -17 87 -19 53 -3 76 -8 76 -17
0 -21 26 -25 178 -25 156 0 192 5 192 25 0 8 25 14 77 17 53 4 80 10 88 21 6
8 27 18 48 22 23 5 39 14 42 26 5 14 16 19 42 19 26 0 36 5 40 20 3 11 14 20
24 20 12 0 19 7 19 20 0 11 6 20 14 20 16 0 116 93 116 108 0 6 9 14 20 17 11
3 20 15 20 26 0 12 7 19 20 19 13 0 20 7 20 20 0 11 9 29 20 40 11 11 20 31
20 45 0 15 6 25 15 25 14 0 18 9 29 79 4 19 14 40 24 47 15 11 17 37 20 240 4
243 0 294 -23 294 -10 0 -16 19 -21 61 -5 48 -11 63 -25 66 -14 4 -19 15 -19
40 0 26 -5 36 -19 40 -12 3 -21 17 -26 39 -3 19 -10 34 -16 34 -5 0 -14 11
-19 25 -5 14 -16 25 -24 25 -7 0 -17 11 -20 25 -4 14 -13 25 -22 25 -9 0 -18
9 -21 20 -3 11 -14 20 -24 20 -12 0 -19 7 -19 20 0 13 -7 20 -20 20 -10 0 -24
9 -30 20 -7 13 -21 20 -40 20 -23 0 -30 5 -30 19 0 14 -10 21 -37 26 -21 4
-46 15 -56 26 -10 10 -29 19 -42 19 -14 0 -34 9 -45 20 -17 17 -33 20 -110 20
-74 0 -91 3 -99 17 -7 14 -25 18 -88 20 -43 1 -84 0 -90 -3z"/>
</g>
</svg>
