<?xml version="1.0" standalone="no"?>
<!DOCTYPE svg PUBLIC "-//W3C//DTD SVG 20010904//EN"
 "http://www.w3.org/TR/2001/REC-SVG-20010904/DTD/svg10.dtd">
<svg version="1.0" xmlns="http://www.w3.org/2000/svg"
 width="1042.000000pt" height="1042.000000pt" viewBox="0 0 1042.000000 1042.000000"
 preserveAspectRatio="xMidYMid meet">
<metadata>
Created by potrace 1.16, written by Peter Selinger 2001-2019
</metadata>
<g transform="translate(0.000000,1042.000000) scale(0.100000,-0.100000)"
fill="#000000" stroke="none">
<path d="M5454 9925 c4 -12 -3 -15 -35 -15 -33 0 -41 -4 -49 -25 -6 -15 -15
-23 -23 -19 -11 4 -16 -7 -21 -39 -5 -33 -12 -46 -26 -50 -18 -5 -20 -14 -20
-92 0 -47 -4 -84 -8 -81 -24 15 -35 -16 -40 -116 -3 -80 -8 -106 -20 -116 -14
-10 -18 -36 -21 -129 -3 -100 -6 -116 -21 -120 -20 -5 -30 -58 -30 -159 0 -53
-3 -64 -19 -69 -10 -3 -18 -11 -18 -18 2 -78 -6 -238 -12 -222 -8 19 -8 19
-19 -2 -8 -13 -12 -79 -13 -170 -1 -81 -4 -137 -8 -124 l-6 24 -14 -29 c-11
-21 -16 -91 -19 -266 -3 -184 -7 -238 -17 -238 -7 0 -16 -7 -19 -16 -3 -9 -6
-145 -6 -302 0 -276 -1 -288 -20 -300 -19 -12 -20 -23 -20 -222 0 -203 -1
-210 -20 -210 -18 0 -25 -10 -21 -32 0 -5 -10 -8 -24 -8 -18 0 -25 -5 -25 -20
0 -13 -7 -20 -20 -20 -18 0 -24 -10 -21 -32 0 -3 -17 -9 -39 -13 -25 -4 -40
-12 -40 -21 0 -8 -11 -19 -25 -24 -14 -5 -25 -16 -25 -24 0 -8 -10 -16 -22
-18 -15 -2 -24 -11 -26 -25 -2 -14 -10 -23 -20 -23 -9 0 -24 -5 -32 -10 -13
-9 -13 -11 0 -20 11 -7 6 -10 -23 -10 -25 0 -40 -5 -44 -16 -3 -8 -16 -20 -29
-25 -14 -5 -24 -17 -24 -29 0 -14 -7 -20 -21 -20 -12 0 -23 -8 -26 -20 -3 -10
-14 -22 -24 -25 -10 -4 -19 -15 -19 -26 0 -10 -6 -19 -13 -19 -14 0 -37 -40
-37 -63 0 -7 -9 -18 -20 -25 -14 -9 -20 -23 -20 -51 0 -31 -4 -38 -17 -37 -15
1 -18 -9 -21 -66 -3 -59 -5 -68 -22 -68 -26 0 -32 -63 -28 -266 2 -122 6 -165
18 -178 13 -17 14 -17 21 1 4 10 8 -51 8 -136 1 -147 2 -153 20 -148 19 5 20
-2 24 -132 5 -150 7 -161 19 -161 4 0 9 6 10 13 1 6 4 -52 7 -129 5 -116 9
-146 24 -161 22 -25 22 -39 -3 -70 -11 -14 -20 -41 -20 -59 0 -26 -3 -32 -15
-27 -9 3 -15 2 -14 -3 4 -18 -13 -43 -27 -37 -8 3 -14 0 -14 -5 0 -6 -12 -17
-27 -24 -16 -8 -27 -21 -27 -31 2 -14 -8 -17 -50 -18 -28 -1 -55 -2 -61 -4 -5
-1 -14 -3 -19 -3 -5 -1 -3 -9 4 -17 11 -13 6 -15 -35 -15 -37 0 -48 -4 -52
-19 -4 -14 -17 -20 -61 -24 -32 -4 -61 -12 -67 -21 -6 -8 -28 -18 -49 -22 -25
-4 -40 -13 -43 -25 -4 -14 -15 -19 -42 -20 -55 -2 -86 -13 -85 -32 2 -14 -7
-17 -47 -17 -42 0 -49 -3 -49 -20 0 -16 -7 -20 -37 -20 -41 -1 -84 -24 -61
-33 7 -3 -11 -6 -39 -6 -38 -1 -58 -6 -72 -20 -10 -10 -35 -21 -55 -25 -25 -5
-40 -14 -45 -29 -5 -12 -11 -21 -15 -19 -3 1 -26 2 -51 2 -39 0 -47 -3 -55
-25 -8 -22 -16 -25 -56 -25 -41 0 -46 -2 -41 -20 5 -18 0 -20 -40 -20 -48 0
-87 -15 -78 -31 4 -5 -5 -9 -18 -9 -32 0 -75 -22 -70 -37 2 -6 -10 -14 -26
-18 -17 -4 -31 -13 -31 -21 0 -8 -9 -14 -20 -14 -13 0 -20 -7 -20 -20 0 -13
-10 -24 -25 -30 -14 -5 -25 -16 -25 -24 0 -7 -9 -16 -20 -19 -12 -3 -20 -14
-20 -26 0 -14 -6 -21 -19 -21 -14 0 -20 -10 -25 -39 -4 -27 -12 -40 -26 -44
-17 -4 -20 -13 -20 -57 0 -31 -4 -49 -10 -45 -7 4 -10 -388 -10 -1169 0 -777
3 -1176 10 -1176 6 0 10 -18 10 -41 0 -33 4 -42 20 -46 19 -5 24 -17 32 -68 2
-12 11 -20 22 -20 11 0 22 -7 24 -15 7 -21 23 -30 55 -30 17 0 27 -5 27 -15 0
-14 27 -16 205 -15 113 1 207 5 210 10 3 5 -3 11 -12 13 -10 3 2 5 25 6 34 1
45 5 49 20 3 11 14 21 25 24 11 3 22 15 25 26 3 11 9 18 14 16 12 -8 29 29 29
63 0 22 4 29 18 28 16 -1 17 49 20 897 2 887 2 897 22 897 15 0 21 9 26 41 5
29 13 43 25 46 11 3 19 14 19 24 0 12 7 19 20 19 13 0 20 7 20 19 0 13 8 21
23 23 13 2 22 10 21 19 -1 13 11 18 58 22 40 4 64 11 72 23 9 12 30 18 72 20
79 4 104 11 104 29 0 12 14 15 59 15 69 0 111 13 111 35 0 12 14 15 70 15 63
0 70 2 70 20 0 18 7 20 79 20 53 0 82 4 90 13 6 8 8 17 4 20 -3 4 26 7 65 7
59 0 76 4 92 20 13 13 33 20 57 20 49 0 115 18 128 36 6 8 35 14 75 16 55 3
65 6 64 20 -1 10 1 18 5 18 33 1 149 12 160 16 7 2 10 11 7 19 -4 12 7 15 65
15 71 0 115 13 104 31 -4 5 22 9 64 9 68 0 77 4 72 33 0 4 13 7 30 7 38 0 69
16 69 35 0 11 12 15 40 15 33 0 40 3 40 20 0 13 9 22 25 26 16 4 25 13 25 25
0 12 7 19 20 19 13 0 20 7 20 20 0 13 7 20 20 20 11 0 20 5 20 10 0 6 11 20
25 32 14 12 25 29 25 39 0 12 6 16 20 12 18 -5 20 0 20 41 0 38 3 46 19 46 19
0 31 25 31 66 0 13 8 24 20 27 19 5 20 13 17 292 -2 251 -4 288 -18 298 -13
10 -17 39 -21 160 -3 112 -8 151 -18 157 -8 5 -18 6 -22 4 -4 -3 -8 193 -8
434 0 419 1 440 18 445 23 5 32 45 32 143 0 57 3 74 14 74 20 0 26 23 27 103
0 41 4 64 8 54 15 -39 31 32 31 136 0 56 5 109 10 117 8 13 10 12 10 -5 0 -28
18 -6 24 30 2 17 5 478 6 1025 1 547 4 989 7 982 4 -10 8 -10 19 -1 11 9 14
43 14 146 0 75 4 132 9 129 23 -15 36 31 40 143 3 92 7 118 20 127 19 15 18 7
20 151 0 64 4 113 8 110 3 -4 12 -2 20 4 19 17 19 464 -1 484 -7 8 -16 11 -20
8 -3 -4 -6 8 -6 25 0 25 -5 33 -25 38 -16 4 -25 13 -25 25 0 14 -7 19 -25 19
-15 0 -24 5 -22 13 1 9 -44 13 -197 15 -174 2 -198 1 -192 -13z"/>
<path d="M4740 8553 c-8 -3 -23 -14 -33 -24 -10 -11 -29 -19 -42 -19 -14 0
-30 -9 -37 -20 -7 -11 -19 -20 -26 -20 -7 0 -17 -11 -22 -25 -6 -15 -17 -25
-30 -25 -13 0 -20 -7 -20 -20 0 -12 -7 -20 -16 -20 -9 0 -18 -9 -21 -19 -3
-11 -13 -21 -24 -24 -11 -3 -19 -14 -19 -25 0 -14 -8 -22 -22 -24 -19 -2 -24
-10 -26 -40 -2 -25 -9 -39 -21 -43 -12 -4 -21 -19 -25 -45 -3 -22 -14 -43 -24
-49 -15 -9 -17 -34 -20 -259 -3 -236 -2 -251 16 -256 13 -4 22 -23 31 -67 7
-34 18 -62 26 -66 8 -3 15 -14 15 -24 0 -12 9 -21 25 -25 21 -5 25 -12 25 -40
0 -31 8 -39 33 -35 4 0 7 -7 7 -17 0 -11 11 -24 25 -30 14 -6 25 -18 25 -26 0
-16 21 -26 56 -26 17 0 24 -6 24 -20 0 -11 7 -20 15 -20 8 0 23 -9 32 -20 23
-26 117 -29 127 -4 3 9 6 145 6 304 0 271 1 288 18 292 26 7 32 67 32 306 0
109 4 191 9 188 20 -13 32 54 29 169 l-3 120 -65 2 c-36 1 -72 -1 -80 -4z"/>
<path d="M7490 6372 c0 -9 -9 -23 -20 -30 -14 -8 -20 -23 -20 -46 0 -35 -13
-46 -51 -46 -30 0 -89 -62 -89 -94 0 -22 -4 -26 -28 -26 -41 0 -100 -56 -104
-100 -3 -30 -7 -35 -32 -38 -39 -5 -96 -61 -96 -96 0 -23 -4 -26 -35 -26 -25
0 -37 -6 -46 -22 -7 -13 -20 -29 -30 -36 -10 -7 -19 -27 -21 -45 -3 -28 -7
-32 -35 -35 -20 -2 -37 -11 -43 -23 -9 -15 -22 -19 -70 -19 -70 0 -76 -12 -33
-60 19 -22 35 -30 60 -30 18 0 33 3 33 8 0 4 15 24 33 45 34 39 77 51 77 21 0
-10 -6 -14 -14 -11 -14 6 -56 -40 -69 -75 -3 -10 -13 -18 -21 -18 -7 0 -16 -7
-20 -15 -6 -17 -56 -21 -56 -4 0 5 -13 15 -30 20 -20 7 -30 18 -30 31 0 29
-20 60 -35 55 -7 -3 -18 5 -25 18 -7 13 -22 26 -34 29 -11 3 -27 18 -33 33
-18 41 -47 54 -132 60 -42 3 -85 12 -96 19 -25 18 -54 18 -74 0 -19 -16 -186
-32 -176 -16 3 5 16 10 29 10 12 0 36 13 52 30 29 29 30 29 142 30 109 0 113
-1 121 -24 13 -33 61 -47 105 -30 20 8 21 43 1 50 -8 4 -15 18 -15 33 0 38
-17 51 -67 51 -30 0 -49 -6 -63 -20 -15 -15 -33 -20 -73 -20 -41 0 -55 4 -65
20 -10 16 -23 20 -66 20 -56 0 -66 -8 -66 -51 0 -20 -4 -23 -52 -33 -16 -4
-28 -12 -28 -19 0 -8 -11 -23 -25 -35 -14 -12 -25 -27 -25 -33 0 -25 22 -49
45 -49 29 0 34 -15 8 -22 -10 -3 -28 -26 -41 -51 -29 -58 -62 -66 -62 -14 0
24 6 35 22 42 13 6 24 18 26 28 5 26 -69 24 -86 -3 -7 -11 -19 -20 -27 -20
-13 0 -15 -32 -15 -220 0 -207 1 -220 18 -220 11 0 24 -11 30 -25 9 -19 19
-25 42 -25 43 0 51 27 17 54 -27 22 -36 59 -16 71 14 10 49 -24 66 -62 7 -18
20 -33 28 -33 10 0 15 -11 15 -35 0 -38 20 -55 65 -55 20 0 26 -4 21 -15 -3
-10 3 -17 19 -21 14 -3 25 -10 25 -15 0 -13 66 -79 79 -79 6 0 11 -7 11 -16 0
-24 -53 -14 -65 13 -5 12 -20 27 -32 34 -13 7 -23 16 -23 21 0 4 -9 8 -20 8
-16 0 -20 -7 -20 -34 0 -28 7 -41 37 -65 22 -18 49 -31 65 -31 24 0 28 -4 28
-28 0 -38 53 -88 103 -96 34 -6 37 -10 37 -39 0 -42 53 -97 93 -97 22 0 27 -4
27 -26 0 -14 11 -40 25 -58 14 -18 25 -38 25 -44 0 -9 54 -12 193 -12 l192 0
13 30 c10 23 20 30 41 30 33 0 51 17 51 47 0 28 46 72 75 73 30 0 45 19 45 54
0 24 9 37 39 59 22 15 48 27 58 27 26 0 43 19 43 47 0 28 46 72 75 73 31 1 55
24 55 54 0 31 54 85 86 86 28 0 44 19 44 52 0 15 5 28 10 28 6 0 16 11 22 25
8 19 19 25 43 25 37 0 55 15 55 47 0 28 56 82 86 83 29 0 44 19 44 57 0 23 5
33 15 33 8 0 20 9 27 20 8 12 24 20 38 20 32 0 50 17 50 46 0 28 66 94 94 94
30 0 46 18 46 52 0 21 5 28 20 28 19 0 20 7 20 180 0 172 -1 180 -20 180 -10
0 -24 9 -30 19 -7 13 -23 21 -48 23 -33 3 -37 6 -40 32 -5 37 -51 83 -88 88
-26 3 -30 8 -34 43 -4 29 -11 43 -27 50 -12 5 -24 17 -26 27 -5 16 -20 18
-176 18 -157 0 -171 -1 -171 -18z m310 -97 c5 -14 14 -25 20 -25 5 0 10 -3 10
-7 0 -5 -76 -8 -170 -8 l-170 0 0 26 c0 14 3 29 7 32 3 4 71 7 150 7 l143 0
10 -25z m248 -392 l-3 -148 -25 -3 -25 -3 0 151 0 150 28 0 28 0 -3 -147z
m-998 -1145 c0 -5 -7 -11 -17 -15 -9 -3 -31 -23 -49 -43 l-33 -36 -188 0 -188
1 -3 28 -3 27 200 0 c199 0 200 0 218 24 17 23 63 33 63 14z"/>
<path d="M5810 4071 c-5 -11 -10 -41 -10 -67 0 -26 -3 -44 -7 -41 -14 14 -33
-18 -34 -57 0 -22 -3 -35 -6 -28 -9 22 -22 13 -31 -20 -6 -23 -14 -33 -28 -33
-13 0 -20 -8 -22 -27 -2 -18 -8 -25 -17 -22 -9 4 -17 -7 -25 -35 -7 -26 -17
-41 -26 -41 -9 0 -18 -9 -21 -19 -3 -11 -19 -25 -36 -32 -18 -7 -36 -19 -40
-26 -4 -7 -17 -13 -27 -13 -18 0 -24 -10 -22 -31 1 -4 -10 -10 -23 -13 -14 -4
-25 -13 -25 -20 0 -9 -16 -17 -41 -21 -29 -5 -43 -13 -46 -26 -4 -14 -15 -19
-42 -19 -51 0 -81 -10 -81 -26 0 -8 -10 -14 -24 -14 -14 0 -36 -4 -50 -10 -21
-8 -26 -16 -26 -45 0 -19 5 -35 10 -35 6 0 10 -8 10 -17 0 -14 2 -15 9 -4 6
10 11 1 16 -28 5 -31 11 -41 26 -41 13 0 19 -7 19 -21 0 -12 8 -23 20 -26 13
-3 22 -17 26 -40 4 -23 14 -37 25 -40 11 -3 19 -14 19 -25 0 -11 9 -22 20 -25
13 -4 20 -14 20 -30 0 -21 3 -23 23 -18 22 7 22 7 2 -9 -15 -12 -17 -15 -5
-16 9 0 21 -13 27 -30 6 -16 18 -30 27 -30 9 0 16 -8 16 -20 0 -13 7 -20 20
-20 14 0 20 -7 20 -22 0 -43 12 -68 31 -68 12 0 19 -7 19 -19 0 -11 9 -23 20
-26 11 -3 20 -15 20 -26 0 -10 9 -28 20 -39 11 -11 20 -27 20 -36 0 -9 9 -18
20 -21 11 -3 23 -16 26 -28 3 -13 14 -25 25 -28 13 -4 19 -14 19 -35 0 -29 13
-47 35 -47 6 0 11 -10 13 -22 2 -15 10 -23 23 -23 14 0 19 -7 19 -30 0 -16 8
-37 18 -47 11 -10 22 -26 25 -35 4 -10 13 -18 20 -18 8 0 19 -11 25 -25 6 -14
18 -25 27 -25 11 0 15 -10 15 -36 0 -27 5 -37 19 -41 10 -2 24 -16 30 -29 6
-13 17 -24 26 -24 8 0 15 -7 15 -16 0 -9 9 -18 19 -21 11 -3 21 -14 24 -25 3
-11 15 -22 26 -25 12 -3 21 -14 21 -24 0 -12 7 -19 20 -19 13 0 20 -7 20 -20
0 -15 7 -20 24 -20 19 0 24 -4 21 -20 -3 -15 2 -20 19 -20 16 0 26 -7 29 -21
3 -11 15 -23 26 -26 12 -3 21 -12 21 -19 0 -8 5 -14 10 -14 6 0 20 -10 33 -22
12 -13 24 -24 27 -24 37 -10 50 -19 50 -35 0 -13 7 -19 24 -19 16 0 23 -5 22
-17 0 -10 9 -22 22 -28 12 -5 22 -16 22 -23 0 -8 9 -16 20 -19 10 -3 22 -14
25 -24 4 -10 15 -19 25 -19 12 0 20 -8 22 -22 2 -16 9 -22 21 -20 15 3 21 -8
19 -29 -1 -4 10 -10 23 -13 13 -3 36 -17 51 -31 15 -14 32 -25 39 -25 7 0 15
-9 18 -20 3 -12 14 -20 26 -20 14 0 21 -6 21 -20 0 -13 7 -20 20 -20 13 0 20
-7 20 -20 0 -11 6 -20 14 -20 7 0 21 -11 30 -25 9 -14 23 -25 30 -25 8 0 16
-9 19 -20 3 -11 12 -20 20 -20 9 0 19 -9 22 -20 3 -11 11 -21 16 -21 5 -1 15
-2 21 -3 7 0 13 -10 13 -21 0 -19 4 -21 53 -24 15 -1 22 -7 22 -21 0 -15 7
-20 25 -20 20 0 25 -5 25 -25 0 -18 5 -25 20 -25 13 0 20 -7 20 -20 0 -13 7
-20 20 -20 13 0 24 -10 30 -25 5 -14 16 -25 25 -25 8 0 15 -6 15 -14 0 -17 21
-26 63 -27 18 -1 24 -3 15 -6 -10 -2 -18 -8 -18 -13 0 -13 28 -20 76 -20 32 0
44 -4 44 -15 0 -12 20 -15 120 -15 67 0 120 4 120 9 0 5 -8 12 -17 14 -10 3
12 5 50 6 60 1 67 3 67 21 0 14 7 20 21 20 12 0 23 8 26 20 3 11 14 20 24 20
12 0 19 7 19 20 0 13 10 24 25 30 21 8 25 16 26 52 0 33 2 38 9 23 5 -12 9 56
9 173 1 126 -2 191 -9 187 -8 -5 -16 39 -11 68 1 4 -10 11 -23 16 -13 5 -26
19 -29 30 -3 12 -12 21 -20 21 -9 0 -18 9 -22 19 -3 10 -15 21 -25 24 -11 3
-20 12 -20 21 0 9 -11 18 -24 22 -14 3 -27 12 -30 21 -3 8 -10 11 -16 8 -5 -3
-10 -2 -10 4 0 5 -9 12 -19 16 -11 3 -23 15 -26 26 -4 10 -15 19 -26 19 -12 0
-19 7 -19 20 0 14 -7 20 -24 20 -17 0 -23 5 -22 17 0 12 -7 19 -21 21 -15 2
-23 10 -23 23 0 12 -10 23 -26 29 -14 6 -22 14 -19 20 3 5 -6 13 -22 16 -15 4
-37 18 -49 31 -12 12 -28 23 -36 23 -9 0 -18 9 -21 20 -3 12 -14 20 -25 20
-15 0 -20 5 -17 20 3 16 -2 20 -21 20 -17 0 -24 5 -24 20 0 12 -10 24 -24 29
-13 5 -26 17 -29 25 -4 9 -13 16 -22 16 -8 0 -15 7 -15 15 0 9 -11 20 -25 25
-14 5 -28 16 -31 25 -3 8 -21 17 -40 21 -24 4 -34 12 -34 25 0 12 -7 19 -20
19 -13 0 -20 7 -20 20 0 11 -7 20 -15 20 -8 0 -22 11 -31 25 -9 14 -22 25 -29
25 -7 0 -15 9 -18 20 -3 12 -14 20 -27 20 -14 0 -20 5 -17 13 5 13 -11 31 -30
33 -29 2 -33 5 -31 16 2 7 -12 17 -29 22 -18 6 -33 16 -33 23 0 8 -11 18 -24
25 -19 8 -26 20 -28 47 -2 27 -7 36 -20 35 -12 -1 -18 6 -19 22 -1 13 -3 29
-4 34 -1 6 -3 15 -4 21 0 6 -8 9 -16 5 -11 -4 -15 1 -15 19 0 33 -20 75 -37
75 -9 0 -13 13 -13 41 0 32 -4 42 -20 46 -16 4 -20 14 -20 47 0 60 -10 86 -31
86 -15 0 -19 10 -21 68 -3 57 -6 67 -20 66 -15 -2 -18 7 -18 46 0 58 -7 80
-26 80 -9 0 -14 11 -14 29 0 39 -9 61 -25 61 -9 0 -16 18 -21 45 -5 34 -11 45
-25 45 -14 0 -19 9 -21 43 -2 34 -7 43 -24 45 -16 2 -21 10 -22 32 -1 38 -10
53 -28 46 -10 -4 -14 2 -14 20 0 17 -7 28 -20 31 -13 3 -20 14 -20 28 0 13
-11 33 -25 46 -13 13 -25 30 -25 37 0 6 -9 12 -19 12 -14 0 -21 8 -23 27 -2
19 -10 29 -26 33 -13 3 -23 8 -23 13 2 23 -1 27 -19 27 -12 0 -20 7 -20 16 0
22 -27 48 -33 31 -3 -6 -6 2 -6 20 -1 44 -24 63 -76 63 -34 0 -47 -5 -55 -19z"/>
</g>
</svg>
