<?xml version="1.0" standalone="no"?>
<!DOCTYPE svg PUBLIC "-//W3C//DTD SVG 20010904//EN"
 "http://www.w3.org/TR/2001/REC-SVG-20010904/DTD/svg10.dtd">
<svg version="1.0" xmlns="http://www.w3.org/2000/svg"
 width="1042.000000pt" height="1042.000000pt" viewBox="0 0 1042.000000 1042.000000"
 preserveAspectRatio="xMidYMid meet">
<metadata>
Created by potrace 1.16, written by Peter Selinger 2001-2019
</metadata>
<g transform="translate(0.000000,1042.000000) scale(0.100000,-0.100000)"
fill="#000000" stroke="none">
<path d="M2944 8660 c-207 -44 -486 -163 -672 -287 -412 -276 -701 -691 -844
-1212 l-32 -116 -4 -415 c-3 -283 0 -451 8 -527 l12 -113 543 0 c298 0 751 -3
1006 -7 l465 -6 28 -156 c31 -172 66 -303 81 -308 6 -1 23 65 39 150 44 232
204 979 211 986 4 3 221 7 484 9 l478 3 27 -123 c15 -68 97 -454 182 -858 153
-725 363 -1711 407 -1904 12 -55 27 -101 32 -103 10 -3 72 278 384 1747 l117
555 60 8 c32 4 248 6 478 5 l420 -3 8 -30 c20 -76 208 -959 208 -980 0 -3 398
-5 883 -5 l884 0 36 132 c109 395 181 805 206 1178 13 191 13 568 1 651 -35
228 -108 458 -215 674 -258 523 -702 884 -1281 1041 -94 26 -114 27 -376 32
-311 5 -420 -4 -601 -47 -486 -116 -877 -316 -1281 -655 -44 -36 -87 -66 -95
-66 -9 0 -81 55 -161 121 -190 158 -337 255 -545 360 -300 151 -559 231 -888
274 -177 23 -572 20 -693 -5z"/>
<path d="M4176 5403 c-44 -214 -112 -543 -152 -733 -41 -190 -74 -353 -74
-362 0 -17 -26 -18 -412 -18 l-413 0 -52 253 c-29 138 -76 366 -104 505 l-52
252 -689 0 c-378 0 -688 -2 -688 -5 0 -13 107 -358 145 -467 249 -715 627
-1354 1135 -1922 163 -183 467 -478 645 -626 451 -377 891 -653 1450 -909 204
-94 277 -121 321 -121 99 0 604 246 1024 498 846 508 1623 1304 2080 2130 149
270 197 369 183 383 -7 7 -301 13 -982 18 -534 4 -973 9 -975 12 -7 7 -82 341
-116 514 -41 211 -53 258 -66 262 -17 6 -44 -103 -159 -658 -203 -969 -310
-1442 -332 -1464 -13 -13 -82 -15 -516 -13 l-501 3 -82 385 c-44 212 -120 567
-167 790 -382 1798 -356 1680 -366 1680 -3 0 -42 -174 -85 -387z"/>
</g>
</svg>
