<?xml version="1.0" standalone="no"?>
<!DOCTYPE svg PUBLIC "-//W3C//DTD SVG 20010904//EN"
 "http://www.w3.org/TR/2001/REC-SVG-20010904/DTD/svg10.dtd">
<svg version="1.0" xmlns="http://www.w3.org/2000/svg"
 width="1042.000000pt" height="1042.000000pt" viewBox="0 0 1042.000000 1042.000000"
 preserveAspectRatio="xMidYMid meet">
<metadata>
Created by potrace 1.16, written by Peter Selinger 2001-2019
</metadata>
<g transform="translate(0.000000,1042.000000) scale(0.100000,-0.100000)"
fill="#000000" stroke="none">
<path d="M4280 8660 c0 -5 -11 -10 -25 -10 -18 0 -25 -5 -25 -20 0 -13 -7 -20
-20 -20 -13 0 -20 -7 -20 -20 0 -13 -7 -20 -19 -20 -12 0 -21 -9 -25 -25 -4
-14 -12 -25 -20 -25 -14 0 -26 -42 -26 -90 0 -19 -6 -29 -20 -33 -20 -5 -20
-14 -20 -1021 l0 -1016 -1016 0 c-1007 0 -1016 0 -1021 -20 -4 -14 -14 -20
-33 -20 -48 0 -90 -12 -90 -26 0 -8 -11 -16 -25 -20 -16 -4 -25 -13 -25 -25 0
-12 -7 -19 -20 -19 -13 0 -20 -7 -20 -20 0 -13 -7 -20 -20 -20 -15 0 -20 -7
-20 -25 0 -14 -4 -25 -10 -25 -7 0 -10 -310 -10 -910 0 -600 3 -910 10 -910 6
0 10 -9 10 -21 0 -12 8 -23 20 -26 11 -3 20 -14 20 -24 0 -12 7 -19 19 -19 10
0 21 -9 24 -20 3 -12 14 -20 26 -20 14 0 21 -6 21 -20 0 -16 9 -20 60 -26 38
-4 60 -11 60 -19 0 -7 10 -15 23 -19 12 -3 471 -6 1020 -6 l997 0 0 -1016 c0
-1007 0 -1016 20 -1021 14 -4 20 -14 20 -33 0 -48 12 -90 26 -90 7 0 15 -9 19
-19 3 -11 15 -23 26 -26 10 -4 19 -15 19 -26 0 -12 7 -19 19 -19 10 0 21 -9
24 -20 3 -12 14 -20 26 -20 12 0 21 -4 21 -10 0 -7 310 -10 910 -10 600 0 910
3 910 10 0 6 9 10 21 10 12 0 23 8 26 20 3 11 12 20 20 20 8 0 17 9 20 20 3
10 14 22 24 25 10 4 19 15 19 26 0 12 7 19 20 19 16 0 20 9 26 60 4 38 11 60
19 60 7 0 16 7 19 16 3 9 6 468 6 1020 l0 1004 998 0 c548 0 1007 3 1020 6 12
4 22 12 22 19 0 8 22 15 60 19 51 6 60 10 60 26 0 14 7 20 21 20 12 0 23 8 26
19 3 11 13 21 24 24 10 3 19 12 19 20 0 8 9 17 20 20 12 3 20 14 20 26 0 12 5
21 10 21 7 0 10 310 10 910 0 600 -3 910 -10 910 -5 0 -10 9 -10 21 0 12 -8
23 -20 26 -11 3 -20 14 -20 24 0 12 -7 19 -20 19 -11 0 -20 7 -20 15 0 9 -11
21 -25 27 -14 6 -25 17 -25 23 0 13 -43 25 -90 25 -19 0 -29 6 -33 20 -5 20
-14 20 -1021 20 l-1016 0 0 1004 c0 552 -3 1011 -6 1020 -3 9 -12 16 -19 16
-8 0 -15 22 -19 60 -6 51 -10 60 -26 60 -14 0 -20 7 -20 21 0 12 -8 23 -20 26
-11 3 -20 14 -20 24 0 12 -7 19 -19 19 -10 0 -21 9 -24 20 -3 12 -14 20 -26
20 -12 0 -21 5 -21 10 0 7 -310 10 -910 10 -600 0 -910 -3 -910 -10z"/>
</g>
</svg>
