<?xml version="1.0" standalone="no"?>
<!DOCTYPE svg PUBLIC "-//W3C//DTD SVG 20010904//EN"
 "http://www.w3.org/TR/2001/REC-SVG-20010904/DTD/svg10.dtd">
<svg version="1.0" xmlns="http://www.w3.org/2000/svg"
 width="1042.000000pt" height="1042.000000pt" viewBox="0 0 1042.000000 1042.000000"
 preserveAspectRatio="xMidYMid meet">
<metadata>
Created by potrace 1.16, written by Peter Selinger 2001-2019
</metadata>
<g transform="translate(0.000000,1042.000000) scale(0.100000,-0.100000)"
fill="#000000" stroke="none">
<path d="M4980 8910 c0 -5 -9 -10 -20 -10 -11 0 -29 -9 -40 -20 -11 -11 -27
-20 -35 -20 -9 0 -20 -11 -25 -25 -5 -14 -16 -25 -25 -25 -10 0 -17 -14 -21
-40 -5 -30 -11 -40 -25 -40 -13 0 -19 -7 -19 -23 0 -13 -9 -33 -20 -45 -11
-12 -20 -35 -20 -51 0 -20 -7 -34 -20 -41 -15 -8 -20 -21 -20 -50 0 -33 -3
-40 -20 -40 -15 0 -21 -9 -26 -40 -4 -22 -12 -40 -19 -40 -15 0 -25 -22 -25
-53 0 -12 -9 -28 -20 -35 -14 -8 -20 -23 -20 -46 0 -25 -5 -35 -20 -39 -15 -4
-20 -14 -20 -40 0 -26 -5 -36 -20 -40 -16 -4 -20 -14 -20 -46 0 -34 -3 -41
-20 -41 -17 0 -20 -7 -20 -39 0 -30 -4 -40 -20 -44 -14 -3 -20 -14 -20 -31 0
-14 -9 -35 -19 -45 -10 -10 -22 -34 -26 -52 -4 -19 -16 -45 -26 -58 -11 -13
-19 -33 -19 -45 0 -12 -9 -32 -20 -44 -12 -13 -20 -35 -20 -55 0 -26 -5 -36
-20 -40 -15 -4 -20 -14 -20 -42 0 -28 -5 -38 -20 -42 -16 -4 -20 -14 -20 -44
0 -32 -4 -39 -19 -39 -14 0 -21 -10 -25 -36 -4 -19 -16 -44 -27 -55 -10 -10
-19 -32 -19 -48 0 -20 -6 -30 -20 -34 -15 -4 -20 -14 -20 -40 0 -26 -5 -36
-20 -40 -15 -4 -20 -14 -20 -39 0 -22 -6 -37 -20 -46 -14 -8 -20 -23 -20 -46
0 -25 -5 -35 -20 -39 -15 -4 -20 -14 -20 -41 0 -24 -6 -38 -19 -45 -10 -6 -22
-26 -25 -46 -4 -19 -11 -35 -16 -35 -5 0 -14 -16 -21 -35 -13 -34 -15 -35 -65
-35 -95 0 -144 -11 -144 -31 0 -18 -10 -19 -141 -19 -131 0 -141 -1 -146 -19
-5 -18 -17 -20 -140 -23 -116 -3 -136 -5 -144 -20 -9 -16 -26 -18 -129 -18
-106 0 -120 -2 -132 -19 -12 -17 -29 -20 -145 -23 -109 -2 -134 -6 -145 -20
-11 -13 -35 -17 -134 -20 -99 -2 -126 -6 -141 -20 -15 -14 -38 -18 -104 -18
-115 0 -161 -9 -167 -32 -4 -16 -16 -18 -124 -18 -111 0 -120 -1 -125 -20 -4
-16 -14 -20 -44 -20 -32 0 -39 -3 -39 -20 0 -13 -7 -20 -20 -20 -10 0 -23 -7
-28 -16 -5 -8 -20 -21 -33 -27 -13 -7 -32 -29 -42 -50 -10 -20 -25 -37 -33
-37 -8 0 -14 -10 -14 -26 0 -14 -7 -32 -15 -40 -22 -23 -22 -462 0 -470 8 -4
15 -14 15 -23 0 -9 9 -22 20 -29 12 -7 20 -23 20 -38 0 -17 7 -28 20 -31 11
-3 20 -9 20 -14 0 -12 67 -79 79 -79 5 0 11 -9 14 -20 3 -11 12 -20 20 -20 8
0 17 -9 20 -20 3 -11 12 -20 21 -20 9 0 16 -8 16 -20 0 -13 7 -20 20 -20 13 0
20 -7 20 -20 0 -13 7 -20 20 -20 11 0 20 -5 20 -11 0 -15 65 -79 80 -79 5 0
10 -9 10 -20 0 -13 7 -20 20 -20 13 0 20 -7 20 -20 0 -13 7 -20 20 -20 13 0
20 -7 20 -20 0 -13 7 -20 20 -20 13 0 20 -7 20 -20 0 -13 7 -20 20 -20 11 0
20 -6 20 -13 0 -7 11 -23 25 -35 14 -12 25 -26 25 -32 0 -5 9 -10 20 -10 13 0
20 -7 20 -20 0 -13 7 -20 20 -20 13 0 20 -7 20 -20 0 -13 7 -20 20 -20 13 0
20 -7 20 -20 0 -13 7 -20 20 -20 13 0 20 -7 20 -19 0 -10 9 -21 20 -24 11 -3
20 -12 20 -20 0 -9 9 -18 19 -22 11 -3 23 -15 26 -26 4 -10 15 -19 26 -19 12
0 19 -7 19 -20 0 -13 7 -20 20 -20 13 0 20 -7 20 -20 0 -13 7 -20 20 -20 13 0
20 -7 20 -20 0 -13 7 -20 20 -20 13 0 20 -7 20 -19 0 -11 9 -23 20 -26 11 -3
20 -13 20 -22 0 -8 9 -17 20 -20 10 -3 22 -13 25 -23 3 -10 15 -20 25 -23 11
-3 20 -12 20 -21 0 -9 8 -16 20 -16 13 0 20 -7 20 -20 0 -13 7 -20 20 -20 13
0 20 -7 20 -20 0 -13 7 -20 20 -20 13 0 20 -7 20 -19 0 -11 9 -23 20 -26 11
-3 20 -13 20 -22 0 -8 9 -17 20 -20 11 -3 20 -12 20 -19 0 -8 11 -19 25 -24
14 -5 25 -16 25 -25 0 -8 9 -15 20 -15 13 0 20 -7 20 -20 0 -13 7 -20 20 -20
13 0 20 -7 20 -19 0 -10 9 -21 20 -24 18 -5 20 -14 20 -85 0 -71 -2 -80 -20
-85 -19 -5 -20 -14 -20 -131 0 -119 -1 -126 -20 -126 -19 0 -20 -7 -20 -119 0
-107 -2 -119 -18 -123 -23 -6 -32 -51 -32 -162 0 -63 -3 -81 -17 -92 -15 -10
-19 -32 -21 -128 -3 -87 -7 -116 -17 -116 -21 0 -25 -25 -25 -141 0 -86 -3
-109 -14 -109 -22 0 -26 -23 -26 -140 0 -99 -2 -108 -20 -113 -19 -5 -20 -14
-20 -125 0 -108 -2 -120 -19 -125 -16 -4 -19 -18 -23 -138 -2 -74 -2 -176 0
-227 4 -82 7 -92 23 -92 15 0 19 -8 19 -40 0 -33 3 -40 20 -40 14 0 20 -7 20
-24 0 -34 10 -56 25 -56 8 0 16 -9 20 -19 3 -11 16 -23 27 -27 12 -3 31 -15
42 -25 11 -11 28 -19 38 -19 10 0 18 -4 18 -10 0 -6 83 -10 230 -10 147 0 230
4 230 10 0 6 16 10 36 10 27 0 37 5 41 19 3 12 17 21 39 26 19 3 38 13 41 21
3 7 13 14 23 14 9 0 25 8 34 19 9 10 30 21 47 25 16 3 29 12 29 20 0 16 21 26
56 26 17 0 24 6 24 20 0 17 7 20 39 20 31 0 41 4 46 20 5 15 15 20 42 20 26 0
36 5 40 20 3 13 14 20 29 20 13 0 33 9 44 20 11 11 26 20 33 20 8 0 22 8 31
19 9 10 30 21 47 25 16 3 29 12 29 20 0 16 21 26 56 26 17 0 24 6 24 20 0 17
7 20 39 20 30 0 40 4 44 20 4 15 14 20 40 20 27 0 37 5 42 20 4 13 15 20 31
20 13 0 33 9 44 20 11 11 26 20 34 20 7 0 24 8 37 19 13 10 34 21 47 25 12 4
22 13 22 21 0 15 22 25 56 25 17 0 24 6 24 20 0 17 7 20 40 20 33 0 40 3 40
20 0 17 7 20 39 20 31 0 41 4 46 20 4 13 15 20 31 20 13 0 33 9 43 19 10 10
33 22 51 26 17 4 34 13 37 21 3 8 11 14 17 14 7 0 22 11 34 25 14 16 32 25 52
25 23 0 30 4 30 20 0 18 7 20 60 20 53 0 60 -2 60 -20 0 -16 7 -20 30 -20 20
0 38 -9 52 -25 12 -14 28 -25 35 -25 8 0 16 -6 19 -14 3 -8 19 -18 36 -21 16
-4 39 -16 49 -26 10 -10 29 -19 42 -19 12 0 28 -9 35 -20 8 -14 23 -20 47 -20
28 0 35 -4 35 -20 0 -17 7 -20 40 -20 33 0 40 -3 40 -20 0 -14 7 -20 24 -20
34 0 56 -10 56 -25 0 -8 10 -17 23 -21 12 -4 33 -15 46 -25 13 -11 30 -19 37
-19 8 0 23 -9 34 -20 11 -11 30 -20 43 -20 12 0 28 -9 35 -20 8 -13 23 -20 43
-20 22 0 32 -5 36 -20 4 -16 14 -20 44 -20 32 0 39 -3 39 -20 0 -14 7 -20 24
-20 35 0 56 -10 56 -26 0 -8 13 -17 29 -20 17 -4 38 -15 47 -25 9 -11 23 -19
31 -19 7 0 22 -9 33 -20 11 -11 31 -20 44 -20 15 0 26 -7 29 -20 4 -15 14 -20
40 -20 27 0 37 -5 42 -20 5 -16 15 -20 46 -20 32 0 39 -3 39 -20 0 -14 7 -20
24 -20 35 0 56 -10 56 -26 0 -8 13 -17 29 -20 17 -4 38 -15 47 -25 9 -11 25
-19 34 -19 10 0 20 -7 23 -14 3 -8 22 -18 41 -21 22 -5 36 -14 39 -26 4 -14
14 -19 41 -19 20 0 36 -4 36 -10 0 -6 83 -10 230 -10 147 0 230 4 230 10 0 6
8 10 18 10 10 0 28 9 40 20 12 11 28 20 37 20 8 0 21 11 27 25 6 14 17 25 24
25 14 0 24 22 24 56 0 17 6 24 20 24 17 0 20 7 20 40 0 32 4 40 19 40 23 0 31
50 31 204 0 173 -9 248 -32 254 -16 4 -18 16 -18 124 0 111 -1 120 -20 125
-18 5 -20 14 -20 113 0 117 -4 140 -26 140 -11 0 -14 23 -14 109 0 118 -4 141
-26 141 -11 0 -14 20 -14 94 0 109 -8 156 -25 156 -9 0 -14 31 -17 116 -3 96
-6 118 -21 128 -12 10 -17 27 -17 62 0 27 -3 79 -7 117 -5 56 -9 67 -24 67
-18 0 -19 10 -19 126 0 117 -1 126 -20 131 -18 5 -20 14 -20 85 0 71 2 80 20
85 11 3 20 14 20 24 0 12 7 19 20 19 13 0 20 7 20 20 0 13 7 20 19 20 11 0 22
9 26 19 3 10 15 21 25 24 11 3 20 12 20 20 0 8 9 17 20 20 11 3 20 12 20 20 0
9 9 19 20 22 11 3 20 15 20 26 0 12 7 19 20 19 13 0 20 7 20 20 0 13 7 20 20
20 13 0 20 7 20 20 0 13 7 20 20 20 11 0 20 7 20 15 0 9 11 20 25 25 14 5 25
16 25 24 0 7 9 16 20 19 11 3 20 12 20 20 0 9 9 19 20 22 11 3 20 15 20 26 0
12 7 19 20 19 13 0 20 7 20 20 0 13 7 20 20 20 13 0 20 7 20 20 0 13 7 20 20
20 12 0 20 7 20 16 0 9 9 18 20 21 10 3 22 14 25 24 4 10 13 19 21 19 8 0 19
11 24 25 5 14 16 25 25 25 8 0 15 9 15 20 0 13 7 20 20 20 13 0 20 7 20 20 0
13 7 20 20 20 13 0 20 7 20 20 0 13 7 20 20 20 12 0 20 7 20 16 0 9 9 18 20
21 11 3 20 9 20 14 0 5 11 19 25 31 14 12 25 28 25 35 0 7 9 13 20 13 13 0 20
7 20 20 0 13 7 20 20 20 13 0 20 7 20 20 0 13 7 20 20 20 13 0 20 7 20 20 0
13 7 20 20 20 13 0 20 7 20 20 0 11 6 20 13 20 15 0 77 63 77 79 0 6 9 11 20
11 13 0 20 7 20 20 0 13 7 20 20 20 13 0 20 7 20 20 0 12 7 20 16 20 9 0 18 9
21 20 3 11 12 20 20 20 8 0 17 9 20 20 3 11 10 20 16 20 12 0 77 65 77 78 0 5
9 12 20 15 13 3 20 14 20 31 0 15 8 31 20 38 11 7 20 20 20 29 0 9 7 19 15 23
13 4 15 40 15 230 0 186 -3 227 -15 240 -8 8 -15 26 -15 39 0 16 -7 26 -18 30
-11 2 -21 17 -25 34 -4 22 -16 35 -41 47 -20 9 -36 21 -36 27 0 5 -11 14 -25
19 -14 5 -25 16 -25 25 0 11 -11 15 -39 15 -30 0 -40 4 -44 20 -5 19 -14 20
-125 20 -108 0 -120 2 -124 18 -6 23 -52 32 -170 32 -49 0 -88 4 -88 10 0 17
-74 30 -174 30 -83 0 -101 3 -112 18 -10 14 -33 18 -145 20 -118 3 -135 6
-147 23 -12 17 -26 19 -132 19 -103 0 -120 2 -129 18 -8 15 -28 17 -144 20
-123 3 -135 5 -140 23 -5 18 -15 19 -146 19 -131 0 -141 1 -141 19 0 20 -49
31 -146 31 -33 0 -54 4 -54 11 0 6 -9 24 -20 39 -11 16 -23 43 -26 60 -4 17
-15 37 -25 43 -13 8 -19 23 -19 45 0 25 -5 35 -20 39 -16 4 -20 14 -20 43 0
30 -5 40 -20 45 -15 5 -20 15 -20 42 0 26 -5 36 -20 40 -15 4 -20 14 -20 40 0
26 -5 36 -20 40 -15 4 -20 14 -20 39 0 21 -7 38 -18 46 -11 7 -22 30 -26 51
-5 28 -12 37 -26 37 -16 0 -20 7 -20 39 0 30 -4 40 -20 44 -15 4 -20 14 -20
42 0 28 -5 38 -20 42 -15 4 -20 14 -20 40 0 20 -8 42 -20 55 -11 12 -20 32
-20 44 0 12 -9 32 -19 46 -11 13 -22 41 -26 61 -4 20 -13 37 -20 37 -8 0 -16
18 -20 41 -5 29 -13 43 -26 46 -15 4 -19 14 -19 44 0 32 -3 39 -20 39 -17 0
-20 7 -20 41 0 32 -4 42 -20 46 -15 4 -20 14 -20 40 0 26 -5 36 -20 40 -16 4
-20 14 -20 43 0 30 -5 40 -20 45 -13 4 -20 15 -20 30 0 33 -10 55 -25 55 -7 0
-15 18 -19 40 -5 31 -11 40 -26 40 -17 0 -20 7 -20 40 0 29 -5 42 -20 50 -14
7 -20 21 -20 44 0 20 -8 40 -20 51 -11 10 -20 29 -20 42 0 16 -6 23 -19 23
-14 0 -20 10 -25 40 -4 26 -11 40 -21 40 -9 0 -20 11 -25 25 -5 14 -16 25 -25
25 -8 0 -24 9 -35 20 -11 11 -29 20 -40 20 -11 0 -20 5 -20 10 0 6 -83 10
-230 10 -147 0 -230 -4 -230 -10z"/>
</g>
</svg>
