<?xml version="1.0" standalone="no"?>
<!DOCTYPE svg PUBLIC "-//W3C//DTD SVG 20010904//EN"
 "http://www.w3.org/TR/2001/REC-SVG-20010904/DTD/svg10.dtd">
<svg version="1.0" xmlns="http://www.w3.org/2000/svg"
 width="1042.000000pt" height="1042.000000pt" viewBox="0 0 1042.000000 1042.000000"
 preserveAspectRatio="xMidYMid meet">
<metadata>
Created by potrace 1.16, written by Peter Selinger 2001-2019
</metadata>
<g transform="translate(0.000000,1042.000000) scale(0.100000,-0.100000)"
fill="#000000" stroke="none">
<path d="M4110 8950 c-13 -11 -27 -20 -32 -20 -4 0 -8 -7 -8 -15 0 -10 -10
-15 -29 -15 -20 0 -32 -6 -36 -18 -6 -22 -125 -72 -168 -72 -17 0 -32 9 -43
25 -11 17 -25 25 -44 25 -38 0 -60 -9 -60 -25 0 -7 -9 -15 -20 -18 -12 -3 -20
-14 -20 -26 0 -36 -69 -65 -119 -50 -9 2 -24 -13 -39 -40 -32 -57 -112 -97
-187 -93 -27 1 -54 -1 -60 -5 -14 -11 -35 -50 -35 -65 0 -7 -31 -46 -69 -85
-51 -55 -75 -73 -95 -73 -38 0 -62 -30 -69 -87 -3 -28 -24 -90 -45 -139 -22
-49 -43 -105 -47 -124 -11 -50 -29 -81 -65 -110 -72 -56 -90 -85 -90 -146 0
-24 5 -34 15 -34 8 0 24 -9 35 -20 18 -18 20 -33 20 -186 0 -91 -4 -174 -10
-184 -5 -10 -21 -21 -36 -24 -24 -6 -25 -10 -19 -43 8 -46 31 -76 74 -99 34
-19 61 -64 61 -103 0 -10 18 -42 39 -71 28 -37 46 -77 61 -133 19 -68 29 -87
61 -117 21 -19 39 -40 39 -47 0 -13 23 -23 56 -23 19 0 24 -5 24 -24 0 -47 53
-75 65 -36 3 11 13 20 21 20 21 0 56 -39 52 -58 -4 -20 48 -72 73 -72 10 0 20
9 24 19 3 11 16 23 27 27 27 8 61 -29 53 -57 -4 -12 -1 -21 9 -25 9 -3 16 -12
16 -19 0 -7 7 -15 15 -19 9 -3 15 0 15 9 0 25 38 55 69 55 15 0 55 -13 87 -30
32 -16 69 -30 80 -30 12 0 75 12 140 26 66 14 131 28 147 31 31 6 55 -10 68
-44 7 -19 16 -23 53 -23 59 0 95 17 102 49 3 14 8 34 11 45 11 39 159 79 216
57 17 -7 32 -23 39 -42 8 -25 15 -30 32 -25 11 3 24 6 29 6 4 0 7 6 7 14 0 7
9 16 19 19 14 3 18 11 15 25 -9 33 35 57 144 77 117 21 150 16 165 -25 9 -23
18 -30 39 -30 18 0 29 6 33 20 3 11 11 20 17 20 6 0 8 9 5 20 -4 15 2 25 19
37 31 20 188 63 232 63 36 0 72 -29 72 -60 0 -15 7 -20 28 -20 37 0 52 17 52
56 0 28 5 34 40 48 21 8 94 25 160 38 139 25 167 21 189 -30 14 -32 15 -32 80
-31 36 1 79 4 96 8 27 6 30 9 27 41 -3 33 0 37 35 54 26 12 86 22 188 31 83 8
174 17 202 21 61 8 99 -10 105 -48 l3 -23 215 4 c118 2 222 7 231 12 11 5 14
17 11 38 -2 17 -2 31 1 31 2 0 29 5 58 10 96 19 256 28 336 19 95 -10 133 -25
133 -50 0 -14 7 -19 29 -19 39 0 61 9 61 26 0 10 15 14 59 14 33 0 63 4 66 10
3 5 9 57 12 114 6 100 5 104 -16 111 -12 3 -30 23 -41 43 -10 20 -44 64 -75
97 -158 170 -270 285 -278 285 -4 0 -83 60 -175 133 -92 74 -190 149 -219 167
-29 19 -58 47 -64 63 -14 33 -51 63 -134 106 -71 37 -153 95 -189 134 -14 15
-36 27 -50 27 -40 0 -77 39 -79 85 -2 31 -7 41 -22 43 -11 2 -24 8 -30 13 -6
6 -16 1 -26 -13 -15 -19 -20 -21 -43 -10 -22 10 -26 18 -26 52 0 38 -2 40 -30
40 -17 0 -44 -10 -59 -21 -52 -38 -109 1 -112 76 0 17 -3 24 -6 18 -2 -7 -22
-17 -44 -23 -44 -12 -90 5 -108 39 -8 14 -25 20 -71 23 -76 5 -108 31 -112 92
l-3 41 -52 3 c-42 2 -56 -1 -73 -18 -37 -37 -110 -4 -110 49 0 40 -11 49 -67
57 -41 5 -55 3 -68 -10 -9 -9 -25 -16 -36 -16 -23 0 -59 34 -59 55 0 8 -7 15
-15 15 -8 0 -15 6 -15 14 0 17 -22 26 -64 26 -25 0 -35 -6 -44 -25 -17 -36
-60 -37 -161 -2 -44 16 -66 29 -72 45 -5 12 -15 22 -23 22 -7 0 -16 7 -20 15
-3 8 -12 15 -20 15 -8 0 -19 8 -25 17 -8 15 -28 18 -125 21 l-115 4 -3 -38
c-4 -50 -31 -64 -121 -64 -94 0 -127 18 -127 73 l0 27 -108 0 c-95 0 -112 -3
-132 -20z"/>
<path d="M1723 6430 c-20 -8 -23 -17 -23 -61 0 -33 -7 -63 -19 -83 -10 -17
-22 -55 -26 -83 -10 -74 -41 -117 -87 -121 -44 -4 -56 -25 -23 -40 28 -13 41
-63 30 -119 -10 -56 -53 -143 -71 -143 -8 0 -26 -11 -39 -25 -20 -19 -25 -34
-25 -73 0 -42 3 -50 24 -60 34 -15 39 -54 22 -163 -22 -133 -43 -199 -64 -199
-9 0 -29 -11 -44 -25 -15 -14 -32 -25 -38 -25 -5 0 -10 -11 -10 -24 0 -20 6
-24 40 -30 62 -10 66 -25 52 -229 -15 -207 -15 -480 -2 -676 12 -169 7 -188
-55 -207 -22 -6 -34 -12 -26 -13 20 -1 61 -49 61 -71 0 -10 9 -21 19 -25 30
-9 81 -196 81 -296 0 -45 -3 -52 -30 -67 -49 -28 -39 -74 20 -89 28 -7 39 -18
57 -53 40 -85 38 -161 -6 -175 -12 -3 -21 -13 -21 -21 0 -22 37 -54 63 -54 36
0 56 -30 69 -101 9 -47 20 -74 44 -102 17 -21 39 -64 48 -95 9 -32 41 -98 72
-147 30 -48 65 -107 76 -129 11 -23 27 -45 34 -49 35 -20 143 -196 174 -280 7
-19 24 -34 52 -47 47 -21 85 -57 145 -140 38 -52 104 -117 172 -168 23 -18 31
-32 31 -55 0 -41 33 -66 56 -42 38 38 96 8 98 -51 2 -33 5 -40 25 -42 13 -2
39 4 58 15 31 16 36 16 61 3 15 -9 28 -26 30 -38 2 -12 10 -22 19 -22 9 0 21
-7 28 -16 14 -20 84 -33 181 -33 66 -1 72 1 82 24 24 53 122 52 142 -1 8 -21
16 -24 58 -24 27 0 77 3 112 7 49 5 64 10 68 25 2 11 13 18 28 18 17 0 24 6
24 19 0 26 46 61 81 61 16 0 37 -9 48 -21 15 -16 27 -20 45 -15 22 5 26 12 26
43 0 57 38 77 94 48 36 -19 42 -15 49 33 9 52 40 78 112 92 33 7 66 17 73 23
8 6 33 52 57 102 41 86 58 109 119 164 14 13 26 31 26 40 0 9 9 34 20 55 10
22 29 75 40 120 21 85 40 113 79 119 32 5 39 26 40 115 1 41 5 72 11 72 6 0
10 13 10 29 0 17 -4 33 -10 36 -5 3 -10 34 -10 68 0 60 -1 62 -49 107 -40 38
-53 58 -70 115 -12 39 -39 99 -61 135 -44 74 -55 99 -69 155 -9 33 -19 45 -56
65 -31 17 -61 47 -97 98 -29 41 -75 93 -102 115 -28 23 -64 58 -81 77 -16 19
-54 59 -83 90 -30 30 -66 71 -80 90 -15 19 -40 51 -57 71 -66 78 -74 89 -90
118 -9 19 -35 41 -65 56 -39 20 -60 41 -101 103 -31 46 -113 138 -203 227
-117 116 -162 168 -198 231 -28 47 -57 85 -72 92 -32 14 -101 108 -133 180
-14 32 -38 71 -53 87 -46 49 -130 196 -130 226 0 55 -15 76 -61 83 -23 4 -53
15 -66 26 -40 31 -162 210 -174 254 -6 23 -24 56 -40 74 -16 18 -35 48 -43 66
-8 19 -30 51 -48 72 -45 51 -105 159 -113 207 -5 23 -18 46 -37 62 -34 29 -58
71 -58 103 0 12 -12 54 -27 92 l-27 70 -96 -1 c-52 0 -105 -4 -117 -9z"/>
<path d="M7479 5853 c-16 -2 -29 -12 -32 -24 -3 -10 -12 -19 -21 -19 -8 0 -27
-20 -42 -45 -21 -37 -31 -45 -55 -45 -22 0 -32 7 -41 25 -6 14 -14 25 -17 25
-16 -1 -30 -18 -36 -45 -14 -65 -26 -80 -99 -122 -82 -48 -105 -53 -113 -23
-8 31 -27 19 -37 -23 -8 -31 -14 -37 -36 -37 -33 0 -50 -17 -50 -51 0 -21 -6
-28 -30 -32 -25 -5 -30 -11 -30 -34 -1 -50 -58 -195 -91 -229 -27 -28 -32 -42
-40 -109 -10 -91 -16 -111 -42 -146 -12 -17 -24 -59 -32 -112 -10 -68 -19 -93
-43 -124 -24 -30 -32 -55 -41 -118 -8 -53 -20 -92 -35 -115 -19 -27 -25 -53
-29 -116 -7 -120 -53 -206 -105 -196 -18 4 -70 -50 -53 -56 27 -9 51 -43 51
-72 0 -67 -21 -127 -56 -160 -29 -29 -34 -40 -34 -81 0 -35 -6 -55 -24 -76
-33 -40 -43 -62 -51 -113 -4 -25 -17 -72 -29 -105 -13 -33 -31 -82 -41 -109
-10 -28 -33 -65 -52 -83 -22 -22 -33 -43 -33 -62 0 -38 -25 -119 -44 -140 -17
-19 -70 -139 -98 -226 -34 -104 -38 -111 -77 -152 -29 -30 -39 -50 -44 -88 -4
-27 -19 -66 -33 -86 -14 -20 -31 -60 -39 -89 -8 -29 -25 -65 -39 -79 -14 -15
-34 -53 -45 -84 -11 -32 -30 -71 -42 -88 -12 -17 -26 -49 -31 -71 -12 -57 -87
-157 -148 -197 -28 -19 -53 -45 -56 -58 -6 -22 -13 -25 -59 -27 -23 -2 -33
-31 -34 -106 0 -76 14 -141 33 -152 9 -5 16 -16 16 -23 0 -21 265 -22 273 -2
8 21 119 59 173 59 50 1 74 -17 74 -54 0 -25 35 -23 62 4 15 15 21 32 19 53
-2 27 3 33 34 48 47 23 70 21 94 -4 18 -19 27 -21 77 -15 60 7 74 17 99 72 27
60 107 89 163 60 18 -9 32 -23 32 -32 0 -26 18 -6 25 29 13 60 65 88 95 52 15
-18 96 -20 106 -3 5 7 7 27 5 44 -3 42 41 79 104 88 27 5 65 21 91 39 36 25
55 31 96 32 47 0 53 -2 59 -25 7 -24 7 -25 14 -3 4 12 17 24 29 27 41 10 64
39 64 79 0 48 15 65 68 78 30 8 51 22 70 46 30 40 131 92 189 97 36 3 42 8 58
45 20 46 72 89 152 127 61 29 82 30 90 4 8 -25 25 -26 32 -1 3 12 17 21 40 26
33 6 35 8 29 39 -10 52 11 87 96 161 44 39 106 104 137 145 37 49 70 81 95 93
20 10 45 32 54 49 48 89 256 328 285 328 34 0 60 36 68 96 5 36 24 91 48 139
60 121 141 300 141 310 0 6 11 31 25 57 14 26 36 92 49 146 26 107 48 160 72
169 20 7 21 583 1 583 -24 0 -50 62 -57 136 -6 65 -11 78 -40 106 -32 33 -124
211 -136 265 -9 40 -33 93 -43 93 -13 0 -71 56 -71 68 0 6 -17 12 -37 14 -35
3 -38 6 -43 38 -5 30 -6 32 -12 13 -8 -31 -32 -38 -77 -24 -42 12 -61 42 -61
96 0 29 -4 36 -26 41 -19 5 -29 1 -40 -15 -30 -43 -93 -8 -80 45 4 15 2 32 -5
40 -13 16 -95 19 -104 4 -8 -13 -55 18 -55 36 0 8 -8 14 -19 14 -10 0 -25 9
-32 20 -9 13 -31 21 -64 26 -49 6 -50 5 -62 -25 -8 -22 -18 -31 -35 -31 -109
-2 -207 -2 -226 -1 -16 1 -26 10 -33 31 -11 30 -15 31 -70 23z"/>
</g>
</svg>
