<?xml version="1.0" standalone="no"?>
<!DOCTYPE svg PUBLIC "-//W3C//DTD SVG 20010904//EN"
 "http://www.w3.org/TR/2001/REC-SVG-20010904/DTD/svg10.dtd">
<svg version="1.0" xmlns="http://www.w3.org/2000/svg"
 width="1042.000000pt" height="1042.000000pt" viewBox="0 0 1042.000000 1042.000000"
 preserveAspectRatio="xMidYMid meet">
<metadata>
Created by potrace 1.16, written by Peter Selinger 2001-2019
</metadata>
<g transform="translate(0.000000,1042.000000) scale(0.100000,-0.100000)"
fill="#000000" stroke="none">
<path d="M4183 9244 c-85 -19 -344 -353 -467 -600 -115 -232 -149 -388 -150
-684 0 -163 4 -212 22 -296 43 -200 117 -373 233 -546 117 -173 317 -390 374
-404 36 -9 317 16 741 67 l331 39 189 121 c195 125 273 169 298 169 8 0 16
-14 20 -33 12 -66 271 -863 433 -1336 103 -300 208 -571 407 -1056 36 -88 61
-161 56 -163 -5 -2 -85 30 -178 71 -347 155 -420 172 -737 172 -295 0 -338
-10 -648 -158 -74 -36 -144 -68 -154 -71 -14 -4 -37 23 -115 137 -174 256
-333 426 -543 584 -284 213 -564 325 -885 352 -133 12 -520 6 -625 -9 -182
-26 -421 -95 -680 -197 -171 -67 -409 -183 -453 -220 l-33 -28 -9 -150 c-30
-506 -39 -2522 -11 -2589 32 -80 259 -246 506 -372 335 -172 603 -234 1003
-234 356 0 651 49 1039 172 l161 51 154 -55 c346 -126 763 -226 1163 -280 153
-20 210 -23 565 -23 327 0 418 3 530 18 409 55 763 146 1125 288 462 180 1165
597 1241 735 12 22 29 68 37 104 35 142 39 230 34 742 -4 545 -8 588 -72 883
-262 1208 -804 2267 -1637 3200 -769 861 -1777 1426 -2808 1575 -132 20 -413
34 -457 24z m-847 -4439 c222 -36 581 -169 661 -244 72 -68 35 -216 -65 -258
-47 -20 -110 -5 -298 67 -376 147 -531 161 -825 74 -227 -67 -262 -75 -312
-71 -93 8 -140 70 -135 174 5 76 30 108 117 147 74 33 273 90 381 109 113 20
359 21 476 2z"/>
</g>
</svg>
