<?xml version="1.0" standalone="no"?>
<!DOCTYPE svg PUBLIC "-//W3C//DTD SVG 20010904//EN"
 "http://www.w3.org/TR/2001/REC-SVG-20010904/DTD/svg10.dtd">
<svg version="1.0" xmlns="http://www.w3.org/2000/svg"
 width="1042.000000pt" height="1042.000000pt" viewBox="0 0 1042.000000 1042.000000"
 preserveAspectRatio="xMidYMid meet">
<metadata>
Created by potrace 1.16, written by Peter Selinger 2001-2019
</metadata>
<g transform="translate(0.000000,1042.000000) scale(0.100000,-0.100000)"
fill="#000000" stroke="none">
<path d="M4814 8955 c-4 -9 -19 -15 -41 -15 -26 0 -36 -5 -40 -20 -4 -15 -14
-20 -40 -20 -26 0 -36 -5 -40 -20 -4 -15 -14 -20 -39 -20 -23 0 -38 -6 -46
-20 -7 -11 -23 -20 -35 -20 -31 0 -53 -10 -53 -25 0 -8 -9 -17 -20 -20 -11 -3
-20 -15 -20 -25 0 -9 -9 -20 -20 -23 -18 -5 -20 -14 -20 -81 0 -69 2 -76 20
-76 14 0 20 -7 20 -24 0 -35 10 -56 26 -56 8 0 14 -10 14 -25 0 -18 5 -25 20
-25 14 0 20 -7 20 -24 0 -35 10 -56 26 -56 8 0 14 -9 14 -21 0 -12 8 -23 19
-26 13 -3 21 -17 25 -44 4 -25 12 -39 21 -39 9 0 18 -13 22 -31 3 -17 14 -36
24 -42 11 -7 19 -19 19 -27 0 -8 9 -21 20 -28 13 -8 20 -23 20 -43 0 -16 9
-39 20 -51 11 -12 20 -34 20 -50 0 -15 9 -37 20 -48 11 -11 20 -33 20 -50 0
-19 7 -34 20 -42 12 -8 20 -24 20 -39 0 -48 12 -89 26 -89 9 0 14 -12 14 -32
1 -51 17 -111 34 -124 12 -9 16 -31 16 -93 0 -74 2 -81 20 -81 19 0 20 -7 20
-101 0 -92 2 -101 20 -106 16 -4 20 -14 20 -45 0 -31 4 -41 19 -45 11 -3 21
-13 24 -24 5 -18 16 -19 156 -19 149 0 151 0 173 25 12 14 28 25 35 25 10 0
13 58 13 300 0 289 -1 300 -20 312 -18 12 -20 24 -20 151 0 128 -1 139 -19
144 -17 4 -20 16 -23 115 -2 86 -6 112 -19 121 -11 9 -17 34 -21 91 -4 59 -9
81 -22 88 -10 6 -16 22 -16 46 0 52 -18 109 -35 116 -11 4 -15 22 -15 67 0 52
-3 62 -20 66 -16 4 -20 14 -20 48 0 53 -8 75 -26 75 -10 0 -14 13 -14 45 0 30
-6 51 -18 63 -10 10 -21 26 -25 35 -6 15 -25 17 -147 17 -116 0 -142 -3 -146
-15z"/>
<path d="M6893 8881 c-10 -16 -27 -20 -98 -22 -69 -3 -88 -7 -96 -21 -6 -11
-22 -18 -38 -18 -49 0 -91 -12 -91 -26 0 -8 -10 -14 -22 -14 -38 0 -68 -12
-68 -26 0 -7 -16 -16 -37 -20 -21 -4 -44 -15 -51 -26 -8 -11 -25 -18 -44 -18
-21 0 -31 -6 -35 -20 -4 -15 -14 -20 -40 -20 -26 0 -36 -5 -40 -20 -3 -11 -14
-20 -24 -20 -11 0 -19 -4 -19 -9 0 -5 -18 -17 -40 -27 -22 -10 -40 -23 -40
-29 0 -7 -11 -17 -25 -23 -14 -6 -25 -18 -25 -27 0 -8 -9 -15 -20 -15 -13 0
-20 -7 -20 -20 0 -13 -7 -20 -20 -20 -13 0 -20 -7 -20 -20 0 -13 -7 -20 -20
-20 -13 0 -20 -7 -20 -20 0 -11 -7 -20 -15 -20 -9 0 -20 -11 -25 -25 -5 -14
-16 -25 -24 -25 -9 0 -17 -15 -21 -40 -5 -30 -11 -40 -26 -40 -11 0 -19 -7
-19 -18 0 -9 -9 -23 -20 -30 -12 -7 -20 -23 -20 -41 0 -20 -6 -30 -20 -34 -16
-4 -20 -14 -20 -46 0 -34 -3 -41 -20 -41 -16 0 -20 -7 -20 -38 0 -26 -6 -41
-19 -49 -13 -8 -21 -29 -25 -67 -5 -36 -12 -56 -20 -56 -13 0 -25 -48 -26
-100 0 -14 -9 -36 -20 -50 -15 -20 -20 -41 -20 -102 0 -62 -3 -79 -17 -86 -12
-7 -18 -27 -21 -76 -5 -76 3 -116 22 -116 8 0 17 -11 20 -25 l6 -25 135 0
c124 0 135 2 145 20 9 17 21 20 86 20 67 0 76 2 81 20 5 17 14 20 64 20 48 0
60 4 69 20 6 11 21 20 34 20 44 0 86 12 86 25 0 15 22 25 57 25 16 0 27 7 30
20 4 16 14 20 44 20 32 0 39 3 39 20 0 16 7 20 36 20 27 0 37 5 41 20 3 11 14
20 25 20 11 0 22 8 25 19 3 12 17 21 38 25 21 4 36 14 40 26 4 11 15 20 26 20
12 0 19 7 19 20 0 13 7 20 20 20 13 0 20 7 20 20 0 13 7 20 20 20 12 0 20 7
20 16 0 9 9 18 20 21 11 3 20 9 20 14 0 5 11 19 25 31 14 12 25 27 25 34 0 6
7 14 14 17 8 3 18 22 22 41 4 26 11 36 25 36 12 0 19 7 19 18 0 10 9 25 20 35
11 9 20 28 20 41 0 16 7 27 19 31 13 4 22 19 26 45 4 23 12 40 20 40 13 0 25
42 25 86 0 13 9 28 20 34 15 8 20 21 20 50 0 27 4 40 14 40 18 0 26 31 26 101
0 48 3 57 20 62 18 5 20 14 20 90 0 94 5 117 26 117 11 0 14 18 14 79 0 69 -2
80 -19 86 -10 3 -21 15 -24 25 -5 19 -14 20 -144 20 -125 0 -139 -2 -150 -19z"/>
<path d="M6357 7250 c-5 -19 -14 -20 -161 -20 -145 0 -156 -1 -166 -20 -9 -17
-21 -20 -75 -20 -72 0 -95 -6 -95 -26 0 -10 -15 -14 -54 -14 -42 0 -58 -4 -68
-18 -8 -12 -30 -21 -62 -24 -28 -3 -55 -12 -60 -20 -6 -8 -28 -18 -49 -22 -21
-4 -40 -13 -43 -21 -3 -7 -23 -16 -45 -20 -29 -5 -39 -11 -39 -26 0 -15 -7
-19 -39 -19 -31 0 -41 -4 -46 -20 -5 -15 -15 -20 -42 -20 -26 0 -36 -5 -40
-20 -5 -17 -14 -20 -69 -20 -51 0 -68 4 -84 20 -13 13 -33 20 -60 20 -33 0
-40 3 -40 20 0 17 -7 20 -40 20 -33 0 -40 4 -40 19 0 21 -19 31 -56 31 -14 0
-24 6 -24 14 0 17 -22 26 -61 26 -18 0 -29 5 -29 14 0 18 -22 26 -75 26 -34 0
-44 4 -48 20 -4 17 -14 20 -66 20 -54 0 -61 2 -61 20 0 18 -7 20 -79 20 -71 0
-80 2 -86 20 -6 20 -15 20 -417 20 -401 0 -410 0 -415 -20 -5 -18 -14 -20 -80
-20 -66 0 -75 -2 -80 -20 -4 -16 -14 -20 -49 -20 -31 0 -50 -6 -64 -20 -11
-11 -28 -20 -37 -20 -33 0 -63 -12 -63 -25 0 -7 -16 -16 -36 -19 -19 -4 -37
-13 -40 -21 -3 -7 -16 -16 -30 -19 -15 -4 -24 -14 -24 -26 0 -16 -7 -20 -36
-20 -27 0 -37 -5 -41 -20 -3 -11 -14 -20 -23 -20 -10 0 -22 -9 -25 -20 -3 -11
-13 -20 -20 -20 -8 0 -19 -9 -25 -19 -5 -11 -23 -22 -40 -26 -16 -4 -30 -13
-30 -21 0 -8 -11 -19 -25 -24 -14 -5 -25 -16 -25 -25 0 -8 -7 -15 -16 -15 -9
0 -18 -9 -21 -20 -3 -11 -12 -20 -19 -20 -8 0 -18 -8 -21 -17 -4 -10 -17 -31
-30 -46 -13 -16 -23 -35 -23 -43 0 -8 -7 -14 -16 -14 -9 0 -18 -9 -21 -20 -3
-10 -14 -22 -24 -25 -10 -4 -19 -15 -19 -25 0 -9 -9 -20 -20 -23 -15 -4 -20
-14 -20 -41 0 -29 -4 -36 -20 -36 -13 0 -20 -7 -20 -20 0 -10 -9 -24 -20 -30
-10 -6 -22 -26 -26 -45 -3 -19 -12 -35 -19 -35 -15 0 -25 -22 -25 -55 0 -14
-7 -25 -20 -28 -15 -4 -20 -14 -20 -40 0 -26 -5 -36 -20 -40 -16 -4 -20 -14
-20 -45 0 -31 -4 -41 -20 -45 -17 -4 -20 -14 -20 -61 0 -48 -3 -56 -19 -56
-15 0 -19 -10 -24 -57 -4 -38 -12 -62 -23 -70 -12 -9 -19 -32 -22 -70 -3 -37
-11 -62 -21 -70 -12 -9 -17 -33 -19 -102 -2 -50 -8 -91 -13 -91 -5 0 -9 -218
-9 -520 0 -340 3 -520 10 -520 6 0 10 -36 10 -89 0 -98 5 -121 26 -121 10 0
14 -16 14 -63 0 -66 13 -127 30 -137 5 -3 13 -34 16 -68 6 -51 10 -62 25 -62
17 0 19 -8 19 -65 0 -52 4 -69 20 -85 13 -13 20 -33 20 -59 0 -23 8 -48 20
-64 12 -15 20 -40 20 -62 0 -28 5 -38 20 -42 15 -4 20 -14 20 -42 0 -51 10
-81 26 -81 8 0 14 -10 14 -22 0 -38 12 -68 25 -68 16 0 25 -22 25 -61 0 -17 8
-36 20 -46 13 -11 20 -30 20 -51 0 -25 5 -35 20 -39 15 -4 20 -14 20 -39 0
-21 7 -38 18 -46 11 -7 22 -30 26 -50 4 -22 13 -38 20 -38 8 0 17 -16 20 -36
4 -19 13 -37 21 -40 7 -3 16 -16 19 -30 4 -15 14 -24 26 -24 17 0 20 -7 20
-40 0 -33 3 -40 20 -40 16 0 20 -7 20 -36 0 -27 5 -37 20 -41 11 -3 20 -14 20
-25 0 -11 9 -22 20 -25 13 -3 20 -14 20 -28 0 -34 10 -55 26 -55 8 0 14 -7 14
-16 0 -9 9 -18 19 -21 13 -3 22 -17 26 -44 5 -29 11 -39 26 -39 13 0 19 -7 19
-21 0 -12 8 -23 20 -26 11 -3 20 -13 20 -23 0 -10 9 -20 20 -23 12 -3 20 -14
20 -25 0 -31 11 -52 26 -52 8 0 14 -7 14 -16 0 -9 9 -18 20 -21 11 -3 20 -11
20 -19 0 -7 9 -18 19 -24 11 -5 23 -19 26 -30 3 -11 15 -20 26 -20 12 0 19 -7
19 -20 0 -13 7 -20 20 -20 13 0 20 -7 20 -20 0 -13 7 -20 20 -20 13 0 20 -7
20 -20 0 -13 7 -20 20 -20 13 0 20 -7 20 -20 0 -13 7 -20 20 -20 13 0 20 -7
20 -18 0 -11 11 -24 25 -30 14 -6 25 -18 25 -27 0 -8 8 -15 19 -15 10 0 21 -9
24 -20 3 -11 12 -20 20 -20 8 0 17 -9 20 -20 3 -11 12 -20 21 -20 9 0 25 -9
36 -20 11 -11 28 -20 39 -20 10 0 21 -9 24 -20 3 -12 14 -20 25 -20 12 0 23
-9 27 -19 3 -12 19 -21 40 -25 20 -4 35 -13 35 -20 0 -16 22 -26 55 -26 14 0
25 -7 28 -20 4 -16 14 -20 45 -20 31 0 41 -4 45 -20 4 -17 14 -20 61 -20 31 0
56 -4 56 -10 0 -6 112 -10 315 -10 203 0 315 4 315 10 0 6 20 10 44 10 54 0
76 8 76 26 0 8 10 14 24 14 35 0 56 10 56 26 0 8 9 14 21 14 12 0 23 8 26 19
3 13 17 22 44 26 22 4 39 12 39 20 0 15 22 25 55 25 15 0 26 7 30 20 6 19 15
20 125 20 106 0 118 -2 123 -19 3 -12 17 -20 46 -25 23 -3 41 -12 41 -19 0 -7
12 -18 28 -24 42 -18 86 -46 100 -65 8 -11 26 -18 46 -18 25 0 35 -5 39 -20 4
-17 14 -20 61 -20 31 0 56 -4 56 -10 0 -6 105 -10 295 -10 190 0 295 4 295 10
0 6 27 10 60 10 53 0 60 2 60 20 0 16 7 20 38 20 51 0 82 10 82 25 0 7 16 16
36 19 19 4 37 13 40 21 3 7 16 16 30 19 13 4 24 13 24 20 0 16 21 26 56 26 17
0 24 6 24 20 0 14 7 20 21 20 12 0 23 8 26 20 3 13 14 20 29 20 13 0 31 8 41
18 10 11 26 22 36 25 9 4 17 13 17 21 0 7 9 16 20 19 11 3 20 12 20 20 0 9 9
18 19 22 11 3 23 15 26 26 4 10 15 19 26 19 12 0 19 7 19 20 0 13 7 20 20 20
13 0 20 7 20 20 0 13 7 20 20 20 13 0 20 7 20 20 0 13 7 20 20 20 13 0 20 7
20 20 0 11 7 20 15 20 9 0 20 11 25 25 5 14 16 25 25 25 8 0 15 7 15 16 0 9 9
18 20 21 11 3 20 11 20 18 0 7 11 24 25 39 14 15 25 35 25 45 0 10 9 21 20 24
11 3 20 12 20 20 0 9 9 19 20 22 11 3 20 15 20 26 0 10 6 19 14 19 15 0 26 21
26 52 0 11 8 22 20 25 10 3 22 13 25 23 3 10 12 21 20 24 8 3 17 21 20 40 5
22 14 36 26 39 10 3 19 12 19 21 0 9 9 25 20 36 11 11 20 31 20 44 0 15 7 26
20 29 15 4 20 14 20 41 0 29 4 36 19 36 14 0 20 10 24 38 4 22 15 42 27 50 11
7 20 19 20 27 0 8 9 24 20 35 11 11 20 31 20 45 0 15 6 25 15 25 8 0 17 15 21
38 4 20 14 42 22 48 8 6 17 33 20 62 4 42 8 52 23 52 15 0 19 8 19 39 0 29 5
40 18 43 13 4 21 18 25 43 3 20 13 42 22 49 9 6 18 34 22 64 3 32 11 52 18 52
16 0 25 23 25 65 0 43 9 65 26 65 10 0 14 15 14 55 0 44 4 56 20 65 17 9 20
21 20 70 0 53 2 60 20 60 18 0 20 7 20 62 0 48 4 66 20 83 16 17 22 41 27 103
4 55 10 82 18 82 17 0 25 46 25 136 0 40 5 76 10 79 13 8 14 1035 1 1035 -4 0
-11 43 -13 96 -4 72 -9 99 -20 105 -10 5 -18 31 -22 69 -5 45 -12 62 -26 70
-16 9 -20 21 -20 65 0 48 -2 55 -20 55 -18 0 -20 7 -20 56 0 47 -3 57 -20 61
-16 4 -20 14 -20 45 0 31 -4 41 -20 45 -15 4 -20 14 -20 40 0 26 -5 36 -20 40
-14 4 -20 14 -20 33 0 15 -11 39 -25 54 -14 15 -25 38 -25 52 0 17 -7 28 -20
31 -11 3 -20 14 -20 24 0 11 -6 19 -14 19 -15 0 -26 21 -26 52 0 11 -8 22 -20
25 -11 3 -20 14 -20 25 0 11 -9 22 -20 25 -11 3 -20 12 -20 20 0 7 -11 25 -25
39 -14 14 -25 32 -25 40 0 9 -9 18 -20 21 -11 3 -20 14 -20 24 0 12 -7 19 -20
19 -13 0 -20 7 -20 20 0 13 -7 20 -20 20 -13 0 -20 7 -20 20 0 11 -6 20 -14
20 -7 0 -21 11 -30 25 -9 14 -23 25 -31 25 -8 0 -15 6 -15 14 0 16 -21 26 -56
26 -17 0 -24 6 -24 20 0 13 -7 20 -20 20 -13 0 -20 7 -20 20 0 14 -7 20 -24
20 -15 0 -26 7 -29 20 -3 12 -14 20 -26 20 -11 0 -32 11 -47 25 -15 14 -39 25
-54 25 -19 0 -29 6 -33 20 -4 15 -14 20 -40 20 -26 0 -36 5 -40 20 -4 17 -14
20 -56 20 -40 0 -53 4 -63 20 -10 16 -24 20 -70 20 -48 0 -58 3 -63 20 -6 19
-15 20 -145 20 -130 0 -139 1 -145 20 -6 19 -15 20 -125 20 -109 0 -118 -1
-123 -20z"/>
</g>
</svg>
