<?xml version="1.0" standalone="no"?>
<!DOCTYPE svg PUBLIC "-//W3C//DTD SVG 20010904//EN"
 "http://www.w3.org/TR/2001/REC-SVG-20010904/DTD/svg10.dtd">
<svg version="1.0" xmlns="http://www.w3.org/2000/svg"
 width="1042.000000pt" height="1042.000000pt" viewBox="0 0 1042.000000 1042.000000"
 preserveAspectRatio="xMidYMid meet">
<metadata>
Created by potrace 1.16, written by Peter Selinger 2001-2019
</metadata>
<g transform="translate(0.000000,1042.000000) scale(0.100000,-0.100000)"
fill="#000000" stroke="none">
<path d="M4825 9000 c-3 -5 -26 -10 -49 -10 -24 0 -70 -3 -104 -6 -47 -5 -61
-11 -65 -25 -4 -17 -15 -19 -82 -19 -68 0 -77 -2 -82 -20 -5 -17 -14 -20 -65
-20 -51 0 -61 -3 -65 -20 -4 -16 -14 -20 -48 -20 -53 0 -75 -8 -75 -26 0 -9
-12 -14 -35 -14 -24 0 -37 -6 -45 -20 -6 -11 -21 -20 -35 -20 -34 0 -55 -10
-55 -26 0 -8 -16 -16 -40 -20 -30 -5 -40 -11 -40 -25 0 -15 -8 -19 -39 -19
-30 0 -40 -4 -44 -20 -3 -12 -14 -20 -25 -20 -31 0 -52 -11 -52 -26 0 -8 -9
-14 -21 -14 -12 0 -23 -8 -26 -19 -3 -12 -17 -21 -39 -25 -18 -4 -38 -16 -44
-26 -6 -11 -17 -20 -25 -20 -7 0 -17 -9 -20 -20 -3 -11 -15 -20 -26 -20 -12 0
-19 -7 -19 -20 0 -13 -7 -20 -19 -20 -10 0 -21 -9 -24 -20 -3 -12 -14 -20 -26
-20 -11 0 -32 -11 -47 -25 -15 -14 -31 -25 -35 -25 -5 0 -9 -7 -9 -16 0 -9 -9
-18 -20 -21 -11 -3 -20 -12 -20 -20 0 -8 -9 -17 -20 -20 -10 -3 -22 -14 -25
-24 -4 -10 -13 -19 -21 -19 -8 0 -14 -5 -14 -10 0 -6 -11 -20 -25 -32 -14 -12
-25 -25 -25 -30 0 -4 -9 -17 -20 -28 -11 -11 -20 -29 -20 -40 0 -13 -7 -20
-19 -20 -11 0 -23 -9 -26 -20 -3 -11 -15 -25 -26 -30 -10 -6 -19 -17 -19 -25
0 -8 -6 -15 -14 -15 -9 0 -17 -15 -21 -40 -4 -25 -12 -40 -21 -40 -8 0 -19
-11 -23 -24 -5 -13 -17 -26 -25 -29 -10 -4 -16 -18 -16 -38 0 -22 -5 -32 -20
-36 -14 -4 -20 -14 -20 -32 0 -17 -10 -36 -25 -49 -14 -12 -25 -29 -25 -37 0
-9 -9 -25 -20 -37 -11 -12 -20 -34 -20 -50 0 -17 -8 -33 -20 -40 -14 -9 -20
-24 -20 -49 0 -28 -5 -38 -20 -42 -16 -4 -20 -14 -20 -44 0 -26 -6 -44 -20
-56 -15 -13 -20 -29 -20 -66 0 -59 -7 -81 -26 -81 -10 0 -14 -14 -14 -54 0
-40 -6 -60 -22 -82 -20 -24 -23 -43 -27 -136 -2 -59 -7 -108 -12 -108 -5 0 -9
-152 -9 -350 0 -193 4 -350 9 -350 5 0 10 -52 13 -115 4 -102 7 -117 26 -135
17 -17 22 -32 22 -75 0 -42 5 -60 20 -75 14 -14 20 -33 20 -65 0 -32 6 -51 20
-65 13 -13 20 -33 20 -56 0 -27 5 -37 20 -41 16 -4 20 -14 20 -43 0 -21 8 -48
19 -61 10 -13 22 -39 25 -56 4 -18 13 -36 19 -40 7 -5 20 -25 29 -45 10 -21
22 -38 28 -38 5 0 10 -11 10 -24 0 -15 7 -26 20 -29 15 -4 20 -14 20 -40 0
-27 5 -37 20 -42 11 -3 20 -15 20 -26 0 -12 7 -19 20 -19 14 0 20 -7 20 -24 0
-35 10 -56 26 -56 8 0 14 -7 14 -16 0 -9 9 -18 19 -21 11 -3 22 -15 25 -28 3
-12 15 -25 26 -28 14 -3 20 -13 20 -31 0 -15 7 -29 16 -33 8 -3 20 -16 25 -29
4 -13 15 -24 24 -24 8 0 15 -7 15 -16 0 -9 9 -18 19 -21 11 -3 21 -13 24 -24
3 -10 12 -19 20 -19 9 0 18 -9 22 -19 3 -11 15 -23 26 -26 10 -4 19 -13 19
-22 0 -8 9 -17 20 -20 11 -3 20 -12 20 -19 0 -8 8 -18 18 -21 9 -4 23 -15 30
-25 8 -10 26 -18 43 -18 22 0 29 -5 29 -20 0 -13 7 -20 20 -20 11 0 20 -7 20
-15 0 -9 11 -20 25 -25 14 -5 25 -16 25 -24 0 -9 15 -17 40 -21 25 -4 40 -12
40 -21 0 -8 8 -18 18 -21 9 -4 23 -15 30 -25 7 -10 26 -18 42 -18 20 0 31 -6
35 -20 4 -14 15 -20 36 -20 18 0 33 -7 41 -20 7 -11 23 -20 35 -20 14 0 23 -6
23 -15 0 -8 18 -19 43 -26 23 -7 53 -21 66 -31 13 -10 38 -18 56 -18 24 0 34
-5 38 -20 4 -15 14 -20 41 -20 23 0 43 -7 56 -20 14 -14 33 -20 65 -20 32 0
51 -6 65 -20 16 -16 33 -20 84 -20 55 0 64 -3 69 -20 4 -17 14 -20 61 -20 l56
0 0 -335 0 -335 -351 0 c-342 0 -351 0 -356 -20 -5 -17 -14 -20 -68 -20 -72 0
-95 -6 -95 -26 0 -8 -9 -14 -21 -14 -12 0 -23 -8 -26 -20 -3 -11 -14 -20 -24
-20 -12 0 -19 -7 -19 -20 0 -13 -7 -20 -20 -20 -13 0 -20 -7 -20 -19 0 -11 -9
-22 -19 -26 -11 -3 -23 -16 -27 -28 -4 -12 -15 -34 -26 -49 -18 -26 -19 -43
-16 -214 3 -156 6 -187 19 -197 9 -7 19 -22 23 -35 4 -12 15 -22 26 -22 14 0
20 -9 22 -32 2 -22 10 -36 26 -44 12 -6 33 -21 46 -33 12 -11 25 -21 29 -21 4
0 16 -9 27 -20 15 -15 33 -20 70 -20 36 0 50 -4 50 -14 0 -8 7 -17 16 -20 9
-3 177 -6 375 -6 l359 0 0 -290 c0 -283 0 -290 20 -290 17 0 20 -7 20 -39 0
-30 5 -41 19 -46 10 -3 22 -16 25 -29 7 -30 80 -96 106 -96 13 0 20 -7 20 -20
0 -17 7 -20 39 -20 25 0 41 -5 45 -15 8 -22 324 -22 332 0 4 10 20 15 45 15
32 0 39 3 39 20 0 16 7 20 36 20 27 0 37 5 41 20 3 11 12 20 19 20 8 0 19 11
23 24 5 13 16 26 25 29 8 3 18 22 22 41 3 20 12 36 19 36 7 0 16 7 19 16 3 9
6 148 6 310 l0 294 385 0 c374 0 385 1 397 20 10 15 24 20 55 20 50 0 73 8 73
25 0 7 11 16 25 19 14 4 34 15 44 25 9 9 25 20 33 24 9 3 19 20 23 38 4 19 15
33 26 36 12 3 19 14 19 28 0 14 7 25 18 27 16 5 20 20 25 114 8 155 -5 314
-26 326 -9 5 -17 17 -17 28 0 10 -9 22 -20 25 -11 3 -20 11 -20 16 0 13 -55
69 -68 69 -5 0 -12 9 -15 20 -3 12 -14 20 -26 20 -12 0 -21 6 -21 14 0 20 -23
26 -97 26 -56 0 -66 3 -70 20 -5 20 -14 20 -374 20 l-369 0 0 335 0 335 100 0
c93 0 100 1 100 20 0 18 7 20 75 20 64 0 77 3 87 20 10 15 24 20 55 20 51 0
73 8 73 26 0 10 13 14 41 14 32 0 42 4 46 19 4 14 17 20 56 24 31 3 55 11 63
21 6 9 28 20 48 23 23 3 38 12 41 24 4 12 16 19 31 19 13 0 32 9 41 20 10 11
25 20 35 20 9 0 20 9 23 20 5 15 15 20 40 20 25 0 35 5 40 20 3 11 13 20 20
20 8 0 19 9 25 20 6 10 26 22 45 26 19 3 35 12 35 19 0 8 9 16 19 20 11 3 23
15 26 26 4 10 15 19 25 19 9 0 20 9 23 20 3 13 14 20 30 20 14 0 32 8 39 18 7
10 21 21 31 25 9 3 17 13 17 21 0 7 9 16 20 19 11 3 20 12 20 20 0 9 9 19 20
22 11 3 20 13 20 21 0 8 11 19 25 24 14 5 25 16 25 24 0 7 9 16 20 19 11 3 20
12 20 21 0 9 7 16 15 16 9 0 20 11 24 24 5 13 17 26 25 29 9 4 16 18 16 33 0
17 6 28 20 31 11 3 20 14 20 25 0 11 8 22 20 25 10 3 22 14 25 24 4 10 13 19
20 19 8 0 17 15 21 35 3 20 15 40 25 46 11 5 19 16 19 24 0 7 9 17 20 20 15 5
20 15 20 42 0 26 5 36 20 40 11 3 20 13 20 22 0 9 9 24 20 34 11 9 20 28 20
42 0 13 8 29 19 34 10 6 21 24 25 41 3 18 15 43 26 57 12 15 20 41 20 63 0 29
4 39 20 43 16 4 20 14 20 46 0 28 4 41 14 41 16 0 26 30 26 80 0 23 7 42 20
53 16 14 20 29 20 86 0 58 3 69 18 73 16 4 20 19 25 83 4 43 7 98 7 122 0 23
5 43 10 43 6 0 10 121 10 344 0 219 -4 347 -10 351 -5 3 -10 32 -11 63 -1 92
-14 164 -32 177 -13 9 -17 28 -17 79 0 59 -2 66 -20 66 -18 0 -20 7 -20 60 0
49 -3 61 -20 70 -16 9 -20 21 -20 61 0 42 -3 52 -20 56 -15 4 -20 14 -20 39 0
23 -6 37 -20 44 -13 7 -20 21 -20 39 0 16 -11 40 -25 55 -14 15 -25 38 -25 52
0 17 -5 24 -20 24 -17 0 -20 7 -20 39 0 30 -4 40 -20 44 -15 4 -20 14 -20 36
0 20 -6 34 -16 38 -8 3 -20 16 -25 29 -4 13 -15 24 -23 24 -8 0 -17 15 -20 35
-4 19 -16 39 -26 45 -11 6 -20 17 -20 25 0 8 -7 15 -15 15 -9 0 -20 11 -25 25
-5 14 -16 25 -25 25 -8 0 -15 8 -15 19 0 10 -9 21 -19 24 -11 3 -22 17 -26 35
-3 17 -15 34 -25 37 -10 3 -20 15 -23 25 -3 11 -12 20 -21 20 -9 0 -16 8 -16
20 0 12 -7 20 -16 20 -9 0 -18 9 -21 20 -3 11 -14 20 -24 20 -11 0 -19 7 -19
15 0 8 -9 19 -21 25 -11 7 -29 20 -40 31 -10 10 -28 19 -39 19 -13 0 -20 7
-20 20 0 13 -7 20 -20 20 -11 0 -20 7 -20 15 0 9 -11 20 -25 25 -14 5 -25 16
-25 25 0 8 -7 15 -16 15 -9 0 -27 11 -40 25 -13 14 -32 25 -42 25 -11 0 -22 9
-25 20 -3 11 -12 20 -21 20 -9 0 -25 9 -36 20 -11 11 -31 20 -45 20 -18 0 -25
5 -25 20 0 17 -7 20 -40 20 -33 0 -40 3 -40 20 0 14 -7 20 -24 20 -34 0 -56
10 -56 25 0 13 -30 25 -66 25 -13 0 -24 8 -27 20 -4 15 -14 20 -36 20 -18 0
-40 9 -51 20 -14 14 -33 20 -66 20 -37 0 -47 4 -51 20 -5 17 -14 20 -63 20
-49 0 -58 3 -63 20 -5 18 -14 20 -86 20 -72 0 -81 2 -81 19 0 15 -11 19 -67
24 -38 4 -94 7 -125 7 -32 0 -58 5 -58 10 0 6 -121 10 -344 10 -219 0 -347 -4
-351 -10z m518 -917 c15 -14 41 -19 123 -21 77 -3 104 -7 104 -17 0 -16 31
-25 86 -25 28 0 47 -6 59 -20 12 -14 31 -20 57 -20 31 0 41 -4 45 -20 4 -16
14 -20 43 -20 29 0 39 -4 43 -20 4 -15 14 -20 40 -20 25 0 36 -5 40 -18 2 -12
17 -22 37 -26 18 -3 39 -15 47 -26 8 -11 20 -20 27 -20 8 0 16 -7 19 -14 3 -8
22 -18 41 -22 26 -4 36 -11 36 -25 0 -12 7 -19 19 -19 10 0 21 -9 24 -20 3
-11 12 -20 20 -20 9 0 19 -9 22 -20 3 -11 15 -20 26 -20 12 0 19 -7 19 -20 0
-13 7 -20 20 -20 12 0 20 -7 20 -16 0 -9 9 -18 20 -21 11 -3 20 -14 20 -23 0
-10 9 -22 20 -25 11 -3 20 -13 20 -22 0 -8 9 -17 20 -20 11 -3 20 -14 20 -24
0 -12 7 -19 20 -19 13 0 20 -7 20 -20 0 -11 9 -29 20 -40 11 -11 20 -26 20
-34 0 -8 9 -21 20 -29 11 -8 23 -28 26 -45 4 -18 14 -34 25 -37 11 -4 19 -14
19 -24 0 -10 9 -26 20 -36 11 -10 20 -31 20 -46 0 -38 9 -59 26 -59 10 0 14
-13 14 -41 0 -32 4 -42 20 -46 17 -5 20 -14 20 -63 0 -44 4 -61 20 -75 17 -15
20 -31 20 -95 0 -96 8 -140 26 -140 11 0 14 -29 14 -150 0 -120 -3 -150 -14
-150 -17 0 -26 -51 -26 -152 0 -67 -3 -80 -20 -90 -16 -10 -20 -24 -20 -69 0
-48 -3 -57 -20 -62 -15 -4 -20 -14 -20 -41 0 -23 -7 -43 -20 -56 -12 -12 -20
-33 -20 -55 0 -24 -6 -39 -20 -47 -11 -7 -20 -21 -20 -30 0 -10 -8 -22 -19
-27 -10 -6 -22 -22 -25 -36 -4 -14 -15 -34 -26 -45 -11 -11 -20 -31 -20 -44 0
-16 -7 -27 -20 -31 -11 -3 -20 -15 -20 -26 0 -12 -7 -19 -20 -19 -13 0 -20 -7
-20 -20 0 -11 -7 -20 -15 -20 -9 0 -19 -8 -22 -17 -4 -10 -15 -24 -25 -31 -10
-7 -18 -20 -18 -28 0 -8 -7 -14 -16 -14 -9 0 -18 -9 -21 -20 -3 -11 -12 -20
-20 -20 -8 0 -17 -9 -20 -20 -3 -11 -14 -20 -24 -20 -11 0 -19 -7 -19 -15 0
-9 -11 -20 -25 -25 -14 -5 -25 -16 -25 -25 0 -8 -9 -15 -20 -15 -13 0 -20 -7
-20 -20 0 -12 -7 -20 -18 -20 -9 0 -23 -9 -30 -20 -7 -11 -23 -20 -37 -20 -13
0 -30 -9 -37 -19 -8 -11 -26 -23 -41 -26 -15 -4 -31 -13 -35 -20 -4 -7 -24
-20 -44 -28 -21 -9 -38 -21 -38 -26 0 -6 -13 -11 -29 -11 -39 0 -61 -9 -61
-26 0 -10 -13 -14 -41 -14 -32 0 -42 -4 -46 -20 -5 -17 -14 -20 -62 -20 -44 0
-59 -4 -68 -19 -10 -16 -27 -19 -118 -23 -87 -3 -109 -7 -120 -21 -11 -15 -33
-17 -175 -17 -144 0 -164 2 -176 18 -10 14 -31 18 -106 20 -72 3 -96 7 -106
20 -9 12 -33 18 -81 20 -58 4 -70 7 -74 23 -4 15 -14 19 -45 19 -31 0 -41 4
-45 20 -4 15 -14 20 -40 20 -27 0 -37 5 -42 20 -4 13 -15 20 -30 20 -13 0 -32
8 -42 19 -10 10 -33 22 -51 26 -18 3 -37 15 -42 26 -6 10 -15 19 -20 19 -6 0
-19 9 -30 20 -11 11 -31 20 -45 20 -18 0 -25 5 -25 20 0 13 -7 20 -19 20 -10
0 -21 9 -24 20 -3 11 -12 20 -20 20 -9 0 -19 9 -22 20 -3 11 -13 20 -22 20 -8
0 -17 9 -20 20 -3 11 -14 20 -24 20 -12 0 -19 7 -19 19 0 11 -9 22 -19 26 -10
3 -21 15 -24 25 -3 11 -12 20 -20 20 -8 0 -17 9 -20 20 -3 11 -12 20 -21 20
-9 0 -16 8 -16 20 0 13 -7 20 -19 20 -15 0 -21 10 -26 40 -4 23 -12 40 -20 40
-7 0 -16 11 -19 25 -4 14 -13 25 -20 25 -15 0 -26 21 -26 52 0 11 -8 22 -20
25 -15 4 -20 14 -20 40 0 26 -5 36 -20 40 -16 4 -20 14 -20 43 0 29 -5 40 -19
45 -14 4 -20 18 -23 57 -3 31 -12 56 -22 63 -11 9 -16 28 -16 63 0 38 -5 54
-18 64 -17 11 -20 33 -25 167 -5 126 -9 156 -21 163 -9 5 -16 18 -16 28 0 10
7 23 16 28 12 7 16 37 21 160 5 130 9 154 25 168 13 13 18 31 18 71 0 39 4 53
14 53 18 0 26 22 26 75 0 35 4 45 20 50 15 5 20 15 20 45 0 29 4 39 20 43 15
4 20 14 20 41 0 29 4 36 20 36 14 0 20 7 20 24 0 35 10 56 26 56 7 0 16 11 20
25 3 14 12 25 20 25 7 0 16 16 20 36 4 24 13 38 25 41 11 3 19 14 19 24 0 11
7 19 16 19 9 0 18 9 21 20 3 11 12 20 20 20 8 0 17 9 20 20 3 10 13 22 23 25
10 3 20 15 23 25 3 11 12 20 21 20 9 0 16 7 16 15 0 9 11 20 25 25 14 5 25 16
25 25 0 8 7 15 16 15 9 0 18 9 21 20 3 11 13 20 23 20 10 0 20 9 23 20 3 12
14 20 25 20 31 0 52 11 52 26 0 8 9 14 19 14 11 0 22 9 26 19 3 12 19 21 41
26 24 4 38 13 41 26 4 14 14 19 40 19 26 0 36 5 40 20 4 16 14 20 43 20 29 0
39 4 43 20 4 16 14 20 51 20 34 0 51 5 63 20 13 15 30 20 71 20 44 0 55 3 59
19 4 17 17 19 120 23 97 3 118 6 127 21 9 15 28 17 140 17 109 0 132 -3 149
-17z"/>
</g>
</svg>
