<?xml version="1.0" standalone="no"?>
<!DOCTYPE svg PUBLIC "-//W3C//DTD SVG 20010904//EN"
 "http://www.w3.org/TR/2001/REC-SVG-20010904/DTD/svg10.dtd">
<svg version="1.0" xmlns="http://www.w3.org/2000/svg"
 width="1042.000000pt" height="1042.000000pt" viewBox="0 0 1042.000000 1042.000000"
 preserveAspectRatio="xMidYMid meet">
<metadata>
Created by potrace 1.16, written by Peter Selinger 2001-2019
</metadata>
<g transform="translate(0.000000,1042.000000) scale(0.100000,-0.100000)"
fill="#000000" stroke="none">
<path d="M7360 8911 c0 -5 -9 -11 -20 -14 -11 -3 -20 -12 -20 -21 0 -12 -10
-16 -34 -16 -23 0 -39 -7 -49 -20 -8 -11 -29 -23 -47 -26 -20 -4 -35 -14 -37
-26 -3 -10 -14 -18 -24 -18 -12 0 -19 -7 -19 -20 0 -13 -7 -20 -19 -20 -11 0
-22 -9 -26 -19 -3 -10 -15 -21 -25 -24 -11 -3 -20 -12 -20 -21 0 -9 -7 -16
-16 -16 -9 0 -18 -9 -21 -20 -3 -10 -14 -22 -24 -25 -10 -4 -19 -15 -19 -25 0
-9 -9 -20 -20 -23 -13 -3 -20 -14 -20 -31 0 -15 -8 -31 -20 -38 -11 -7 -20
-20 -20 -30 0 -9 -8 -19 -19 -23 -19 -6 -31 -43 -31 -96 0 -19 -5 -29 -15 -29
-8 0 -18 -12 -21 -27 -4 -16 -15 -44 -26 -63 -14 -27 -18 -57 -18 -141 0 -86
-3 -108 -15 -113 -19 -7 -20 -70 -1 -88 9 -9 15 -50 18 -127 3 -86 8 -117 20
-125 8 -6 18 -28 22 -48 4 -21 13 -41 20 -45 25 -14 24 -93 0 -93 -9 0 -18 -9
-21 -20 -3 -11 -12 -20 -20 -20 -8 0 -17 -9 -20 -20 -3 -11 -12 -20 -20 -20
-8 0 -17 -9 -20 -20 -3 -11 -11 -20 -18 -20 -7 0 -20 -11 -29 -25 -11 -16 -26
-25 -42 -25 -17 0 -28 -7 -31 -20 -3 -10 -14 -22 -24 -25 -10 -4 -19 -13 -19
-21 0 -8 -6 -14 -14 -14 -8 0 -21 -8 -28 -18 -7 -10 -21 -21 -30 -25 -10 -3
-18 -13 -18 -21 0 -8 -9 -18 -20 -21 -11 -3 -20 -13 -20 -22 0 -8 -9 -17 -20
-20 -11 -3 -20 -12 -20 -20 0 -8 -9 -17 -20 -20 -10 -3 -22 -13 -25 -23 -3
-10 -15 -20 -25 -23 -11 -3 -20 -12 -20 -20 0 -8 -9 -17 -20 -20 -11 -3 -20
-12 -20 -21 0 -9 -7 -16 -15 -16 -8 0 -19 -9 -25 -20 -6 -11 -16 -20 -23 -20
-7 0 -31 -18 -52 -41 -22 -22 -50 -45 -62 -50 -13 -5 -23 -15 -23 -24 0 -8 -9
-15 -19 -15 -11 0 -22 -9 -26 -19 -3 -10 -15 -21 -25 -24 -11 -3 -20 -11 -20
-19 0 -21 -41 -35 -67 -23 -13 5 -23 15 -23 21 0 14 -23 24 -56 24 -17 0 -24
6 -24 20 0 13 -7 20 -19 20 -11 0 -23 9 -26 20 -4 13 -15 20 -31 20 -13 0 -33
9 -44 20 -11 11 -26 20 -33 20 -7 0 -18 9 -24 20 -9 13 -29 21 -62 26 -37 5
-51 11 -54 25 -4 15 -14 19 -46 19 -28 0 -48 7 -61 20 -15 15 -33 20 -78 20
-45 0 -61 4 -75 20 -16 19 -29 20 -413 20 -387 0 -396 0 -401 -20 -5 -18 -14
-20 -85 -20 -71 0 -80 -2 -85 -20 -4 -16 -14 -20 -48 -20 -52 0 -75 -8 -75
-25 0 -8 -17 -16 -40 -20 -23 -4 -40 -12 -40 -20 0 -7 -11 -16 -25 -19 -14 -4
-25 -13 -25 -20 0 -9 -16 -17 -40 -21 -30 -5 -40 -11 -40 -26 0 -15 -7 -19
-36 -19 -27 0 -37 -5 -41 -20 -3 -11 -14 -20 -23 -20 -10 0 -21 -9 -25 -19 -3
-10 -15 -21 -25 -24 -11 -3 -20 -11 -20 -19 0 -7 -11 -18 -25 -25 -22 -10 -28
-8 -52 18 -16 16 -33 29 -39 29 -7 0 -14 9 -17 20 -3 11 -12 20 -20 20 -8 0
-17 9 -20 20 -3 12 -14 20 -26 20 -12 0 -21 5 -21 10 0 6 -15 17 -33 26 -18 9
-39 29 -46 44 -6 16 -25 35 -42 42 -16 7 -32 21 -35 30 -3 10 -12 18 -21 18
-8 0 -17 9 -20 20 -3 11 -14 20 -24 20 -12 0 -19 7 -19 20 0 13 -7 20 -20 20
-17 0 -20 7 -20 39 0 30 4 40 20 44 16 4 20 14 20 45 0 31 4 41 20 45 13 3 20
14 20 28 0 12 10 33 23 47 22 23 22 28 21 251 0 219 -1 229 -22 256 -12 15
-22 36 -22 46 0 10 -9 23 -20 29 -14 8 -20 21 -20 46 0 27 -5 37 -20 41 -16 4
-20 14 -20 43 0 26 -7 45 -23 61 -13 13 -26 32 -30 42 -3 9 -13 17 -22 17 -8
0 -15 9 -15 20 0 11 -7 20 -15 20 -9 0 -20 11 -25 25 -5 14 -16 25 -25 25 -8
0 -15 6 -15 14 0 8 -9 17 -19 21 -11 3 -23 15 -26 26 -5 14 -15 19 -41 19 -27
0 -34 4 -34 19 0 14 -10 21 -37 26 -21 4 -43 15 -51 26 -9 12 -25 19 -48 19
-23 0 -34 5 -34 15 0 8 -14 17 -37 21 -21 4 -46 15 -56 25 -16 17 -36 19 -242
19 -191 0 -226 -2 -239 -16 -9 -9 -32 -20 -51 -25 -20 -6 -35 -16 -35 -24 0
-10 -10 -15 -29 -15 -39 0 -61 -9 -61 -25 0 -7 -18 -15 -40 -19 -31 -5 -40
-11 -40 -26 0 -16 -7 -20 -36 -20 -27 0 -37 -5 -41 -20 -3 -11 -10 -20 -15
-20 -13 0 -118 -105 -118 -118 0 -7 -7 -12 -15 -12 -9 0 -19 -8 -22 -17 -4
-10 -14 -24 -24 -30 -9 -7 -20 -27 -23 -45 -7 -35 -37 -78 -55 -78 -8 0 -11
-119 -11 -403 0 -371 1 -404 18 -419 32 -30 52 -62 52 -85 0 -13 7 -26 16 -30
8 -3 20 -16 25 -29 4 -13 15 -24 24 -24 8 0 15 -7 15 -16 0 -9 9 -18 20 -21
11 -3 20 -9 20 -14 0 -12 67 -79 79 -79 5 0 11 -9 14 -20 4 -15 14 -20 41 -20
29 0 36 -4 36 -20 0 -17 7 -20 40 -20 33 0 40 -3 40 -20 0 -14 7 -20 23 -20
38 0 67 -12 67 -26 0 -8 9 -14 20 -14 11 0 29 -9 39 -19 27 -27 94 -33 311
-29 175 3 187 4 214 26 16 12 37 22 48 22 10 0 21 7 24 15 11 27 41 17 50 -17
7 -23 18 -34 44 -43 19 -6 36 -19 38 -28 2 -10 12 -17 23 -17 12 0 19 -7 19
-20 0 -13 7 -20 20 -20 13 0 20 -7 20 -20 0 -13 7 -20 19 -20 10 0 21 -9 24
-20 3 -11 12 -20 20 -20 9 0 19 -9 22 -20 3 -11 13 -20 22 -20 8 0 17 -9 20
-20 3 -11 11 -20 19 -20 7 0 18 -9 24 -20 6 -11 15 -20 21 -20 6 0 30 -20 55
-45 24 -25 52 -45 64 -45 12 0 21 -7 22 -17 3 -38 -4 -68 -17 -76 -8 -4 -17
-23 -21 -41 -4 -22 -13 -36 -25 -39 -16 -4 -19 -14 -19 -56 0 -40 -4 -52 -20
-61 -17 -9 -20 -21 -20 -80 0 -60 -3 -71 -22 -85 -23 -15 -23 -16 -26 -348 -4
-389 1 -477 29 -484 17 -5 19 -15 19 -79 0 -63 3 -76 20 -86 15 -10 20 -24 20
-55 0 -29 6 -49 18 -61 11 -11 24 -33 30 -50 11 -31 19 -43 54 -82 9 -10 20
-35 24 -54 4 -26 11 -36 25 -36 12 0 19 -7 19 -19 0 -11 9 -23 20 -26 13 -4
20 -15 20 -32 0 -16 14 -39 38 -62 21 -21 41 -45 45 -54 3 -9 13 -17 21 -17 7
0 16 -9 19 -20 3 -11 12 -20 20 -20 9 0 18 -9 22 -19 3 -11 14 -23 24 -26 11
-3 21 -15 24 -25 3 -11 12 -20 21 -20 9 0 16 -7 16 -15 0 -9 8 -19 18 -22 9
-4 23 -15 30 -25 7 -10 26 -18 41 -18 20 0 30 -6 34 -20 3 -12 14 -20 26 -20
14 0 21 -6 21 -20 0 -13 7 -20 19 -20 10 0 21 -8 24 -18 2 -12 17 -22 37 -26
18 -3 38 -13 45 -22 7 -10 32 -19 63 -22 39 -3 53 -9 57 -23 4 -11 15 -19 27
-19 11 0 31 -9 45 -20 14 -11 32 -20 39 -20 8 0 23 -9 34 -20 16 -16 33 -20
94 -20 66 0 77 -3 91 -22 15 -23 19 -23 287 -27 149 -2 314 0 366 4 81 6 95
10 99 26 5 16 15 19 79 19 63 0 75 3 84 20 6 11 21 20 34 20 13 0 35 9 49 20
14 11 37 20 52 20 18 0 29 6 32 20 4 16 14 20 45 20 31 0 41 4 45 19 3 13 17
21 43 25 26 4 39 12 43 26 4 15 13 20 41 20 26 0 36 -4 36 -15 0 -9 11 -21 25
-27 14 -6 25 -17 25 -24 0 -7 9 -15 19 -19 11 -3 22 -12 25 -20 3 -8 21 -17
40 -21 20 -3 36 -12 36 -20 0 -17 47 -64 64 -64 8 0 16 -9 19 -20 3 -11 12
-20 20 -20 9 0 19 -9 22 -20 3 -11 13 -20 20 -20 8 0 19 -9 25 -20 6 -11 17
-20 25 -20 7 0 17 -9 20 -20 3 -11 12 -20 19 -20 7 0 23 -11 36 -25 13 -14 32
-25 42 -25 10 0 18 -7 18 -15 0 -9 11 -20 25 -25 14 -5 25 -16 25 -25 0 -8 8
-15 19 -15 10 0 21 -9 24 -20 3 -11 12 -20 21 -20 9 0 16 -7 16 -15 0 -9 8
-19 18 -22 9 -4 27 -17 39 -30 12 -13 31 -23 43 -23 11 0 20 -7 20 -15 0 -9
11 -20 25 -25 14 -5 25 -16 25 -25 0 -8 8 -15 19 -15 10 0 21 -9 24 -20 3 -11
12 -20 20 -20 8 0 17 -9 20 -19 3 -11 17 -22 36 -26 17 -4 36 -15 41 -26 6
-10 17 -19 25 -19 8 0 15 -7 15 -15 0 -9 11 -20 25 -25 14 -5 25 -16 25 -25 0
-8 8 -15 19 -15 10 0 21 -9 24 -20 3 -11 12 -20 20 -20 8 0 17 -9 20 -20 3
-11 13 -20 23 -20 17 0 17 -1 0 -13 -11 -8 -20 -32 -24 -62 -3 -32 -12 -55
-25 -66 -19 -15 -21 -31 -25 -226 -6 -261 3 -378 29 -404 12 -12 19 -33 19
-59 0 -26 5 -43 14 -46 8 -3 20 -20 27 -37 7 -18 19 -36 26 -40 7 -4 13 -16
13 -26 0 -10 9 -21 20 -24 14 -4 20 -14 20 -35 0 -19 7 -36 18 -44 11 -7 25
-24 32 -38 16 -31 39 -49 63 -50 10 0 17 -8 17 -20 0 -13 7 -20 19 -20 13 0
20 -9 24 -30 4 -20 17 -35 39 -46 18 -9 39 -25 46 -35 8 -12 25 -19 48 -19 27
0 34 -4 34 -20 0 -17 7 -20 40 -20 29 0 40 -4 40 -15 0 -9 8 -19 18 -22 9 -4
21 -12 25 -20 6 -10 87 -13 413 -13 350 0 405 2 410 15 4 8 15 15 26 15 11 0
22 8 25 20 4 15 14 20 40 20 26 0 36 5 40 20 4 14 14 20 32 20 31 0 45 9 54
33 3 9 13 17 21 17 8 0 18 9 21 20 3 11 15 20 26 20 12 0 19 7 19 20 0 13 7
20 20 20 13 0 20 7 20 20 0 13 7 20 20 20 13 0 20 7 20 20 0 12 7 20 16 20 9
0 18 9 21 20 3 10 13 22 23 25 11 4 20 20 24 44 4 27 12 40 26 44 15 4 20 13
20 41 0 26 4 36 16 36 9 0 18 9 21 20 3 11 9 20 14 20 5 0 9 185 9 424 l0 424
-30 32 c-16 18 -30 40 -30 51 0 10 -9 23 -20 29 -10 6 -22 26 -26 45 -4 21
-12 35 -21 35 -8 0 -17 9 -20 20 -3 10 -13 22 -23 25 -10 3 -20 15 -23 25 -3
11 -12 20 -20 20 -8 0 -17 13 -21 30 -4 23 -15 35 -41 46 -19 8 -35 19 -35 24
0 6 -11 15 -25 20 -14 5 -25 16 -25 24 0 9 -15 17 -40 21 -25 4 -40 12 -40 21
0 8 -11 19 -25 24 -14 5 -25 14 -25 19 0 6 -16 13 -35 17 -20 3 -40 15 -46 25
-8 15 -21 19 -63 19 -45 0 -54 3 -59 20 -5 19 -14 20 -291 20 -274 0 -286 -1
-286 -19 0 -16 -10 -19 -71 -23 -49 -3 -75 -9 -83 -19 -6 -9 -21 -19 -34 -23
-12 -4 -22 -14 -22 -22 0 -8 -8 -14 -19 -14 -10 0 -30 -9 -44 -20 -20 -16 -26
-17 -30 -6 -3 8 -20 17 -37 21 -17 4 -34 14 -37 23 -10 27 -45 62 -64 62 -9 0
-19 9 -22 20 -3 11 -12 20 -20 20 -8 0 -17 9 -20 20 -3 12 -14 20 -26 20 -14
0 -21 6 -21 20 0 13 -7 20 -20 20 -11 0 -20 7 -20 15 0 9 -8 19 -17 22 -10 4
-28 17 -40 30 -12 13 -31 23 -41 23 -11 0 -22 9 -25 20 -3 11 -12 20 -21 20
-9 0 -16 7 -16 15 0 9 -9 15 -25 15 -19 0 -25 5 -25 21 0 12 -8 23 -19 26 -11
3 -21 13 -24 24 -3 10 -12 19 -20 19 -9 0 -18 9 -22 19 -3 12 -19 21 -40 25
-22 4 -35 13 -35 22 0 9 -9 18 -20 21 -10 3 -22 14 -25 24 -4 10 -15 19 -26
19 -11 0 -19 7 -19 16 0 9 -9 18 -20 21 -11 3 -20 12 -20 19 0 8 -8 18 -17 21
-10 4 -23 14 -30 24 -7 9 -26 19 -43 22 -18 4 -30 13 -30 23 0 9 -9 18 -19 21
-11 3 -21 13 -24 24 -3 11 -14 19 -26 19 -13 0 -21 6 -21 16 0 9 -9 18 -19 21
-11 3 -21 13 -24 24 -3 10 -12 19 -21 19 -9 0 -25 9 -36 20 -11 11 -29 20 -40
20 -27 0 -27 37 0 45 11 4 20 15 20 27 0 11 18 38 40 59 25 25 40 48 40 63 0
14 6 29 14 33 20 12 36 48 36 81 0 21 6 31 20 35 16 4 20 14 20 51 0 41 5 52
40 88 39 41 40 44 40 114 0 63 2 72 20 77 20 5 20 14 20 370 0 349 -1 365 -20
390 -15 19 -20 40 -20 86 0 45 -5 66 -17 79 -10 9 -24 30 -30 45 -7 15 -17 27
-23 27 -5 0 -10 16 -10 36 0 27 -5 37 -20 41 -14 4 -20 14 -20 33 0 52 -12 89
-31 95 -25 8 -24 41 0 55 11 5 22 23 26 40 4 16 13 30 20 30 7 0 26 10 42 23
15 13 36 26 46 30 9 3 17 13 17 21 0 7 9 16 20 19 11 3 20 12 20 21 0 9 8 16
20 16 13 0 20 7 20 20 0 13 7 20 20 20 11 0 20 7 20 15 0 9 11 20 25 25 14 5
25 16 25 24 0 7 9 16 20 19 11 3 20 11 20 19 0 8 16 20 35 27 28 10 36 19 41
47 4 24 12 34 24 34 10 0 22 9 25 20 5 14 15 20 37 20 21 0 31 6 35 20 3 11
10 20 16 20 13 0 77 66 77 80 0 5 9 10 20 10 13 0 20 7 20 20 0 13 7 20 20 20
13 0 20 7 20 20 0 13 7 20 19 20 11 0 22 9 26 19 3 10 15 21 25 24 11 3 20 12
20 20 0 8 9 17 20 20 11 3 20 11 20 19 0 16 48 40 56 27 3 -5 16 -9 29 -9 14
0 29 -9 35 -20 6 -11 19 -20 29 -20 10 0 21 -9 24 -20 4 -17 14 -20 60 -20 45
0 56 -3 59 -18 5 -17 21 -19 152 -25 95 -4 153 -10 163 -18 11 -10 19 -10 34
-1 12 8 78 15 164 19 128 5 144 8 148 25 4 14 15 18 56 18 40 0 53 4 63 20 7
11 18 20 24 20 6 0 19 9 29 20 10 11 26 20 37 20 10 0 26 9 35 20 10 11 23 20
31 20 7 0 16 8 19 18 9 23 23 32 51 32 15 0 26 7 29 20 3 11 12 20 20 20 8 0
17 9 20 20 3 11 12 20 20 20 8 0 17 9 20 20 3 11 9 20 13 20 17 0 40 32 40 55
0 15 7 26 20 30 14 4 20 15 20 35 0 21 8 34 28 47 37 23 52 43 52 68 0 12 9
30 19 39 13 12 22 38 26 79 5 39 14 66 24 74 14 10 16 43 16 267 0 224 -2 257
-16 268 -10 8 -19 35 -23 70 -7 70 -14 88 -32 88 -8 0 -14 9 -14 21 0 12 -8
23 -20 26 -15 4 -20 14 -20 40 0 26 -5 36 -20 40 -11 3 -20 13 -20 22 0 9 -9
22 -20 29 -11 7 -20 22 -20 35 0 23 -58 87 -79 87 -6 0 -11 9 -11 20 0 13 -7
20 -20 20 -13 0 -20 7 -20 20 0 13 -7 20 -20 20 -11 0 -20 7 -20 15 0 9 -11
20 -24 24 -13 5 -26 16 -29 24 -3 8 -19 18 -36 22 -17 4 -36 15 -41 26 -8 13
-21 19 -45 19 -24 0 -35 5 -35 14 0 8 -9 18 -20 21 -11 3 -20 11 -20 16 0 5
-165 9 -415 9 -233 0 -415 -4 -415 -9z"/>
</g>
</svg>
