<?xml version="1.0" standalone="no"?>
<!DOCTYPE svg PUBLIC "-//W3C//DTD SVG 20010904//EN"
 "http://www.w3.org/TR/2001/REC-SVG-20010904/DTD/svg10.dtd">
<svg version="1.0" xmlns="http://www.w3.org/2000/svg"
 width="1042.000000pt" height="1042.000000pt" viewBox="0 0 1042.000000 1042.000000"
 preserveAspectRatio="xMidYMid meet">
<metadata>
Created by potrace 1.16, written by Peter Selinger 2001-2019
</metadata>
<g transform="translate(0.000000,1042.000000) scale(0.100000,-0.100000)"
fill="#000000" stroke="none">
<path d="M5947 8963 c-4 -3 -7 -19 -7 -34 0 -19 -6 -30 -20 -34 -11 -3 -20
-15 -20 -26 0 -10 -7 -19 -15 -19 -9 0 -19 -8 -22 -17 -4 -10 -14 -24 -24 -31
-10 -6 -20 -26 -24 -43 -4 -17 -16 -40 -26 -50 -10 -10 -19 -26 -19 -34 0 -8
-9 -19 -20 -25 -11 -6 -20 -17 -20 -25 0 -7 -9 -17 -20 -20 -16 -5 -20 -15
-20 -46 0 -32 -3 -39 -20 -39 -13 0 -20 -7 -20 -20 0 -13 -7 -20 -20 -20 -13
0 -20 -7 -20 -19 0 -11 -8 -22 -19 -26 -11 -3 -21 -19 -25 -37 -3 -17 -15 -37
-26 -45 -11 -8 -20 -21 -20 -29 0 -8 -6 -14 -14 -14 -16 0 -26 -21 -26 -56 0
-17 -6 -24 -20 -24 -13 0 -20 -7 -20 -19 0 -10 -9 -21 -20 -24 -12 -3 -20 -14
-20 -26 0 -12 -6 -21 -15 -21 -8 0 -19 -16 -25 -39 -5 -21 -17 -42 -25 -45 -8
-3 -15 -12 -15 -20 0 -8 -9 -18 -20 -21 -11 -3 -20 -11 -20 -16 0 -6 -11 -25
-25 -43 -14 -18 -25 -44 -25 -57 0 -15 -14 -37 -40 -59 -22 -19 -40 -43 -40
-52 0 -11 -8 -18 -19 -18 -14 0 -20 -10 -25 -40 -4 -26 -11 -40 -21 -40 -8 0
-15 -4 -15 -9 0 -4 -11 -20 -25 -35 -14 -15 -25 -36 -25 -46 0 -11 -9 -24 -20
-30 -11 -6 -20 -20 -20 -30 0 -11 -7 -20 -15 -20 -9 0 -19 -8 -22 -17 -4 -10
-15 -24 -25 -31 -10 -8 -18 -26 -18 -43 0 -19 -5 -29 -15 -29 -9 0 -20 -11
-25 -25 -5 -14 -16 -25 -25 -25 -8 0 -15 -7 -15 -15 0 -8 -11 -25 -25 -39 -14
-14 -25 -34 -25 -46 0 -11 -7 -23 -15 -26 -8 -4 -15 -11 -15 -16 0 -6 -11 -23
-25 -40 -14 -16 -25 -36 -25 -43 0 -8 -9 -17 -20 -20 -13 -4 -20 -15 -20 -30
0 -34 -10 -55 -26 -55 -8 0 -14 -7 -14 -16 0 -9 -9 -18 -20 -21 -11 -3 -20 -9
-20 -13 0 -4 -11 -19 -25 -34 -14 -15 -25 -37 -25 -49 0 -12 -9 -28 -20 -35
-11 -7 -20 -18 -20 -26 0 -7 -9 -16 -20 -19 -15 -4 -20 -14 -20 -41 0 -29 -4
-36 -20 -36 -13 0 -20 -7 -20 -20 0 -11 -7 -20 -15 -20 -9 0 -20 -11 -24 -24
-5 -13 -16 -26 -25 -29 -8 -3 -18 -22 -22 -41 -3 -21 -12 -36 -20 -36 -8 0
-14 -4 -14 -9 0 -4 -10 -20 -22 -34 -50 -58 -68 -86 -68 -106 0 -12 -5 -21
-11 -21 -5 0 -17 -16 -25 -35 -8 -19 -19 -35 -24 -35 -6 0 -15 -11 -20 -25 -5
-14 -16 -25 -24 -25 -16 0 -26 -21 -26 -56 0 -15 -6 -24 -15 -24 -9 0 -19 -8
-22 -17 -4 -10 -15 -24 -25 -31 -10 -7 -18 -17 -18 -23 0 -5 -9 -18 -20 -29
-11 -11 -20 -31 -20 -45 0 -18 -5 -25 -20 -25 -13 0 -20 -7 -20 -19 0 -10 -9
-21 -20 -24 -14 -3 -20 -14 -20 -31 0 -15 -10 -35 -25 -48 -14 -12 -25 -28
-25 -35 0 -7 -6 -13 -14 -13 -8 0 -17 -9 -21 -19 -3 -11 -12 -22 -19 -24 -8
-3 -17 -21 -21 -39 -4 -18 -16 -39 -26 -46 -11 -7 -19 -20 -19 -28 0 -8 -7
-14 -15 -14 -8 0 -17 -11 -21 -24 -3 -14 -14 -32 -25 -42 -10 -9 -21 -32 -25
-51 -3 -18 -15 -38 -25 -44 -11 -5 -19 -16 -19 -24 0 -8 -7 -15 -15 -15 -9 0
-19 -8 -22 -17 -4 -10 -15 -24 -25 -31 -10 -7 -18 -24 -18 -37 0 -14 -9 -29
-20 -35 -11 -6 -20 -19 -20 -29 0 -10 -9 -21 -20 -24 -12 -3 -20 -14 -20 -25
0 -31 -11 -52 -26 -52 -8 0 -14 -4 -14 -9 0 -5 -20 -30 -45 -57 -31 -32 -45
-56 -45 -74 0 -19 -6 -29 -20 -33 -11 -3 -20 -12 -20 -20 0 -8 -9 -17 -20 -20
-11 -3 -20 -12 -20 -21 0 -9 -9 -26 -20 -38 -12 -13 -27 -30 -35 -39 -12 -12
-15 -52 -15 -192 l0 -176 30 -16 c25 -13 131 -15 827 -15 l798 0 -3 -95 c-3
-82 -6 -97 -23 -108 -10 -6 -19 -17 -19 -24 0 -7 -9 -22 -20 -33 -17 -17 -20
-33 -20 -109 0 -78 -2 -89 -19 -94 -16 -4 -19 -19 -25 -105 -6 -73 -11 -102
-22 -106 -8 -3 -14 -14 -14 -24 0 -11 -10 -32 -22 -47 -18 -23 -23 -44 -26
-119 -3 -65 -8 -94 -19 -103 -8 -6 -17 -31 -20 -55 -4 -24 -12 -52 -19 -63 -7
-11 -16 -52 -20 -92 -5 -58 -10 -72 -25 -76 -17 -5 -19 -16 -19 -105 0 -91 -2
-100 -20 -105 -13 -3 -20 -14 -20 -30 0 -13 -8 -32 -19 -41 -15 -14 -19 -35
-23 -108 -4 -74 -8 -93 -23 -104 -16 -12 -20 -30 -23 -114 -3 -72 -8 -100 -17
-100 -14 0 -25 -22 -25 -49 0 -9 -9 -24 -20 -34 -17 -14 -20 -29 -20 -88 0
-56 -4 -76 -20 -96 -17 -22 -20 -41 -20 -129 0 -97 -1 -104 -20 -104 -13 0
-20 -7 -20 -20 0 -10 -8 -24 -19 -29 -15 -9 -20 -27 -26 -107 -5 -67 -13 -106
-26 -128 -13 -21 -19 -50 -19 -91 0 -37 -6 -68 -15 -79 -8 -11 -15 -38 -15
-61 0 -23 7 -50 15 -61 8 -10 15 -31 15 -46 l0 -28 164 0 164 0 7 31 c4 18 24
47 46 67 28 26 39 44 39 65 0 20 6 30 20 34 11 3 20 13 20 23 0 10 9 20 20 23
11 3 20 12 20 20 0 8 8 17 18 20 12 2 22 17 26 37 3 18 15 39 26 47 11 8 20
20 20 27 0 8 7 16 14 19 8 3 18 22 22 41 4 26 11 36 25 36 11 0 19 7 19 15 0
15 57 75 71 75 5 0 9 13 9 30 0 19 7 34 20 42 11 7 20 18 20 25 0 15 55 73 69
73 6 0 13 15 16 34 5 22 14 36 26 39 14 4 19 14 19 41 0 26 4 36 16 36 9 0 18
9 21 20 3 10 14 22 24 25 10 4 19 13 19 20 0 8 9 19 20 25 11 6 20 16 20 23 0
7 8 17 19 24 10 6 22 24 25 39 4 16 16 34 27 42 10 7 19 25 19 40 0 20 8 31
33 43 21 10 35 26 41 47 6 17 18 33 28 35 11 3 18 14 18 31 0 17 15 39 45 68
25 24 45 49 45 56 0 6 6 12 14 12 16 0 26 21 26 56 0 15 6 24 16 24 9 0 18 9
21 20 3 10 14 22 24 25 14 5 19 16 19 41 0 24 5 34 15 34 9 0 21 11 27 25 6
14 17 25 25 25 7 0 13 4 13 9 0 4 11 20 25 35 14 15 25 38 25 52 0 15 6 24 16
24 9 0 18 9 21 20 3 10 14 22 24 25 10 4 19 15 19 25 0 9 9 20 20 23 15 4 20
14 20 41 0 26 4 36 16 36 9 0 18 9 21 20 3 10 13 22 23 25 10 3 21 20 24 39 4
22 13 36 26 39 12 3 20 14 20 26 0 12 6 21 14 21 8 0 18 9 21 20 3 11 12 20
20 20 15 0 25 22 25 56 0 15 6 24 15 24 9 0 18 8 22 17 4 10 24 34 45 54 22
20 41 49 44 67 4 18 13 32 20 32 8 0 16 11 20 24 3 14 14 32 25 42 10 9 19 25
19 34 0 10 9 20 20 23 11 3 20 14 20 25 0 11 9 22 20 25 11 3 20 12 20 20 0 8
9 17 20 20 15 4 20 14 20 36 0 20 7 34 20 41 10 6 22 25 25 43 5 26 13 35 38
43 26 7 34 16 41 46 6 22 16 38 28 41 13 4 18 15 18 41 0 29 4 36 20 36 13 0
20 7 20 20 0 13 7 20 20 20 13 0 20 7 20 19 0 11 9 23 20 26 11 3 20 12 20 19
0 7 9 23 20 36 11 13 23 34 26 46 3 12 14 24 25 27 14 4 19 14 19 41 0 29 4
36 20 36 13 0 20 7 20 20 0 11 7 20 15 20 9 0 20 11 24 24 5 13 16 26 24 29 8
3 17 22 21 41 4 21 13 36 21 36 7 0 17 9 20 20 3 11 12 20 19 20 7 0 18 11 24
25 6 14 16 25 21 25 6 0 13 16 17 35 4 21 13 37 25 40 10 4 19 15 19 25 0 9 9
20 20 23 12 3 20 14 20 25 0 31 11 52 26 52 8 0 14 4 14 9 0 4 11 20 25 35 14
15 25 31 25 37 0 5 7 9 15 9 9 0 17 14 21 39 4 27 12 41 25 44 11 3 19 12 19
21 0 9 7 16 15 16 9 0 20 11 25 25 5 14 14 25 19 25 5 0 13 9 16 20 3 11 13
20 21 20 12 0 14 31 14 185 l0 185 -23 0 c-13 0 -38 7 -54 15 -27 14 -130 15
-822 13 -435 -2 -791 0 -791 5 0 4 6 7 14 7 20 0 26 32 26 136 0 78 3 93 20
109 11 10 20 24 20 32 0 7 9 22 20 33 17 17 20 33 20 124 0 94 2 104 19 109
17 4 20 18 26 125 6 88 11 122 21 126 8 3 14 10 14 16 0 6 10 24 21 40 18 24
23 47 27 132 3 79 9 109 23 130 11 15 19 43 19 66 0 25 5 42 14 45 9 4 16 34
21 101 5 68 11 96 20 96 20 0 25 24 25 128 0 86 2 99 20 110 11 7 20 20 20 29
0 9 8 25 18 36 13 14 18 44 23 123 5 87 9 107 25 118 16 12 19 30 22 130 3 89
7 116 18 116 7 0 16 16 20 38 3 20 14 43 23 50 13 10 17 36 19 126 3 102 6
115 23 119 17 5 19 15 19 104 0 86 3 101 20 116 11 9 20 28 20 41 0 13 9 30
22 38 20 13 21 22 21 132 0 90 -3 120 -14 127 -16 10 -342 12 -352 2z"/>
</g>
</svg>
