<?xml version="1.0" standalone="no"?>
<!DOCTYPE svg PUBLIC "-//W3C//DTD SVG 20010904//EN"
 "http://www.w3.org/TR/2001/REC-SVG-20010904/DTD/svg10.dtd">
<svg version="1.0" xmlns="http://www.w3.org/2000/svg"
 width="500.000000pt" height="500.000000pt" viewBox="0 0 500.000000 500.000000"
 preserveAspectRatio="xMidYMid meet">

<g transform="translate(0.000000,500.000000) scale(0.100000,-0.100000)"
fill="#000000" stroke="none">
<path d="M1445 4159 c-85 -13 -177 -45 -275 -96 -230 -119 -403 -341 -477
-608 -25 -92 -28 -115 -28 -280 0 -99 4 -206 8 -237 l8 -58 482 -2 482 -3 20
-107 c19 -98 35 -147 35 -104 0 10 25 133 55 273 30 141 55 257 55 259 0 2
106 4 235 4 l235 0 5 -22 c3 -13 25 -115 49 -228 127 -607 251 -1188 254
-1185 2 2 55 248 118 547 63 298 116 549 119 556 3 9 59 12 234 12 l230 0 9
-32 c5 -18 29 -129 53 -245 l44 -213 420 0 421 0 12 43 c66 232 101 450 108
677 5 153 4 188 -15 275 -79 382 -327 654 -687 757 -67 19 -102 22 -234 22
-131 -1 -171 -5 -260 -27 -225 -55 -412 -150 -585 -296 -32 -28 -62 -51 -66
-51 -5 0 -34 23 -66 51 -225 198 -517 314 -808 323 -71 2 -157 0 -190 -5z"/>
<path d="M2016 2640 c-15 -74 -48 -236 -74 -360 l-48 -225 -199 0 -199 0 -27
130 c-15 72 -38 181 -50 243 l-23 112 -327 0 -327 0 33 -111 c137 -455 385
-858 737 -1195 246 -237 516 -420 823 -561 177 -81 166 -78 230 -54 120 45
350 167 510 270 333 214 646 530 859 864 39 63 156 279 156 290 0 4 -211 7
-469 7 -259 0 -472 4 -475 8 -6 10 -63 269 -72 330 -4 23 -9 42 -13 42 -3 0
-17 -51 -30 -112 -95 -465 -191 -902 -199 -910 -4 -4 -118 -7 -252 -6 l-244 3
-42 195 c-22 107 -81 382 -129 610 -48 228 -95 449 -104 490 l-17 75 -28 -135z"/>
</g>
</svg>
