<?xml version="1.0" standalone="no"?>
<!DOCTYPE svg PUBLIC "-//W3C//DTD SVG 20010904//EN"
 "http://www.w3.org/TR/2001/REC-SVG-20010904/DTD/svg10.dtd">
<svg version="1.0" xmlns="http://www.w3.org/2000/svg"
 width="500.000000pt" height="500.000000pt" viewBox="0 0 500.000000 500.000000"
 preserveAspectRatio="xMidYMid meet">

<g transform="translate(0.000000,500.000000) scale(0.100000,-0.100000)"
fill="#000000" stroke="none">
<path d="M1997 4429 c-47 -28 -143 -152 -197 -251 -59 -112 -81 -188 -87 -310
-9 -168 27 -305 117 -442 57 -87 155 -195 184 -201 11 -3 131 8 266 23 l245
29 111 71 c111 72 134 82 134 60 0 -18 184 -580 251 -768 33 -91 89 -234 126
-318 36 -84 63 -155 61 -158 -3 -2 -43 13 -89 35 -142 66 -203 83 -324 88
-135 6 -201 -8 -333 -73 -51 -26 -95 -45 -96 -43 -2 2 -31 45 -64 94 -101 151
-258 288 -409 356 -120 55 -211 72 -378 72 -168 1 -244 -12 -415 -69 -118 -39
-298 -122 -318 -147 -19 -22 -31 -1271 -13 -1314 26 -62 232 -190 388 -242
230 -77 531 -64 834 35 l76 25 83 -31 c45 -17 133 -44 195 -60 508 -136 969
-113 1434 71 217 87 558 291 580 349 28 71 36 155 36 370 0 251 -12 347 -70
580 -130 517 -391 1004 -753 1406 -362 402 -816 665 -1292 748 -122 21 -261
29 -283 15z m-326 -2133 c113 -29 243 -86 258 -114 17 -31 13 -66 -9 -94 -32
-42 -63 -40 -179 7 -183 75 -267 79 -434 23 -96 -32 -132 -31 -163 3 -21 24
-24 80 -4 104 22 26 66 45 164 70 124 33 243 33 367 1z"/>
</g>
</svg>
