<?xml version="1.0" standalone="no"?>
<!DOCTYPE svg PUBLIC "-//W3C//DTD SVG 20010904//EN"
 "http://www.w3.org/TR/2001/REC-SVG-20010904/DTD/svg10.dtd">
<svg version="1.0" xmlns="http://www.w3.org/2000/svg"
 width="500.000000pt" height="500.000000pt" viewBox="0 0 500.000000 500.000000"
 preserveAspectRatio="xMidYMid meet">

<g transform="translate(0.000000,500.000000) scale(0.100000,-0.100000)"
fill="#000000" stroke="none">
<path d="M1634 4580 c-12 -4 -31 -21 -43 -36 -21 -26 -21 -33 -21 -415 0 -213
-5 -423 -10 -466 -28 -211 -83 -385 -197 -625 -41 -87 -74 -160 -72 -162 8 -6
276 -75 369 -95 288 -61 507 -83 825 -84 325 0 560 22 860 84 103 21 374 87
385 94 3 2 -27 70 -66 150 -81 164 -143 340 -173 490 -36 178 -44 316 -36 661
6 285 5 324 -9 352 -34 65 12 62 -933 61 -472 0 -868 -4 -879 -9z m958 -1341
c34 -65 16 -168 -33 -203 -45 -31 -100 -13 -129 44 -18 35 -16 120 4 158 37
71 123 71 158 1z"/>
<path d="M725 3958 c-31 -17 -45 -39 -45 -73 0 -26 21 -51 140 -170 77 -77
140 -144 140 -149 0 -6 -63 -74 -140 -151 -122 -123 -140 -146 -140 -174 0
-40 38 -81 76 -81 23 0 63 35 211 183 101 100 186 192 189 203 9 37 -19 74
-188 240 -189 187 -201 196 -243 172z"/>
<path d="M4285 3949 c-32 -18 -345 -331 -361 -363 -9 -15 -13 -38 -10 -50 3
-11 88 -103 189 -203 148 -148 188 -183 211 -183 38 0 76 41 76 81 0 28 -18
51 -140 174 -77 77 -140 145 -140 151 0 5 63 72 140 149 110 110 140 145 140
167 0 40 -10 57 -41 73 -33 18 -38 18 -64 4z"/>
<path d="M1182 2618 c-63 -199 -98 -389 -104 -560 l-3 -77 55 -6 c125 -15 353
-67 479 -110 293 -101 529 -246 755 -467 l90 -88 61 0 61 0 74 76 c143 146
336 286 521 379 190 96 473 178 727 210 l52 7 0 51 c0 173 -70 510 -138 668
l-20 47 -149 -38 c-419 -107 -754 -151 -1158 -151 -369 0 -677 39 -1040 131
-104 27 -197 51 -206 54 -12 6 -23 -18 -57 -126z"/>
<path d="M1085 1839 c-10 -15 27 -257 56 -373 35 -138 311 -911 336 -938 32
-36 76 -39 528 -36 l440 3 3 338 2 337 -26 0 c-21 0 -51 25 -137 116 -263 276
-575 445 -966 524 -129 26 -231 38 -236 29z"/>
<path d="M3845 1833 c-474 -68 -855 -264 -1151 -593 -60 -67 -63 -70 -91 -70
l-23 0 0 -340 0 -340 450 0 c476 0 480 0 522 46 16 19 241 627 297 807 53 169
97 402 89 474 l-3 29 -90 -13z"/>
</g>
</svg>
