<?xml version="1.0" standalone="no"?>
<!DOCTYPE svg PUBLIC "-//W3C//DTD SVG 20010904//EN"
 "http://www.w3.org/TR/2001/REC-SVG-20010904/DTD/svg10.dtd">
<svg version="1.0" xmlns="http://www.w3.org/2000/svg"
 width="1500.000000pt" height="1500.000000pt" viewBox="0 0 1500.000000 1500.000000"
 preserveAspectRatio="xMidYMid meet">

<g transform="translate(0.000000,1500.000000) scale(0.100000,-0.100000)"
fill="#000000" stroke="none">
<path d="M5145 13840 c-352 -6 -425 -10 -450 -23 -37 -19 -122 -103 -141 -139
-32 -61 -35 -172 -44 -1278 -5 -613 -14 -1187 -19 -1275 -22 -331 -108 -746
-238 -1140 -83 -254 -195 -527 -390 -950 -186 -403 -217 -475 -209 -483 15
-14 829 -224 1111 -286 567 -125 1106 -201 1717 -243 359 -24 1421 -24 1788 0
725 49 1292 133 2055 307 261 59 807 197 843 212 l31 13 -28 70 c-16 39 -66
149 -111 245 -257 545 -314 680 -430 1030 -145 435 -228 836 -271 1305 -17
196 -22 969 -10 1585 13 656 8 784 -35 880 -59 131 -119 152 -493 170 -220 11
-4011 11 -4676 0z m2362 -4015 c164 -49 258 -283 208 -518 -59 -281 -282 -393
-457 -229 -93 87 -118 156 -118 327 0 178 32 275 117 358 43 41 120 76 169 77
17 0 53 -7 81 -15z"/>
<path d="M3873 13372 c-139 -24 -153 -28 -153 -47 0 -11 9 -81 19 -155 46
-315 55 -469 55 -880 0 -337 -3 -424 -22 -595 -87 -805 -235 -1266 -727 -2270
-284 -580 -378 -796 -486 -1115 -503 -1482 -591 -2940 -259 -4271 21 -86 46
-181 55 -211 l16 -55 175 50 c141 41 175 53 171 66 -116 416 -182 773 -229
1246 -20 203 -17 913 6 1140 64 663 187 1245 394 1871 109 327 180 489 530
1209 255 524 353 757 467 1100 284 856 355 1855 204 2868 -14 91 7 87 -216 49z"/>
<path d="M10700 13391 c0 -5 -9 -72 -20 -148 -121 -845 -79 -1719 121 -2481
101 -386 255 -777 521 -1327 400 -825 446 -928 553 -1245 225 -667 355 -1289
417 -2000 17 -193 17 -843 0 -1025 -41 -442 -102 -801 -197 -1151 -21 -74 -36
-137 -34 -139 2 -2 81 -26 174 -53 l170 -50 22 71 c32 101 108 426 137 587
215 1176 117 2439 -290 3719 -125 392 -217 610 -504 1201 -393 807 -521 1124
-629 1556 -173 695 -209 1553 -96 2306 8 54 15 106 15 116 0 15 -23 22 -167
45 -186 30 -193 31 -193 18z"/>
<path d="M11020 8064 c-787 -199 -1340 -309 -1960 -389 -1106 -141 -2442 -135
-3495 16 -591 85 -1119 199 -1960 423 -97 26 -133 32 -143 23 -25 -20 -53 -87
-113 -270 -167 -504 -277 -992 -329 -1457 -19 -174 -44 -606 -35 -620 2 -4 35
-10 72 -14 435 -43 1215 -222 1668 -383 258 -91 559 -224 837 -370 347 -182
686 -412 1024 -696 133 -111 495 -448 614 -571 l44 -46 190 0 190 0 245 243
c262 259 410 387 666 580 435 326 891 587 1332 761 562 222 1281 404 1883 476
149 18 134 -7 126 209 -22 635 -223 1564 -451 2091 -20 46 -37 85 -38 86 -1 1
-166 -41 -367 -92z"/>
<path d="M11765 5357 c-190 -25 -482 -73 -630 -103 -1259 -258 -2275 -820
-3097 -1710 -85 -93 -178 -190 -206 -216 -51 -48 -51 -48 -122 -48 l-70 0 0
-1055 0 -1055 1133 0 c1162 0 1553 8 1678 35 80 16 145 50 182 95 74 88 821
2124 976 2660 75 260 161 652 202 920 23 151 36 409 23 455 l-9 30 -60 -8z"/>
<path d="M3013 5238 c10 -187 78 -619 147 -933 49 -225 204 -701 508 -1555
316 -890 520 -1419 566 -1468 49 -54 129 -78 316 -93 149 -12 1786 -14 2341
-3 l326 7 6 476 c4 262 8 730 9 1041 l3 565 -65 5 c-47 4 -75 12 -100 29 -19
14 -179 167 -355 341 -176 174 -376 362 -444 419 -772 643 -1620 1025 -2708
1220 -236 42 -381 61 -475 61 l-81 0 6 -112z"/>
</g>
</svg>
