<?xml version="1.0" standalone="no"?>
<!DOCTYPE svg PUBLIC "-//W3C//DTD SVG 20010904//EN"
 "http://www.w3.org/TR/2001/REC-SVG-20010904/DTD/svg10.dtd">
<svg version="1.0" xmlns="http://www.w3.org/2000/svg"
 width="1500.000000pt" height="1500.000000pt" viewBox="0 0 1500.000000 1500.000000"
 preserveAspectRatio="xMidYMid meet">
<metadata>
Created by potrace 1.16, written by Peter Selinger 2001-2019
</metadata>
<g transform="translate(0.000000,1500.000000) scale(0.100000,-0.100000)"
fill="#000000" stroke="none">
<path d="M4217 13266 c-3 -8 -23 -18 -44 -21 -21 -3 -51 -12 -66 -20 -16 -8
-39 -15 -52 -15 -14 0 -29 -9 -35 -20 -6 -11 -20 -20 -31 -20 -11 0 -44 -11
-72 -24 -29 -13 -69 -31 -89 -40 -21 -10 -38 -22 -38 -29 0 -7 -17 -21 -37
-32 -21 -11 -52 -29 -69 -40 -32 -20 -158 -129 -178 -153 -32 -38 -89 -92 -97
-92 -5 0 -9 -5 -9 -10 0 -6 -17 -34 -37 -63 -52 -72 -63 -89 -69 -109 -4 -10
-13 -18 -20 -18 -8 0 -14 -5 -14 -11 0 -21 -80 -179 -90 -179 -6 0 -10 -11
-10 -24 0 -14 -4 -28 -10 -31 -5 -3 -10 -21 -10 -38 0 -18 -7 -41 -15 -51 -8
-11 -15 -37 -15 -57 0 -21 -4 -41 -10 -44 -5 -3 -10 -30 -10 -60 0 -57 -14
-105 -33 -117 -9 -6 -13 -559 -18 -2355 -3 -1291 -9 -2364 -13 -2383 -4 -19
-11 -44 -16 -55 -5 -11 -11 -37 -15 -57 -3 -21 -10 -38 -15 -38 -6 0 -10 -15
-10 -33 0 -34 -20 -87 -32 -87 -5 0 -8 -15 -8 -32 0 -18 -7 -42 -15 -52 -8
-11 -15 -39 -15 -62 0 -24 -4 -46 -10 -49 -5 -3 -10 -25 -10 -48 0 -23 -7 -60
-15 -82 -8 -22 -14 -62 -15 -88 0 -33 -5 -49 -15 -53 -11 -5 -15 -22 -15 -69
0 -34 -6 -78 -14 -96 -22 -54 -31 -248 -31 -634 1 -377 13 -607 33 -627 7 -7
12 -43 12 -89 0 -55 4 -78 14 -82 8 -3 15 -29 18 -71 3 -37 10 -72 16 -79 5
-6 12 -34 15 -62 12 -108 24 -166 35 -177 7 -7 12 -25 12 -40 0 -15 5 -28 10
-28 6 0 10 -9 10 -20 0 -11 5 -20 10 -20 6 0 10 -18 10 -41 0 -23 7 -47 15
-55 8 -9 15 -31 15 -49 0 -19 5 -37 10 -40 6 -3 10 -22 10 -41 0 -19 4 -34 9
-34 5 0 11 -17 14 -37 4 -23 15 -43 27 -51 11 -7 20 -20 20 -30 0 -18 23 -89
39 -120 5 -9 14 -35 21 -57 7 -22 16 -42 19 -45 13 -10 61 -112 61 -130 0 -10
7 -23 15 -30 8 -7 15 -21 15 -32 0 -10 7 -21 15 -24 8 -4 15 -14 15 -24 0 -10
7 -25 15 -34 8 -8 15 -22 15 -31 0 -8 6 -18 14 -21 7 -3 19 -23 26 -44 7 -22
20 -47 29 -57 9 -10 23 -33 30 -51 8 -19 19 -39 25 -45 18 -19 46 -65 46 -76
0 -5 14 -23 30 -41 17 -18 30 -38 30 -44 0 -13 60 -99 73 -104 4 -2 17 -23 29
-45 11 -23 35 -58 52 -78 17 -20 41 -49 53 -65 12 -16 31 -40 42 -53 12 -13
21 -27 21 -30 0 -3 19 -27 43 -53 23 -26 56 -65 72 -87 17 -22 33 -40 38 -41
9 0 47 -38 47 -47 1 -12 48 -63 58 -63 5 0 31 -26 58 -57 27 -32 56 -64 66
-71 9 -7 39 -34 66 -60 27 -26 61 -56 75 -67 14 -11 26 -24 27 -30 0 -5 29
-30 65 -55 36 -25 65 -50 65 -57 0 -6 15 -20 33 -31 36 -21 67 -45 101 -77 11
-11 50 -39 86 -63 36 -23 82 -58 104 -77 21 -19 46 -35 56 -35 10 0 20 -7 24
-15 5 -13 303 -15 2601 -15 1427 0 2595 3 2595 8 0 4 20 18 45 32 25 14 48 33
51 42 3 10 10 18 15 18 11 0 128 80 156 106 31 29 55 47 96 73 20 12 42 32 48
42 6 11 25 29 42 39 35 21 206 178 271 249 23 25 50 52 61 60 11 9 35 34 55
55 19 22 61 67 93 100 31 33 57 63 57 68 0 4 12 20 28 36 15 15 45 50 66 78
22 27 50 60 63 73 13 13 23 30 23 37 0 7 6 17 13 21 8 4 31 33 52 63 21 30 41
57 44 60 11 9 58 85 76 123 10 21 26 42 36 48 11 5 19 18 19 27 0 10 13 33 30
52 16 19 29 40 30 47 0 6 6 18 13 25 7 7 28 44 47 81 56 110 61 118 76 124 8
3 14 13 14 24 0 10 11 39 25 65 14 26 25 55 25 65 0 11 5 19 10 19 6 0 10 6
10 14 0 8 7 21 15 29 16 17 55 114 55 138 0 9 7 22 15 29 8 7 15 23 15 36 0
12 5 26 10 29 6 3 10 19 10 35 0 20 6 31 19 35 14 4 22 19 27 51 3 24 10 44
14 44 4 0 10 15 13 33 12 71 25 119 36 130 6 6 11 28 11 49 0 27 6 41 20 50
13 9 20 24 20 46 0 18 5 43 12 55 7 12 16 46 20 75 19 127 26 159 36 185 7 16
12 50 12 77 0 31 5 52 14 57 9 5 15 32 18 78 2 39 11 85 21 104 15 31 17 86
17 610 0 551 -1 579 -20 631 -12 33 -20 80 -20 116 0 46 -4 63 -15 68 -10 4
-15 20 -15 51 0 25 -7 62 -15 82 -8 19 -15 51 -15 69 0 35 -13 99 -35 174 -7
25 -16 62 -20 83 -4 23 -11 37 -20 37 -11 0 -15 12 -15 45 0 25 -4 45 -9 45
-9 0 -28 64 -38 130 -3 19 -10 41 -17 49 -8 10 -12 626 -14 2333 -1 1335 -6
2318 -11 2318 -14 0 -22 30 -32 115 -17 156 -22 180 -35 200 -8 11 -14 34 -14
52 0 17 -4 35 -10 38 -5 3 -10 15 -10 26 0 10 -9 27 -20 36 -11 10 -20 27 -20
40 0 12 -7 28 -15 37 -8 8 -15 19 -15 24 0 14 -33 76 -42 80 -5 2 -8 10 -8 18
0 8 -5 14 -11 14 -5 0 -17 16 -25 35 -8 19 -19 35 -24 35 -6 0 -10 5 -10 10 0
6 -11 23 -25 38 -14 15 -25 30 -25 34 0 4 -22 31 -50 60 -27 29 -55 60 -63 68
-7 8 -31 29 -52 45 -49 39 -65 54 -65 66 0 5 -5 9 -11 9 -6 0 -25 11 -43 25
-18 14 -39 25 -47 25 -16 1 -59 34 -59 47 0 11 -58 43 -80 43 -9 0 -23 7 -30
15 -7 8 -19 15 -26 15 -8 0 -22 4 -32 9 -9 6 -29 12 -44 16 -16 3 -28 12 -28
20 0 10 -11 15 -34 15 -18 0 -39 6 -45 14 -6 7 -30 16 -53 19 -23 3 -47 13
-54 21 -10 14 -325 16 -3287 16 -2846 0 -3276 -2 -3280 -14z m5868 -1596 c3
-5 14 -10 24 -10 10 0 25 -7 32 -16 7 -9 23 -20 35 -25 28 -10 99 -104 108
-143 4 -15 14 -35 21 -43 13 -12 15 -128 15 -809 0 -771 -4 -875 -30 -894 -4
-3 -10 -25 -13 -50 -14 -111 -13 -110 -72 -110 -34 0 -59 5 -69 15 -8 8 -21
15 -29 15 -9 0 -28 14 -44 30 -15 17 -46 39 -68 50 -43 20 -105 57 -173 103
-23 15 -46 27 -50 27 -18 0 -74 33 -79 46 -3 8 -14 14 -24 14 -10 0 -19 4 -19
9 0 5 -10 13 -22 16 -13 4 -36 12 -53 20 -16 7 -41 17 -55 23 -50 19 -80 36
-80 44 0 4 -9 8 -19 8 -11 0 -23 5 -26 10 -3 6 -14 10 -24 10 -10 0 -24 7 -31
15 -7 8 -22 15 -34 15 -12 0 -31 7 -42 15 -10 8 -29 15 -40 15 -12 0 -27 7
-34 15 -7 8 -23 15 -35 15 -12 0 -28 7 -35 15 -7 8 -25 15 -40 15 -15 0 -33 7
-40 15 -7 8 -21 15 -31 15 -35 0 -134 30 -144 44 -6 7 -28 16 -50 19 -72 10
-129 24 -167 41 -21 9 -51 16 -67 16 -16 0 -33 5 -36 10 -3 6 -28 10 -55 10
-28 0 -54 6 -62 14 -15 15 -127 35 -253 45 -44 3 -85 10 -92 14 -7 4 -70 12
-140 17 -70 5 -153 14 -183 19 -72 13 -471 13 -535 0 -27 -5 -108 -14 -178
-19 -70 -5 -133 -13 -140 -17 -7 -4 -48 -11 -92 -14 -121 -10 -239 -30 -247
-42 -4 -6 -33 -14 -65 -18 -101 -13 -162 -27 -185 -43 -12 -9 -39 -16 -60 -16
-20 0 -40 -4 -43 -10 -3 -5 -22 -10 -42 -10 -21 0 -41 -6 -47 -16 -11 -15 -52
-27 -133 -41 -18 -3 -38 -11 -44 -19 -6 -8 -24 -14 -39 -14 -15 0 -33 -7 -40
-15 -7 -8 -23 -15 -35 -15 -12 0 -28 -7 -35 -15 -7 -8 -22 -15 -34 -15 -11 0
-30 -7 -40 -15 -11 -8 -30 -15 -42 -15 -12 0 -27 -7 -34 -15 -7 -8 -21 -15
-31 -15 -10 0 -21 -4 -24 -10 -3 -5 -15 -10 -26 -10 -10 0 -19 -4 -19 -8 0 -8
-88 -52 -103 -52 -16 0 -142 -65 -150 -77 -4 -7 -24 -20 -45 -29 -81 -36 -107
-49 -114 -60 -7 -10 -26 -22 -105 -62 -10 -5 -31 -16 -46 -23 -15 -7 -42 -28
-60 -46 -18 -18 -39 -33 -48 -33 -9 0 -19 -7 -23 -15 -7 -19 -109 -21 -124 -2
-5 6 -12 35 -14 64 -3 29 -12 59 -21 68 -16 15 -17 88 -17 861 0 532 4 844 10
844 5 0 15 19 21 43 15 51 82 145 113 156 12 5 28 16 35 25 7 9 22 16 32 16
10 0 21 5 24 10 4 7 877 10 2585 10 1708 0 2581 -3 2585 -10z m-2215 -3825
c224 -38 400 -95 597 -191 537 -265 934 -736 1098 -1304 67 -233 78 -321 79
-630 1 -289 -4 -342 -50 -540 -102 -437 -349 -841 -689 -1127 -333 -280 -729
-449 -1154 -492 -148 -16 -405 -13 -554 4 -717 84 -1331 519 -1651 1168 -146
298 -204 544 -213 907 -13 508 94 900 353 1290 330 498 878 842 1464 919 47 6
99 13 115 15 77 11 515 -3 605 -19z"/>
</g>
</svg>
