<?xml version="1.0" standalone="no"?>
<!DOCTYPE svg PUBLIC "-//W3C//DTD SVG 20010904//EN"
 "http://www.w3.org/TR/2001/REC-SVG-20010904/DTD/svg10.dtd">
<svg version="1.0" xmlns="http://www.w3.org/2000/svg"
 width="1500.000000pt" height="1500.000000pt" viewBox="0 0 1500.000000 1500.000000"
 preserveAspectRatio="xMidYMid meet">

<g transform="translate(0.000000,1500.000000) scale(0.100000,-0.100000)"
fill="#000000" stroke="none">
<path d="M3321 12854 c-212 -57 -360 -261 -361 -496 0 -49 69 -409 251 -1305
332 -1642 497 -2465 553 -2763 26 -135 53 -277 61 -316 19 -101 81 -254 438
-1074 l315 -725 -173 -1465 c-201 -1703 -217 -1844 -219 -2006 l-1 -121 40
-79 c133 -262 431 -358 694 -224 107 54 185 143 229 261 26 71 35 141 262
2079 105 894 193 1637 196 1651 5 24 97 67 1137 529 623 277 1147 509 1164
517 32 13 32 13 24 -9 -5 -13 -199 -459 -431 -993 -1400 -3215 -1395 -3204
-1416 -3307 -47 -231 30 -482 201 -653 92 -92 177 -145 290 -181 291 -92 575
-27 772 178 105 110 38 -39 1546 3418 366 839 864 1977 1022 2333 26 59 51
107 54 107 7 0 8 -2 1061 -2415 1090 -2497 1367 -3130 1417 -3235 39 -82 58
-107 137 -186 76 -75 108 -99 177 -132 128 -62 193 -76 344 -77 109 0 142 4
205 23 304 96 490 322 531 644 17 132 1 232 -62 381 -89 212 -586 1358 -1365
3143 -732 1681 -972 2233 -1157 2669 -286 671 -388 846 -647 1106 -249 250
-532 426 -859 533 -454 148 -911 151 -1350 7 -72 -24 -842 -360 -1911 -835
-984 -438 -1794 -796 -1799 -796 -5 0 -17 32 -26 71 -31 140 -267 1250 -475
2239 -229 1091 -245 1161 -290 1256 -82 171 -245 265 -454 263 -39 0 -95 -7
-125 -15z"/>
<path d="M2356 7669 c-716 -83 -1222 -685 -1193 -1419 19 -468 232 -854 605
-1094 211 -136 462 -206 741 -206 380 0 690 127 951 389 263 264 401 600 401
976 0 292 -86 558 -258 798 -282 392 -773 611 -1247 556z"/>
</g>
</svg>
