<?xml version="1.0" standalone="no"?>
<!DOCTYPE svg PUBLIC "-//W3C//DTD SVG 20010904//EN"
 "http://www.w3.org/TR/2001/REC-SVG-20010904/DTD/svg10.dtd">
<svg version="1.0" xmlns="http://www.w3.org/2000/svg"
 width="1500.000000pt" height="1500.000000pt" viewBox="0 0 1500.000000 1500.000000"
 preserveAspectRatio="xMidYMid meet">
<metadata>
Created by potrace 1.16, written by Peter Selinger 2001-2019
</metadata>
<g transform="translate(0.000000,1500.000000) scale(0.100000,-0.100000)"
fill="#000000" stroke="none">
<path d="M7348 13911 c-147 -47 -279 -183 -322 -330 -9 -30 -16 -68 -16 -84 0
-16 -27 -151 -60 -300 -183 -838 -265 -1491 -295 -2362 -22 -658 -56 -1323
-71 -1393 -3 -17 -31 -36 -116 -78 -245 -123 -458 -253 -593 -364 -96 -79
-233 -225 -274 -293 -72 -122 -85 -168 -89 -329 -8 -271 44 -798 154 -1565 57
-403 57 -491 1 -574 -38 -57 -94 -86 -337 -178 -723 -273 -1668 -644 -1785
-701 -239 -115 -396 -347 -435 -643 -28 -214 -29 -3101 -1 -3247 16 -83 75
-194 135 -253 59 -59 165 -118 246 -138 76 -18 203 -15 275 5 140 41 248 134
318 274 l42 85 7 651 c3 358 6 955 7 1327 l1 676 33 41 c46 58 99 98 199 148
147 74 332 130 855 259 609 151 888 227 1138 310 492 163 803 320 976 495 150
151 164 210 163 720 0 371 -10 591 -55 1210 -27 374 -36 737 -20 834 7 42 42
163 77 269 75 220 107 344 131 507 17 105 18 209 15 1245 -2 673 1 1235 7
1390 l10 260 147 790 c81 435 149 820 152 856 15 217 -142 427 -362 485 -71
19 -189 17 -258 -5z"/>
<path d="M6380 11991 c-176 -57 -303 -133 -426 -256 -417 -414 -416 -1101 4
-1507 42 -41 106 -94 141 -117 63 -43 238 -131 259 -131 7 0 14 10 16 23 5 22
17 325 36 897 14 422 25 573 76 1058 8 74 12 72 -106 33z"/>
<path d="M11332 9365 c-93 -20 -136 -45 -242 -137 -52 -46 -409 -395 -792
-777 l-698 -694 -295 289 c-357 349 -412 398 -494 437 -84 40 -226 49 -327 22
-162 -44 -299 -192 -335 -363 -15 -73 -7 -214 17 -272 9 -25 33 -70 52 -100
48 -77 1012 -1037 1092 -1090 94 -60 177 -85 290 -85 115 0 199 26 293 88 67
45 1264 1228 1698 1680 274 284 298 319 320 455 24 147 -24 295 -131 406 -72
75 -153 121 -247 141 -82 18 -119 18 -201 0z"/>
<path d="M7776 5588 c-67 -303 -128 -441 -250 -562 -49 -49 -89 -76 -201 -133
-164 -84 -316 -146 -435 -177 -57 -15 -86 -28 -88 -39 -10 -51 256 -449 765
-1142 l162 -220 743 -701 c1111 -1050 1145 -1082 1199 -1164 86 -132 184 -212
308 -251 91 -29 241 -29 332 0 357 114 484 561 242 857 -37 47 -42 57 -32 75
6 12 7 24 2 29 -4 4 -120 91 -258 195 -826 621 -1352 1104 -1461 1340 -13 28
-46 131 -74 230 -66 230 -171 552 -220 671 -22 54 -67 135 -106 191 -92 133
-600 809 -613 817 -6 4 -13 -3 -15 -16z"/>
</g>
</svg>
