<?xml version="1.0" standalone="no"?>
<!DOCTYPE svg PUBLIC "-//W3C//DTD SVG 20010904//EN"
 "http://www.w3.org/TR/2001/REC-SVG-20010904/DTD/svg10.dtd">
<svg version="1.0" xmlns="http://www.w3.org/2000/svg"
 width="1500.000000pt" height="1500.000000pt" viewBox="0 0 1500.000000 1500.000000"
 preserveAspectRatio="xMidYMid meet">
<metadata>
Created by potrace 1.16, written by Peter Selinger 2001-2019
</metadata>
<g transform="translate(0.000000,1500.000000) scale(0.100000,-0.100000)"
fill="#000000" stroke="none">
<path d="M4381 12490 c-131 -11 -221 -31 -386 -85 -477 -158 -858 -393 -1190
-736 -363 -375 -600 -806 -764 -1392 l-41 -146 0 -617 c0 -537 7 -783 25 -870
l5 -21 1112 -6 c612 -4 1264 -10 1449 -14 l336 -6 33 -181 c53 -295 104 -486
129 -486 15 0 24 40 96 391 65 321 209 997 246 1158 l21 88 226 6 c124 4 433
7 688 7 l462 0 17 -72 c22 -98 74 -339 291 -1368 275 -1302 562 -2640 590
-2748 28 -111 38 -128 55 -86 23 58 309 1378 634 2924 43 201 79 367 81 369
10 11 622 19 974 13 l395 -7 17 -75 c25 -108 210 -972 254 -1187 33 -160 40
-182 58 -187 12 -3 586 -6 1277 -6 l1256 0 46 173 c102 379 152 604 207 931
82 486 104 760 104 1291 0 419 0 420 -27 551 -183 880 -633 1567 -1306 1994
-209 133 -474 254 -725 331 -222 68 -258 72 -736 73 -487 1 -537 -4 -842 -80
-670 -168 -1182 -433 -1783 -923 -55 -45 -110 -84 -122 -87 -27 -7 -49 8 -288
200 -245 198 -418 312 -675 448 -415 220 -843 358 -1310 423 -135 19 -721 29
-889 15z"/>
<path d="M6127 8333 c-9 -15 -50 -206 -393 -1863 -30 -146 -59 -269 -65 -275
-6 -6 -217 -11 -588 -13 l-577 -3 -123 598 c-68 329 -135 655 -150 726 l-26
127 -997 0 c-549 0 -998 -4 -998 -8 0 -19 183 -600 231 -734 359 -1001 881
-1881 1598 -2692 155 -175 535 -555 742 -741 714 -643 1556 -1176 2488 -1574
179 -77 246 -94 315 -79 189 39 876 379 1401 691 1154 687 2230 1752 2902
2872 176 293 375 674 389 742 6 30 5 31 -37 36 -24 3 -510 10 -1079 16 -569 6
-1185 14 -1368 17 l-333 6 -9 23 c-14 36 -106 451 -165 745 -58 283 -73 341
-92 348 -31 10 -60 -101 -227 -898 -288 -1374 -441 -2054 -478 -2136 -6 -13
-22 -26 -37 -30 -22 -6 -1422 -7 -1427 -1 -1 1 -68 315 -148 697 -319 1505
-675 3178 -711 3338 -15 66 -26 84 -38 65z"/>
</g>
</svg>
