<?xml version="1.0" standalone="no"?>
<!DOCTYPE svg PUBLIC "-//W3C//DTD SVG 20010904//EN"
 "http://www.w3.org/TR/2001/REC-SVG-20010904/DTD/svg10.dtd">
<svg version="1.0" xmlns="http://www.w3.org/2000/svg"
 width="1500.000000pt" height="1500.000000pt" viewBox="0 0 1500.000000 1500.000000"
 preserveAspectRatio="xMidYMid meet">
<metadata>
Created by potrace 1.16, written by Peter Selinger 2001-2019
</metadata>
<g transform="translate(0.000000,1500.000000) scale(0.100000,-0.100000)"
fill="#000000" stroke="none">
<path d="M6190 13900 l-345 -5 -60 -30 c-81 -41 -165 -127 -207 -212 l-33 -68
-3 -2062 -2 -2063 -2058 -2 -2057 -3 -68 -32 c-87 -41 -178 -130 -215 -210
-25 -54 -27 -71 -35 -263 -4 -113 -6 -853 -5 -1645 l4 -1440 21 -53 c45 -111
144 -210 256 -256 l52 -21 2052 -3 2053 -3 2 -2057 3 -2057 33 -68 c42 -85
119 -165 203 -208 l64 -34 335 -6 c426 -9 2199 -9 2640 0 l336 6 65 32 c88 43
160 118 207 212 l37 75 3 2053 3 2053 1917 1 c1054 0 1985 4 2067 7 143 7 154
9 217 40 80 39 163 124 204 209 l29 58 6 825 c4 454 4 1196 0 1650 l-6 825
-33 67 c-63 129 -187 222 -319 239 -37 4 -971 8 -2075 9 l-2007 0 -3 2058 -3
2058 -37 75 c-47 94 -119 169 -207 212 l-65 32 -371 6 c-431 8 -2093 7 -2595
-1z"/>
</g>
</svg>
