<?xml version="1.0" standalone="no"?>
<!DOCTYPE svg PUBLIC "-//W3C//DTD SVG 20010904//EN"
 "http://www.w3.org/TR/2001/REC-SVG-20010904/DTD/svg10.dtd">
<svg version="1.0" xmlns="http://www.w3.org/2000/svg"
 width="1500.000000pt" height="1500.000000pt" viewBox="0 0 1500.000000 1500.000000"
 preserveAspectRatio="xMidYMid meet">
<metadata>
Created by potrace 1.16, written by Peter Selinger 2001-2019
</metadata>
<g transform="translate(0.000000,1500.000000) scale(0.100000,-0.100000)"
fill="#000000" stroke="none">
<path d="M7395 13890 c-174 -25 -348 -119 -470 -252 -77 -84 -113 -157 -1255
-2548 -243 -509 -445 -929 -449 -933 -9 -9 22 -5 -1391 -217 -1326 -199 -2085
-316 -2190 -336 -88 -17 -210 -73 -297 -137 -126 -93 -238 -268 -284 -442 -33
-124 -31 -319 5 -440 32 -106 80 -201 137 -270 22 -28 573 -588 1222 -1245
650 -657 1229 -1243 1285 -1301 l104 -107 -251 -1513 c-351 -2123 -351 -2120
-351 -2268 0 -328 219 -629 535 -737 107 -37 294 -45 412 -19 108 24 138 40
2083 1095 514 279 1007 546 1094 593 l160 86 60 -31 c87 -44 756 -404 1501
-808 1564 -848 1671 -905 1770 -930 106 -27 273 -27 377 -1 215 55 408 212
511 416 64 129 96 308 77 446 -18 137 -168 1053 -391 2394 -115 693 -208 1267
-207 1276 2 10 568 588 1260 1286 691 697 1286 1301 1322 1342 183 207 240
521 146 802 -35 104 -72 172 -137 254 -54 67 -154 151 -225 190 -111 61 -233
82 -2188 375 -1625 244 -1581 237 -1591 247 -4 5 -255 526 -557 1158 -1111
2325 -1070 2244 -1166 2340 -176 177 -434 269 -661 235z"/>
</g>
</svg>
