<?xml version="1.0" standalone="no"?>
<!DOCTYPE svg PUBLIC "-//W3C//DTD SVG 20010904//EN"
 "http://www.w3.org/TR/2001/REC-SVG-20010904/DTD/svg10.dtd">
<svg version="1.0" xmlns="http://www.w3.org/2000/svg"
 width="1500.000000pt" height="1500.000000pt" viewBox="0 0 1500.000000 1500.000000"
 preserveAspectRatio="xMidYMid meet">
<metadata>
Created by potrace 1.16, written by Peter Selinger 2001-2019
</metadata>
<g transform="translate(0.000000,1500.000000) scale(0.100000,-0.100000)"
fill="#000000" stroke="none">
<path d="M8065 13894 c-16 -2 -84 -11 -150 -20 -634 -84 -1254 -333 -1737
-697 -251 -189 -438 -402 -591 -674 -283 -500 -372 -1155 -242 -1772 132 -625
509 -1187 1036 -1543 549 -372 1216 -513 1864 -393 425 79 712 224 1042 527
123 112 228 224 433 463 183 213 372 409 455 472 244 185 520 201 865 50 314
-137 714 -444 1188 -912 318 -313 498 -526 706 -840 446 -669 701 -1442 742
-2245 12 -221 22 -206 87 125 163 823 188 1606 76 2395 -234 1648 -1138 3140
-2484 4102 -605 433 -1312 742 -2026 887 -332 68 -388 73 -829 76 -223 2 -418
1 -435 -1z"/>
<path d="M5595 13496 c-1073 -356 -1936 -867 -2659 -1576 -260 -256 -424 -440
-622 -703 -1076 -1425 -1476 -3281 -1063 -4932 260 -1038 834 -1897 1629
-2437 416 -283 801 -442 1193 -493 137 -17 395 -20 535 -4 522 57 1055 315
1464 707 758 727 976 1875 544 2852 -192 433 -557 848 -924 1051 -244 136
-514 218 -1067 324 -541 104 -693 161 -851 319 -93 93 -143 177 -185 307 -113
351 -78 877 111 1654 120 496 242 833 432 1195 216 411 462 744 803 1086 258
259 453 419 738 609 172 115 161 120 -78 41z"/>
<path d="M10560 8070 c-894 -59 -1695 -595 -2085 -1395 -162 -332 -229 -613
-229 -970 0 -324 33 -477 224 -1045 166 -496 200 -628 200 -791 0 -141 -70
-316 -179 -446 -206 -245 -639 -479 -1266 -683 -475 -154 -808 -232 -1183
-277 -210 -25 -767 -25 -972 0 -556 68 -1036 206 -1490 430 -230 114 -220 110
-220 93 0 -16 193 -191 390 -356 722 -600 1573 -1056 2441 -1305 1163 -334
2411 -311 3564 65 1696 554 2970 1816 3335 3303 83 339 105 533 105 907 -1
397 -24 574 -110 835 -154 470 -493 905 -935 1200 -475 317 -1039 471 -1590
435z"/>
</g>
</svg>
