<?xml version="1.0" standalone="no"?>
<!DOCTYPE svg PUBLIC "-//W3C//DTD SVG 20010904//EN"
 "http://www.w3.org/TR/2001/REC-SVG-20010904/DTD/svg10.dtd">
<svg version="1.0" xmlns="http://www.w3.org/2000/svg"
 width="1500.000000pt" height="1500.000000pt" viewBox="0 0 1500.000000 1500.000000"
 preserveAspectRatio="xMidYMid meet">
<metadata>
Created by potrace 1.16, written by Peter Selinger 2001-2019
</metadata>
<g transform="translate(0.000000,1500.000000) scale(0.100000,-0.100000)"
fill="#000000" stroke="none">
<path d="M6008 13307 c-123 -46 -422 -420 -617 -772 -120 -216 -194 -418 -234
-640 -19 -106 -21 -157 -22 -435 0 -293 2 -323 23 -425 75 -348 238 -685 476
-980 163 -202 341 -378 395 -392 63 -16 369 11 1116 98 l440 51 202 129 c353
225 474 295 498 286 6 -3 19 -34 28 -69 49 -192 579 -1805 727 -2208 91 -250
259 -678 434 -1110 103 -252 126 -320 112 -320 -6 0 -240 98 -381 160 -170 74
-319 126 -437 152 -97 21 -125 23 -483 23 -379 -1 -380 -1 -475 -27 -104 -28
-234 -82 -497 -207 -95 -44 -179 -81 -187 -81 -19 0 -58 50 -185 231 -154 221
-260 349 -425 514 -363 361 -789 618 -1203 726 -194 50 -351 69 -618 76 -344
8 -651 -9 -835 -47 -419 -85 -1023 -309 -1390 -515 -155 -87 -146 -66 -159
-355 -30 -641 -50 -2581 -33 -3269 l10 -413 29 -46 c76 -123 426 -366 768
-534 433 -212 765 -291 1275 -305 558 -14 1005 54 1633 251 l208 65 197 -70
c502 -178 1067 -318 1582 -393 306 -45 381 -48 1016 -43 591 4 601 4 774 31
705 109 1314 290 1889 561 631 297 1325 733 1417 891 36 61 63 146 86 274 18
101 21 166 25 535 6 501 -10 1153 -32 1313 -73 537 -328 1426 -598 2088 -485
1185 -1249 2339 -2136 3224 -1029 1026 -2289 1701 -3595 1925 -287 49 -747 78
-818 52z m-1273 -6387 c228 -26 631 -152 875 -275 147 -74 190 -124 190 -222
0 -96 -85 -214 -165 -229 -73 -13 -141 6 -516 145 -291 108 -421 136 -629 136
-182 -1 -224 -8 -550 -102 -124 -35 -252 -67 -285 -70 -155 -14 -247 69 -247
222 0 146 58 198 311 279 156 51 382 105 477 115 115 12 434 12 539 1z"/>
</g>
</svg>
