<?xml version="1.0" standalone="no"?>
<!DOCTYPE svg PUBLIC "-//W3C//DTD SVG 20010904//EN"
 "http://www.w3.org/TR/2001/REC-SVG-20010904/DTD/svg10.dtd">
<svg version="1.0" xmlns="http://www.w3.org/2000/svg"
 width="1500.000000pt" height="1500.000000pt" viewBox="0 0 1500.000000 1500.000000"
 preserveAspectRatio="xMidYMid meet">
<metadata>
Created by potrace 1.16, written by Peter Selinger 2001-2019
</metadata>
<g transform="translate(0.000000,1500.000000) scale(0.100000,-0.100000)"
fill="#000000" stroke="none">
<path d="M7023 13901 c-50 -19 -534 -267 -678 -349 -86 -49 -115 -95 -115
-183 0 -70 12 -94 177 -354 491 -776 606 -1061 788 -1955 82 -403 94 -422 281
-428 173 -7 318 33 368 101 20 27 21 40 20 290 -2 674 -111 1398 -319 2117
-63 218 -178 555 -211 622 -70 139 -177 187 -311 139z"/>
<path d="M10625 13733 c-91 -12 -349 -70 -481 -108 -471 -135 -853 -349 -1163
-650 -307 -298 -520 -648 -664 -1091 -85 -259 -157 -593 -157 -724 0 -59 4
-73 26 -100 46 -54 76 -63 184 -57 170 10 503 87 750 173 903 314 1483 972
1724 1956 71 287 91 472 62 543 -21 51 -59 65 -163 64 -48 -1 -101 -4 -118 -6z"/>
<path d="M9350 10895 c-483 -62 -899 -191 -1424 -442 -269 -129 -279 -132
-391 -140 -126 -8 -185 10 -406 121 -480 244 -881 374 -1360 443 -97 13 -192
17 -434 18 -325 0 -394 -6 -619 -51 -685 -138 -1277 -532 -1740 -1157 -445
-599 -727 -1382 -801 -2224 -19 -218 -19 -648 0 -866 118 -1333 731 -2905
1565 -4012 224 -297 523 -623 759 -827 389 -337 812 -564 1206 -648 157 -34
441 -39 604 -11 228 39 447 127 671 271 207 133 319 172 495 173 183 1 323
-45 537 -175 165 -99 235 -135 363 -183 135 -50 285 -83 435 -94 520 -38 1041
156 1590 593 154 123 499 466 644 641 690 830 1244 1921 1555 3060 188 690
276 1394 242 1934 -60 957 -378 1834 -908 2501 -91 115 -376 400 -493 492
-391 310 -853 509 -1330 573 -167 23 -612 28 -760 10z"/>
</g>
</svg>
