<?xml version="1.0" standalone="no"?>
<!DOCTYPE svg PUBLIC "-//W3C//DTD SVG 20010904//EN"
 "http://www.w3.org/TR/2001/REC-SVG-20010904/DTD/svg10.dtd">
<svg version="1.0" xmlns="http://www.w3.org/2000/svg"
 width="1500.000000pt" height="1500.000000pt" viewBox="0 0 1500.000000 1500.000000"
 preserveAspectRatio="xMidYMid meet">
<metadata>
Created by potrace 1.16, written by Peter Selinger 2001-2019
</metadata>
<g transform="translate(0.000000,1500.000000) scale(0.100000,-0.100000)"
fill="#000000" stroke="none">
<path d="M7320 13869 c-815 -33 -1637 -315 -2299 -788 -355 -254 -693 -584
-950 -926 -1119 -1490 -1144 -3541 -61 -5059 241 -337 573 -678 905 -928 515
-388 1094 -649 1763 -793 l22 -5 0 -639 0 -639 -632 -4 -633 -3 -73 -27 c-237
-86 -414 -274 -472 -504 -27 -105 -27 -263 0 -369 55 -214 194 -383 391 -474
141 -66 123 -64 800 -69 l616 -3 6 -437 c3 -241 11 -466 17 -502 23 -136 90
-259 200 -371 61 -61 94 -85 170 -123 130 -63 200 -80 340 -80 137 0 221 19
335 75 140 68 240 167 315 310 66 127 67 133 75 657 l8 472 638 0 638 0 83 26
c298 93 488 316 528 618 20 149 -15 324 -92 454 -47 81 -180 211 -259 256 -37
20 -107 50 -155 66 l-88 30 -648 0 -648 0 0 628 0 628 128 23 c1056 191 1990
769 2640 1634 399 530 675 1161 796 1817 52 281 61 399 61 775 -1 370 -11 496
-66 790 -261 1400 -1226 2592 -2552 3154 -456 192 -976 312 -1422 327 -82 2
-170 6 -195 7 -25 2 -128 0 -230 -4z m570 -1474 c333 -51 571 -125 865 -270
283 -139 518 -308 745 -535 445 -445 722 -1000 817 -1635 27 -183 24 -581 -5
-770 -143 -917 -690 -1688 -1492 -2104 -310 -160 -579 -248 -930 -302 -208
-33 -580 -33 -789 0 -883 136 -1643 662 -2074 1436 -491 880 -469 1974 57
2838 281 462 691 838 1170 1073 297 145 601 233 966 280 137 17 524 11 670
-11z"/>
</g>
</svg>
