<?xml version="1.0" standalone="no"?>
<!DOCTYPE svg PUBLIC "-//W3C//DTD SVG 20010904//EN"
 "http://www.w3.org/TR/2001/REC-SVG-20010904/DTD/svg10.dtd">
<svg version="1.0" xmlns="http://www.w3.org/2000/svg"
 width="1500.000000pt" height="1500.000000pt" viewBox="0 0 1500.000000 1500.000000"
 preserveAspectRatio="xMidYMid meet">
<metadata>
Created by potrace 1.16, written by Peter Selinger 2001-2019
</metadata>
<g transform="translate(0.000000,1500.000000) scale(0.100000,-0.100000)"
fill="#000000" stroke="none">
<path d="M10420 13841 c-500 -110 -893 -454 -1048 -917 -144 -429 -63 -892
220 -1265 38 -49 68 -91 68 -94 0 -7 -1766 -2223 -1794 -2252 l-21 -22 -148
89 c-669 400 -1464 512 -2231 315 -402 -103 -774 -291 -1103 -558 -67 -54 -74
-57 -93 -44 -12 8 -314 304 -673 658 l-652 644 47 95 c76 153 100 248 105 425
4 124 1 167 -15 245 -103 495 -514 830 -1017 830 -465 0 -866 -309 -991 -763
-64 -233 -36 -514 73 -732 107 -214 320 -405 553 -494 137 -53 265 -74 425
-68 185 6 329 47 465 132 l55 34 255 -252 c140 -139 442 -437 671 -664 l416
-411 -79 -98 c-114 -142 -207 -293 -308 -499 -140 -285 -222 -539 -271 -840
-30 -185 -38 -586 -15 -779 116 -998 726 -1855 1631 -2292 264 -127 529 -209
826 -256 124 -19 183 -22 429 -22 320 0 441 13 705 78 571 140 1096 458 1480
896 l87 99 227 -151 c737 -492 2651 -1801 2651 -1813 0 -2 -14 -39 -30 -82
-128 -328 -128 -689 0 -1018 145 -369 454 -663 831 -789 270 -90 584 -94 850
-10 211 67 398 182 559 343 116 117 187 214 254 347 90 178 135 355 143 560
20 484 -198 923 -589 1184 -155 104 -312 170 -506 212 -130 29 -415 31 -537 4
-261 -58 -460 -158 -662 -334 l-74 -64 -42 28 c-67 44 -2811 1926 -2819 1933
-4 3 25 68 63 144 155 304 245 590 296 932 25 171 25 620 0 790 -96 642 -363
1184 -819 1661 -43 45 -78 86 -78 93 0 10 1744 2206 1791 2255 18 19 19 19
107 -22 211 -98 347 -127 592 -127 202 0 277 12 436 65 311 106 588 332 748
614 112 197 165 388 173 631 6 180 -8 298 -52 450 -122 420 -450 759 -870 900
-132 45 -209 56 -415 60 -165 4 -208 2 -280 -14z"/>
</g>
</svg>
