<?xml version="1.0" standalone="no"?>
<!DOCTYPE svg PUBLIC "-//W3C//DTD SVG 20010904//EN"
 "http://www.w3.org/TR/2001/REC-SVG-20010904/DTD/svg10.dtd">
<svg version="1.0" xmlns="http://www.w3.org/2000/svg"
 width="1500.000000pt" height="1500.000000pt" viewBox="0 0 1500.000000 1500.000000"
 preserveAspectRatio="xMidYMid meet">
<metadata>
Created by potrace 1.16, written by Peter Selinger 2001-2019
</metadata>
<g transform="translate(0.000000,1500.000000) scale(0.100000,-0.100000)"
fill="#000000" stroke="none">
<path d="M7188 13890 c-57 -31 -61 -39 -324 -825 l-134 -399 -1133 -1136
c-624 -624 -1161 -1168 -1195 -1208 -120 -141 -181 -306 -189 -513 -6 -140 4
-223 43 -339 30 -89 46 -115 278 -470 457 -698 540 -884 740 -1647 74 -279
221 -876 261 -1056 72 -328 84 -555 84 -1687 l1 -735 -433 -103 c-1072 -257
-1445 -351 -1511 -381 -292 -132 -462 -426 -443 -764 7 -129 25 -198 84 -317
39 -80 60 -108 137 -185 138 -138 192 -164 483 -236 131 -32 959 -225 1841
-429 1555 -359 1606 -370 1705 -370 132 0 222 20 326 71 142 70 250 197 308
361 35 97 44 271 19 368 -46 178 -155 321 -310 406 -28 16 -267 102 -531 191
l-480 162 475 -2 c542 -4 532 -2 725 -97 299 -146 490 -417 535 -760 19 -141
-6 -281 -96 -538 -45 -127 -52 -162 -32 -162 43 0 2799 735 2890 771 179 70
347 253 412 449 141 424 -62 869 -459 1002 -87 30 -568 149 -1615 401 l-675
163 -3 684 c-3 737 9 1256 33 1440 24 184 68 381 205 930 295 1177 344 1298
812 2013 252 384 285 441 320 547 31 92 32 100 33 270 0 143 -3 187 -19 240
-24 81 -84 213 -126 277 -18 26 -558 575 -1201 1218 l-1168 1170 -181 539
c-99 296 -193 566 -209 600 -24 54 -35 66 -73 84 -58 29 -157 29 -210 2z
m2105 -3724 c75 -88 86 -116 94 -231 l6 -80 -51 -96 c-58 -113 -102 -181 -580
-901 l-357 -538 -1106 0 -1106 0 -450 678 c-248 372 -468 709 -489 747 -38 69
-39 72 -39 175 0 168 -22 139 527 700 261 267 717 728 1012 1025 l537 539 968
-969 c532 -534 998 -1006 1034 -1049z"/>
<path d="M7205 11094 c-500 -57 -870 -373 -997 -850 -20 -79 -23 -110 -22
-274 0 -156 4 -197 21 -260 55 -197 144 -362 269 -499 411 -448 1152 -470
1593 -47 317 305 428 747 291 1159 -119 354 -403 630 -752 731 -127 37 -288
53 -403 40z"/>
</g>
</svg>
