<?xml version="1.0" standalone="no"?>
<!DOCTYPE svg PUBLIC "-//W3C//DTD SVG 20010904//EN"
 "http://www.w3.org/TR/2001/REC-SVG-20010904/DTD/svg10.dtd">
<svg version="1.0" xmlns="http://www.w3.org/2000/svg"
 width="1500.000000pt" height="1500.000000pt" viewBox="0 0 1500.000000 1500.000000"
 preserveAspectRatio="xMidYMid meet">
<metadata>
Created by potrace 1.16, written by Peter Selinger 2001-2019
</metadata>
<g transform="translate(0.000000,1500.000000) scale(0.100000,-0.100000)"
fill="#000000" stroke="none">
<path d="M8952 13858 c-37 -20 -103 -110 -535 -728 -1086 -1553 -3221 -4612
-4072 -5835 -218 -314 -373 -545 -379 -568 -19 -69 25 -171 92 -215 24 -16
121 -17 1459 -20 788 -2 1433 -5 1433 -8 0 -5 -185 -722 -665 -2574 -579
-2235 -633 -2449 -654 -2579 -9 -56 -8 -70 8 -106 42 -95 181 -134 275 -76 19
12 125 149 276 358 648 897 3413 4740 4385 6093 285 397 451 637 456 660 18
76 -12 158 -74 204 l-28 21 -1439 5 c-792 3 -1441 8 -1444 10 -2 3 236 1045
530 2315 527 2282 636 2765 650 2878 6 51 4 62 -19 96 -55 83 -172 115 -255
69z"/>
</g>
</svg>
