<?xml version="1.0" standalone="no"?>
<!DOCTYPE svg PUBLIC "-//W3C//DTD SVG 20010904//EN"
 "http://www.w3.org/TR/2001/REC-SVG-20010904/DTD/svg10.dtd">
<svg version="1.0" xmlns="http://www.w3.org/2000/svg"
 width="1500.000000pt" height="1500.000000pt" viewBox="0 0 1500.000000 1500.000000"
 preserveAspectRatio="xMidYMid meet">
<metadata>
Created by potrace 1.16, written by Peter Selinger 2001-2019
</metadata>
<g transform="translate(0.000000,1500.000000) scale(0.100000,-0.100000)"
fill="#000000" stroke="none">
<path d="M5355 13760 c-483 -8 -465 -6 -540 -72 -63 -54 -85 -106 -96 -215 -5
-54 -14 -595 -20 -1203 -6 -608 -14 -1152 -19 -1210 -9 -119 -48 -360 -86
-530 -88 -396 -228 -796 -435 -1247 -238 -519 -289 -632 -289 -647 0 -16 38
-29 270 -91 1074 -286 1767 -402 2665 -445 271 -13 1089 -13 1360 0 882 42
1550 147 2615 410 319 79 420 107 420 116 0 15 -85 207 -182 408 -290 608
-450 1061 -547 1556 -99 503 -121 893 -103 1845 19 965 17 1056 -28 1158 -57
129 -113 148 -490 167 -220 11 -3800 11 -4495 0z m2291 -3918 c109 -56 174
-191 174 -361 0 -128 -39 -251 -105 -329 -36 -43 -119 -82 -174 -82 -97 0
-196 74 -248 185 -26 57 -28 68 -28 200 0 155 13 214 67 292 76 111 206 150
314 95z"/>
<path d="M2194 11892 c-99 -47 -154 -125 -155 -222 -2 -102 17 -125 411 -525
271 -275 420 -433 420 -446 0 -17 -129 -158 -393 -427 -292 -297 -395 -412
-422 -469 -48 -101 10 -250 118 -302 69 -34 124 -28 194 19 143 95 997 950
1091 1092 61 92 0 193 -314 517 -231 239 -691 677 -763 726 -81 55 -127 64
-187 37z"/>
<path d="M12855 11851 c-63 -36 -464 -419 -736 -702 -353 -367 -369 -387 -384
-490 -6 -42 -4 -49 31 -95 136 -180 942 -984 1078 -1075 57 -38 65 -41 119
-37 73 5 130 44 175 118 26 45 32 64 32 113 0 33 -7 74 -16 93 -26 54 -132
172 -421 466 -264 269 -393 410 -393 427 0 13 146 167 425 451 258 262 363
378 390 429 22 44 20 152 -5 201 -21 42 -48 64 -127 104 -67 33 -106 33 -168
-3z"/>
<path d="M11055 8169 c-724 -185 -1186 -281 -1725 -358 -1151 -166 -2486 -172
-3590 -15 -537 76 -949 162 -1672 350 -202 52 -372 92 -378 89 -33 -20 -117
-254 -215 -600 -113 -397 -185 -761 -224 -1135 -13 -121 -35 -550 -28 -556 3
-3 74 -14 158 -25 473 -60 1180 -230 1594 -384 557 -207 1028 -464 1490 -810
207 -155 401 -324 664 -578 l224 -217 190 0 190 0 236 233 c334 330 600 546
971 790 398 261 751 437 1185 592 365 129 824 250 1215 319 111 20 486 76 507
76 1 0 3 80 3 178 0 533 -196 1479 -418 2011 -26 63 -52 116 -57 117 -6 1
-149 -33 -320 -77z"/>
<path d="M11535 5505 c-745 -115 -1307 -286 -1875 -570 -609 -305 -1109 -689
-1607 -1237 -69 -76 -140 -147 -158 -158 -24 -15 -50 -20 -99 -20 l-66 0 0
-1025 0 -1025 1234 0 c742 0 1284 4 1362 10 179 14 249 36 306 98 39 41 56 77
126 252 205 520 616 1648 755 2075 196 600 335 1321 303 1578 -7 56 -8 57 -39
56 -18 -1 -126 -16 -242 -34z"/>
<path d="M3249 5503 c-6 -200 90 -806 182 -1153 112 -423 877 -2561 982 -2745
25 -44 72 -80 126 -95 118 -33 208 -35 1504 -34 709 1 1291 4 1293 7 3 3 8
462 11 1021 l6 1016 -57 0 c-43 0 -66 6 -99 26 -23 14 -154 139 -292 278 -137
138 -299 296 -360 350 -683 613 -1504 1026 -2456 1235 -322 70 -646 121 -775
121 -63 0 -64 0 -65 -27z"/>
</g>
</svg>
