<?xml version="1.0" standalone="no"?>
<!DOCTYPE svg PUBLIC "-//W3C//DTD SVG 20010904//EN"
 "http://www.w3.org/TR/2001/REC-SVG-20010904/DTD/svg10.dtd">
<svg version="1.0" xmlns="http://www.w3.org/2000/svg"
 width="1500.000000pt" height="1500.000000pt" viewBox="0 0 1500.000000 1500.000000"
 preserveAspectRatio="xMidYMid meet">
<metadata>
Created by potrace 1.16, written by Peter Selinger 2001-2019
</metadata>
<g transform="translate(0.000000,1500.000000) scale(0.100000,-0.100000)"
fill="#000000" stroke="none">
<path d="M7430 11343 c-324 -353 -637 -804 -865 -1245 l-91 -177 -85 70 c-539
450 -1338 868 -2007 1050 -76 20 -84 21 -99 7 -33 -34 -123 -479 -158 -783
-28 -247 -38 -493 -32 -785 7 -379 42 -698 107 -989 28 -128 29 -125 -27 -117
-518 72 -1090 69 -1643 -10 -182 -26 -442 -82 -459 -99 -13 -13 -10 -31 36
-167 185 -557 495 -1160 821 -1597 39 -52 69 -98 66 -102 -2 -4 -28 -17 -58
-28 -372 -139 -892 -434 -1286 -730 -206 -154 -494 -404 -566 -490 l-28 -33
105 -102 c267 -259 650 -548 1029 -776 164 -98 551 -291 715 -355 267 -105
537 -184 790 -230 261 -48 381 -58 675 -59 303 0 440 12 700 64 780 156 1684
623 2343 1213 99 89 81 89 182 -2 301 -274 826 -622 1260 -837 1011 -498 2026
-574 3040 -227 575 198 1121 514 1697 984 182 149 348 305 348 329 0 22 -179
196 -342 331 -455 379 -1054 741 -1525 920 -35 13 -63 27 -63 31 0 5 30 47 66
95 171 226 344 514 513 853 164 330 357 826 349 897 -3 26 -9 29 -73 45 -113
27 -338 66 -505 87 -256 32 -459 44 -770 44 -296 -1 -449 -10 -678 -40 -67 -9
-124 -14 -126 -12 -2 2 9 65 25 139 86 413 129 1021 100 1430 -27 387 -138
1071 -181 1114 -13 13 -106 -10 -318 -80 -234 -77 -436 -161 -687 -283 -473
-231 -781 -428 -1161 -745 l-34 -28 -31 68 c-110 243 -363 655 -577 939 -162
215 -395 485 -419 485 -6 0 -39 -30 -73 -67z m-2675 -686 c563 -219 1192 -595
1577 -943 l39 -35 -39 -102 c-113 -290 -192 -616 -228 -932 -19 -176 -22 -543
-5 -710 69 -672 316 -1331 747 -1992 40 -62 69 -113 63 -113 -21 0 -418 201
-570 288 -391 224 -688 449 -969 731 -627 629 -955 1376 -1030 2345 -13 168
-13 558 0 744 17 232 64 597 101 779 l10 52 107 -38 c59 -21 148 -54 197 -74z
m5817 18 c10 -44 29 -155 43 -247 119 -785 69 -1578 -141 -2229 -266 -830
-822 -1488 -1706 -2022 -148 -89 -488 -267 -630 -330 l-56 -25 73 111 c408
628 652 1250 741 1887 21 158 30 582 14 752 -30 338 -111 681 -236 1011 -18
48 -31 93 -28 100 6 17 163 147 309 257 400 301 914 577 1440 771 72 27 137
47 145 46 10 -2 21 -28 32 -82z m-5987 -4265 c885 -81 1788 -488 2608 -1175
l128 -107 -28 -30 c-130 -138 -645 -507 -952 -682 -862 -494 -1685 -674 -2491
-545 -751 120 -1593 536 -2327 1149 l-123 102 83 70 c643 547 1365 938 2064
1119 198 50 358 77 633 102 82 8 303 6 405 -3z m6420 -15 c863 -111 1775 -552
2560 -1237 l39 -35 -39 -34 c-638 -561 -1423 -988 -2140 -1164 -477 -117 -964
-126 -1450 -25 -520 107 -1078 351 -1616 706 -222 146 -669 491 -669 516 0 10
186 169 321 274 725 565 1609 941 2384 1013 133 13 462 5 610 -14z"/>
</g>
</svg>
