<?xml version="1.0" standalone="no"?>
<!DOCTYPE svg PUBLIC "-//W3C//DTD SVG 20010904//EN"
 "http://www.w3.org/TR/2001/REC-SVG-20010904/DTD/svg10.dtd">
<svg version="1.0" xmlns="http://www.w3.org/2000/svg"
 width="300.000000pt" height="300.000000pt" viewBox="0 0 300.000000 300.000000"
 preserveAspectRatio="xMidYMid meet">
<metadata>
Created by potrace 1.16, written by Peter Selinger 2001-2019
</metadata>
<g transform="translate(0.000000,300.000000) scale(0.100000,-0.100000)"
fill="#000000" stroke="none">
<path d="M970 2584 c-166 -28 -303 -102 -393 -212 -120 -148 -146 -300 -146
-852 0 -449 20 -651 78 -755 61 -113 174 -216 277 -255 145 -54 159 -55 729
-55 578 0 597 2 735 62 110 48 230 168 266 266 62 170 59 131 59 732 0 509 -1
555 -19 620 -10 39 -27 86 -36 105 -10 19 -18 39 -18 43 0 20 -88 129 -136
167 -62 51 -98 70 -201 106 l-80 28 -545 2 c-300 1 -556 0 -570 -2z m920 -194
c157 -15 214 -26 276 -54 119 -55 185 -169 206 -357 17 -153 17 -765 0 -918
-25 -223 -102 -328 -283 -387 -47 -15 -110 -18 -514 -22 -638 -5 -710 6 -822
127 -29 31 -53 61 -53 67 0 5 -9 28 -19 50 -34 70 -43 176 -48 559 -7 540 12
679 111 799 68 83 162 117 366 134 151 13 645 14 780 2z"/>
<path d="M2035 2216 c-50 -22 -77 -60 -83 -114 -4 -46 -2 -52 33 -90 60 -67
132 -69 192 -6 28 30 33 43 33 84 0 56 -32 104 -87 126 -39 17 -50 17 -88 0z"/>
<path d="M1434 2070 c-211 -31 -396 -185 -454 -376 -48 -157 -24 -355 57 -473
81 -117 169 -185 296 -227 146 -49 326 -32 457 44 25 15 79 61 121 103 64 65
80 89 107 157 58 147 59 295 1 440 -26 68 -44 94 -103 155 -89 91 -136 122
-235 152 -88 27 -175 36 -247 25z m230 -239 c73 -36 118 -83 162 -168 25 -51
29 -69 29 -143 0 -74 -4 -93 -29 -145 -41 -83 -94 -137 -169 -171 -187 -85
-391 -4 -471 186 -124 293 190 583 478 441z"/>
</g>
</svg>
