<?xml version="1.0" standalone="no"?>
<!DOCTYPE svg PUBLIC "-//W3C//DTD SVG 20010904//EN"
 "http://www.w3.org/TR/2001/REC-SVG-20010904/DTD/svg10.dtd">
<svg version="1.0" xmlns="http://www.w3.org/2000/svg"
 width="300.000000pt" height="300.000000pt" viewBox="0 0 300.000000 300.000000"
 preserveAspectRatio="xMidYMid meet">
<metadata>
Created by potrace 1.16, written by Peter Selinger 2001-2019
</metadata>
<g transform="translate(0.000000,300.000000) scale(0.100000,-0.100000)"
fill="#000000" stroke="none">
<path d="M1457 2423 c-21 -49 -59 -112 -154 -260 -57 -88 -75 -83 277 -83 171
0 310 -2 310 -5 0 -6 -134 -214 -150 -232 -5 -7 -15 -24 -22 -38 -6 -14 -15
-25 -19 -25 -4 0 -37 -51 -74 -112 -37 -62 -71 -114 -76 -116 -5 -2 -9 -12 -9
-23 0 -18 8 -19 126 -19 l126 0 -164 -172 c-90 -94 -219 -228 -288 -297 -69
-69 -152 -155 -184 -191 l-58 -65 26 50 c14 27 26 53 26 58 0 4 8 27 19 50 10
23 30 71 44 107 14 36 33 79 41 95 9 17 16 36 16 43 0 6 5 12 12 12 6 0 9 3 5
6 -3 3 5 26 19 51 13 25 24 52 24 59 0 16 7 15 -164 14 l-128 -1 36 65 c20 35
36 69 36 75 0 8 -54 11 -170 11 -168 0 -171 0 -195 -25 -25 -24 -25 -27 -25
-194 0 -162 15 -293 38 -338 6 -10 23 -45 39 -78 30 -65 189 -236 231 -249 12
-4 22 -11 22 -15 0 -4 17 -13 37 -20 21 -8 43 -20 50 -27 26 -26 90 -37 243
-41 168 -5 259 9 308 48 14 10 31 19 38 19 7 0 19 6 26 13 7 8 24 20 37 26 78
42 208 188 241 271 8 19 17 37 21 40 4 3 14 43 23 89 14 71 16 183 16 747 l0
663 -24 25 -23 26 -285 0 -285 0 -16 -37z"/>
</g>
</svg>
