<?xml version="1.0" standalone="no"?>
<!DOCTYPE svg PUBLIC "-//W3C//DTD SVG 20010904//EN"
 "http://www.w3.org/TR/2001/REC-SVG-20010904/DTD/svg10.dtd">
<svg version="1.0" xmlns="http://www.w3.org/2000/svg"
 width="300.000000pt" height="300.000000pt" viewBox="0 0 300.000000 300.000000"
 preserveAspectRatio="xMidYMid meet">
<metadata>
Created by potrace 1.16, written by Peter Selinger 2001-2019
</metadata>
<g transform="translate(0.000000,300.000000) scale(0.100000,-0.100000)"
fill="#000000" stroke="none">
<path d="M330 2453 c0 -20 18 -48 58 -93 31 -36 77 -90 102 -119 25 -30 50
-59 56 -65 45 -47 43 -28 44 -639 2 -631 6 -583 -57 -654 -15 -17 -44 -50 -63
-74 -19 -24 -63 -75 -97 -114 -50 -55 -63 -77 -63 -102 l0 -33 365 0 365 0 0
24 c0 20 -33 73 -61 96 -11 9 -134 155 -165 195 -67 86 -64 59 -64 557 l1 453
45 -95 c25 -52 56 -117 69 -145 13 -27 47 -99 75 -160 29 -60 85 -184 125
-275 40 -91 102 -228 139 -305 36 -77 87 -186 113 -243 l47 -103 45 3 46 3 27
70 c14 39 30 79 33 90 4 11 9 25 10 30 11 31 118 305 138 353 14 31 34 84 47
117 12 33 26 69 30 80 53 126 200 503 200 511 0 7 7 25 15 40 14 26 15 -25 13
-510 l-3 -539 -102 -96 c-82 -77 -103 -102 -103 -124 l0 -27 475 0 475 0 0 28
c0 21 -20 46 -100 122 l-100 96 0 711 0 711 99 89 c91 81 99 91 100 126 l1 37
-334 0 -333 0 -58 -147 c-148 -382 -179 -459 -186 -467 -5 -6 -9 -16 -9 -24 0
-11 -11 -40 -50 -127 -5 -11 -41 -101 -80 -200 -40 -99 -75 -186 -79 -193 -4
-7 -32 43 -68 125 -60 134 -200 437 -248 538 -54 111 -202 446 -212 478 -5 16
-31 17 -364 17 l-359 0 0 -27z"/>
</g>
</svg>
