<?xml version="1.0" standalone="no"?>
<!DOCTYPE svg PUBLIC "-//W3C//DTD SVG 20010904//EN"
 "http://www.w3.org/TR/2001/REC-SVG-20010904/DTD/svg10.dtd">
<svg version="1.0" xmlns="http://www.w3.org/2000/svg"
 width="300.000000pt" height="300.000000pt" viewBox="0 0 300.000000 300.000000"
 preserveAspectRatio="xMidYMid meet">
<metadata>
Created by potrace 1.16, written by Peter Selinger 2001-2019
</metadata>
<g transform="translate(0.000000,300.000000) scale(0.100000,-0.100000)"
fill="#000000" stroke="none">
<path d="M1420 2581 c-8 -4 -44 -14 -80 -21 -100 -20 -186 -68 -268 -149 -39
-39 -79 -86 -88 -104 -9 -17 -22 -39 -29 -47 -8 -8 -22 -37 -32 -65 -15 -43
-18 -82 -18 -273 l0 -224 -50 5 c-27 3 -68 10 -91 17 -22 7 -51 10 -65 7 -39
-10 -78 -49 -85 -85 -6 -29 -2 -37 34 -71 28 -27 66 -48 124 -69 55 -20 89
-38 102 -56 20 -26 20 -27 1 -83 -41 -121 -183 -276 -307 -335 -42 -20 -96
-42 -120 -48 -55 -15 -68 -26 -68 -59 0 -53 75 -98 216 -132 l94 -23 11 -56
c9 -45 17 -60 39 -73 25 -15 35 -15 120 -1 143 23 181 13 352 -93 142 -88 191
-106 289 -111 112 -6 180 16 326 105 182 111 230 124 371 99 105 -19 124 -13
146 50 9 26 16 55 16 65 0 13 21 21 93 38 142 33 217 77 217 127 0 34 -18 50
-71 64 -24 7 -84 32 -132 57 -74 38 -99 58 -161 128 -79 89 -115 145 -136 212
-19 62 -1 83 105 124 100 39 151 77 160 119 8 36 -7 66 -48 90 -38 24 -82 25
-130 5 -20 -8 -53 -15 -74 -15 l-38 0 3 202 c3 241 -7 290 -83 408 -81 125
-211 219 -350 253 -85 21 -270 33 -295 18z"/>
</g>
</svg>
