<?xml version="1.0" standalone="no"?>
<!DOCTYPE svg PUBLIC "-//W3C//DTD SVG 20010904//EN"
 "http://www.w3.org/TR/2001/REC-SVG-20010904/DTD/svg10.dtd">
<svg version="1.0" xmlns="http://www.w3.org/2000/svg"
 width="300.000000pt" height="300.000000pt" viewBox="0 0 300.000000 300.000000"
 preserveAspectRatio="xMidYMid meet">
<metadata>
Created by potrace 1.16, written by Peter Selinger 2001-2019
</metadata>
<g transform="translate(0.000000,300.000000) scale(0.100000,-0.100000)"
fill="#000000" stroke="none">
<path d="M1365 2513 c-242 -53 -371 -119 -541 -276 -70 -66 -184 -213 -184
-238 0 -5 -4 -9 -10 -9 -5 0 -10 -6 -10 -13 0 -7 -14 -40 -30 -74 -59 -120
-74 -207 -75 -408 0 -207 13 -276 77 -413 60 -129 123 -219 222 -317 165 -164
331 -251 554 -289 330 -57 655 47 898 289 166 165 265 361 295 581 28 211 -17
484 -101 618 -17 26 -30 49 -30 53 0 15 -96 136 -156 197 -97 96 -165 147
-280 206 -149 76 -258 100 -454 99 -85 -1 -164 -3 -175 -6z m235 -543 c232
-24 398 -68 564 -151 98 -48 116 -68 116 -122 0 -87 -66 -110 -170 -57 -132
67 -222 93 -445 131 -209 36 -529 25 -653 -22 -13 -5 -47 -10 -75 -11 -43 -1
-54 3 -74 26 -29 34 -30 84 -2 120 54 69 453 115 739 86z m25 -370 c177 -29
315 -74 441 -144 73 -40 97 -103 54 -146 -28 -28 -66 -25 -130 11 -88 49 -224
97 -338 121 -151 31 -399 30 -560 -1 -63 -13 -124 -20 -138 -17 -34 9 -56 56
-44 93 6 16 19 34 29 40 16 10 143 37 261 56 78 13 314 6 425 -13z m-141 -320
c187 -16 281 -41 435 -117 77 -39 98 -64 87 -107 -11 -44 -47 -44 -144 2 -130
61 -153 69 -249 87 -120 23 -315 23 -486 0 -144 -20 -168 -17 -175 19 -8 37 8
64 40 75 53 16 146 31 248 40 52 5 100 9 106 10 6 0 68 -4 138 -9z"/>
</g>
</svg>
