<?xml version="1.0" standalone="no"?>
<!DOCTYPE svg PUBLIC "-//W3C//DTD SVG 20010904//EN"
 "http://www.w3.org/TR/2001/REC-SVG-20010904/DTD/svg10.dtd">
<svg version="1.0" xmlns="http://www.w3.org/2000/svg"
 width="300.000000pt" height="300.000000pt" viewBox="0 0 300.000000 300.000000"
 preserveAspectRatio="xMidYMid meet">
<metadata>
Created by potrace 1.16, written by Peter Selinger 2001-2019
</metadata>
<g transform="translate(0.000000,300.000000) scale(0.100000,-0.100000)"
fill="#000000" stroke="none">
<path d="M1275 2615 c-227 -38 -428 -139 -588 -298 -126 -125 -211 -257 -264
-412 -113 -329 -68 -671 127 -967 55 -83 234 -259 361 -355 291 -219 694 -272
1035 -137 294 117 530 364 629 658 82 244 73 522 -24 759 -69 170 -169 303
-325 435 -50 42 -98 84 -106 92 -8 9 -42 35 -75 57 -221 149 -507 211 -770
168z m522 -400 c138 -46 220 -99 281 -180 219 -290 222 -680 7 -966 -158 -211
-377 -319 -644 -319 -145 0 -235 21 -356 81 -93 47 -140 89 -199 179 -85 128
-124 247 -133 405 -18 322 170 633 464 766 127 57 192 69 353 66 128 -3 155
-7 227 -32z"/>
<path d="M1170 1602 c0 -248 4 -403 10 -407 5 -3 23 1 40 10 l30 16 0 -62 0
-61 30 6 c29 5 30 5 30 -34 0 -32 4 -40 18 -40 23 0 694 381 699 397 3 7 -12
22 -31 35 -20 13 -36 30 -36 38 0 9 -20 26 -45 40 -49 27 -51 30 -33 48 8 8 8
15 2 21 -20 20 -669 385 -691 389 l-23 4 0 -400z"/>
</g>
</svg>
