<?xml version="1.0" standalone="no"?>
<!DOCTYPE svg PUBLIC "-//W3C//DTD SVG 20010904//EN"
 "http://www.w3.org/TR/2001/REC-SVG-20010904/DTD/svg10.dtd">
<svg version="1.0" xmlns="http://www.w3.org/2000/svg"
 width="300.000000pt" height="300.000000pt" viewBox="0 0 300.000000 300.000000"
 preserveAspectRatio="xMidYMid meet">
<metadata>
Created by potrace 1.16, written by Peter Selinger 2001-2019
</metadata>
<g transform="translate(0.000000,300.000000) scale(0.100000,-0.100000)"
fill="#000000" stroke="none">
<path d="M1540 1767 c0 -752 0 -752 -61 -822 -48 -55 -114 -93 -174 -100 -114
-15 -211 31 -274 127 -30 45 -35 63 -39 128 -4 62 0 86 16 122 49 111 144 172
270 171 l72 0 0 174 0 173 -83 0 c-176 0 -321 -61 -447 -189 -122 -123 -180
-258 -180 -420 0 -164 39 -278 138 -403 91 -114 217 -194 341 -218 68 -13 232
-13 291 0 113 26 226 94 314 191 70 78 103 133 135 229 24 74 25 81 29 468 3
367 5 393 20 380 65 -55 229 -115 346 -127 44 -4 84 -6 89 -4 4 2 7 79 7 171
l0 168 -67 10 c-201 32 -369 202 -389 392 l-7 62 -173 0 -174 0 0 -683z"/>
</g>
</svg>
