<?xml version="1.0" standalone="no"?>
<!DOCTYPE svg PUBLIC "-//W3C//DTD SVG 20010904//EN"
 "http://www.w3.org/TR/2001/REC-SVG-20010904/DTD/svg10.dtd">
<svg version="1.0" xmlns="http://www.w3.org/2000/svg"
 width="300.000000pt" height="300.000000pt" viewBox="0 0 300.000000 300.000000"
 preserveAspectRatio="xMidYMid meet">
<metadata>
Created by potrace 1.16, written by Peter Selinger 2001-2019
</metadata>
<g transform="translate(0.000000,300.000000) scale(0.100000,-0.100000)"
fill="#000000" stroke="none">
<path d="M1750 2402 c-80 -32 -138 -76 -186 -137 -74 -95 -109 -207 -102 -324
l3 -63 -64 6 c-116 12 -291 59 -396 106 -131 59 -379 251 -439 340 -23 35 -44
19 -76 -56 -21 -51 -25 -74 -24 -169 0 -102 2 -116 33 -185 22 -52 48 -90 85
-127 29 -29 53 -53 52 -53 -14 1 -102 33 -125 45 -17 9 -37 13 -43 9 -14 -9
-5 -95 16 -154 9 -25 18 -49 19 -55 4 -19 55 -90 93 -130 51 -53 105 -92 138
-101 52 -13 36 -24 -33 -24 -67 0 -71 -1 -71 -22 0 -55 115 -202 191 -245 44
-25 152 -63 180 -63 34 0 15 -14 -103 -73 -140 -70 -240 -97 -364 -97 -105 0
-124 -5 -124 -30 0 -29 177 -114 316 -151 109 -30 135 -33 309 -37 205 -4 275
3 435 45 106 28 275 107 370 173 316 220 549 658 550 1035 l0 100 57 45 c71
56 153 156 153 187 0 28 3 28 -62 4 -29 -11 -69 -22 -88 -26 l-35 -6 48 45
c26 25 45 46 42 46 -3 0 1 10 9 23 9 12 22 41 30 65 14 39 14 42 -2 42 -9 0
-28 -6 -42 -13 -34 -18 -111 -46 -181 -67 l-58 -18 -28 29 c-15 17 -55 44 -88
62 -59 31 -64 32 -205 34 -121 3 -152 0 -190 -15z"/>
</g>
</svg>
