<?xml version="1.0" standalone="no"?>
<!DOCTYPE svg PUBLIC "-//W3C//DTD SVG 20010904//EN"
 "http://www.w3.org/TR/2001/REC-SVG-20010904/DTD/svg10.dtd">
<svg version="1.0" xmlns="http://www.w3.org/2000/svg"
 width="300.000000pt" height="300.000000pt" viewBox="0 0 300.000000 300.000000"
 preserveAspectRatio="xMidYMid meet">
<metadata>
Created by potrace 1.16, written by Peter Selinger 2001-2019
</metadata>
<g transform="translate(0.000000,300.000000) scale(0.100000,-0.100000)"
fill="#000000" stroke="none">
<path d="M1275 2499 c-91 -25 -239 -97 -311 -150 -281 -207 -434 -500 -434
-829 0 -147 45 -337 105 -441 13 -24 25 -54 25 -66 0 -11 -16 -77 -35 -145
-19 -67 -49 -170 -65 -228 -17 -58 -30 -113 -30 -122 0 -24 31 -23 128 3 42
11 118 31 167 44 50 13 123 33 163 44 l74 20 56 -28 c139 -69 285 -96 482 -88
157 6 246 27 380 89 273 127 504 414 565 703 20 95 20 339 0 425 -82 348 -350
641 -694 758 -71 24 -90 26 -291 28 -188 2 -224 0 -285 -17z m388 -164 c172
-16 341 -107 483 -258 96 -103 155 -199 196 -321 29 -84 32 -101 32 -226 0
-153 -15 -228 -70 -348 -45 -98 -107 -183 -192 -264 -165 -156 -348 -228 -575
-228 -129 0 -229 25 -359 87 l-98 46 -145 -38 c-80 -21 -148 -36 -150 -33 -2
2 6 40 19 84 13 43 31 107 41 142 l18 62 -51 103 c-157 312 -127 622 85 886
117 146 262 243 433 290 55 14 194 29 235 25 17 -2 61 -6 98 -9z"/>
<path d="M1145 1976 c-36 -16 -79 -74 -101 -139 -24 -71 -16 -178 18 -244 96
-183 271 -369 439 -467 77 -44 208 -87 285 -93 82 -7 117 3 185 50 55 38 82
90 83 162 l1 50 -105 52 c-154 76 -142 76 -215 -2 -53 -57 -66 -67 -87 -62
-44 11 -202 117 -248 165 -58 62 -99 137 -85 156 6 8 23 33 39 55 16 23 29 51
29 64 0 13 -21 73 -47 134 -50 118 -65 133 -129 133 -18 -1 -46 -7 -62 -14z"/>
</g>
</svg>
