<?xml version="1.0" standalone="no"?>
<!DOCTYPE svg PUBLIC "-//W3C//DTD SVG 20010904//EN"
 "http://www.w3.org/TR/2001/REC-SVG-20010904/DTD/svg10.dtd">
<svg version="1.0" xmlns="http://www.w3.org/2000/svg"
 width="300.000000pt" height="300.000000pt" viewBox="0 0 300.000000 300.000000"
 preserveAspectRatio="xMidYMid meet">
<metadata>
Created by potrace 1.16, written by Peter Selinger 2001-2019
</metadata>
<g transform="translate(0.000000,300.000000) scale(0.100000,-0.100000)"
fill="#000000" stroke="none">
<path d="M1090 2350 c-19 -4 -125 -10 -235 -14 -215 -6 -294 -19 -355 -60 -40
-27 -90 -72 -90 -82 0 -3 -11 -19 -24 -35 -27 -32 -40 -83 -61 -243 -28 -213
-15 -790 21 -955 29 -131 118 -220 254 -253 184 -44 1548 -46 1798 -2 102 18
212 99 242 179 38 99 60 320 60 605 0 361 -38 665 -85 684 -8 3 -15 12 -15 20
0 26 -103 93 -176 115 -49 15 -124 25 -254 33 -217 13 -1029 20 -1080 8z m441
-646 c47 -27 140 -80 207 -118 67 -38 119 -73 117 -77 -3 -4 -45 -30 -93 -57
-150 -85 -235 -134 -287 -165 -27 -17 -85 -50 -127 -73 l-78 -42 0 338 0 338
88 -48 c48 -26 126 -70 173 -96z"/>
</g>
</svg>
